<?xml version="1.0" encoding="iso-8859-1"?>
<!-- Generator: Adobe Illustrator 16.0.0, SVG Export Plug-In . SVG Version: 6.00 Build 0)  -->
<!DOCTYPE svg PUBLIC "-//W3C//DTD SVG 1.1//EN" "http://www.w3.org/Graphics/SVG/1.1/DTD/svg11.dtd">
<svg xmlns="http://www.w3.org/2000/svg" xmlns:xlink="http://www.w3.org/1999/xlink" version="1.1" id="Capa_1" x="0px" y="0px" width="512px" height="512px" viewBox="0 0 416.566 416.566" style="enable-background:new 0 0 416.566 416.566;" xml:space="preserve">
<g>
	<g>
		<g id="Layer_5_69_">
			<g>
				<path d="M189.706,33.474l133.065,61.978c1.83,0.853,4.023,0.052,4.877-1.777l12.333-26.481c0.854-1.828,0.053-4.023-1.775-4.875      L205.138,0.341c-1.83-0.852-4.025-0.052-4.877,1.778l-12.333,26.479C187.075,30.428,187.876,32.623,189.706,33.474z" fill="#FFFFFF"/>
				<path d="M212.617,341.084l104.688-224.77c0.854-1.83,0.053-4.024-1.776-4.877L182.464,49.461      c-1.83-0.853-4.025-0.053-4.877,1.777L72.898,276.008c-0.854,1.83-1.182,4.938-0.729,6.904l26.386,115.203      c0.449,1.967,3.289,2.822,5.085,1.901l104.163-53.933C209.597,345.164,211.767,342.914,212.617,341.084z M173.803,341.013      c-1.767,0.979-4.681,2.529-6.478,3.449c0,0-29.139,14.943-39.939,20.483c-5.418,2.777-16.37-1.618-17.73-7.553      c-2.754-12.028-10.201-44.544-10.201-44.544c-0.451-1.967-1.139-5.195-1.528-7.178c0,0-1.517-7.715-1.218-8.356      c0.301-0.646,7.176,2.13,7.176,2.13c1.872,0.756,4.898,2.068,6.729,2.922l57.557,26.809c1.829,0.854,4.785,2.324,6.567,3.271      c0,0,6.547,3.478,6.247,4.122C180.685,337.212,173.803,341.013,173.803,341.013z" fill="#FFFFFF"/>
				<path d="M337.601,399.679H150.896c-3.85,0-7,3.148-7,7v2.888c0,3.85,3.15,7,7,7h186.704c3.852,0,7-3.15,7-7v-2.888      C344.601,402.827,341.45,399.679,337.601,399.679z" fill="#FFFFFF"/>
			</g>
		</g>
	</g>
</g>
<g>
</g>
<g>
</g>
<g>
</g>
<g>
</g>
<g>
</g>
<g>
</g>
<g>
</g>
<g>
</g>
<g>
</g>
<g>
</g>
<g>
</g>
<g>
</g>
<g>
</g>
<g>
</g>
<g>
</g>
</svg>
