<?xml version="1.0" encoding="utf-8"?>
<!-- Generator: Adobe Illustrator 21.0.0, SVG Export Plug-In . SVG Version: 6.00 Build 0)  -->
<svg version="1.1" id="图形" xmlns="http://www.w3.org/2000/svg" xmlns:xlink="http://www.w3.org/1999/xlink" x="0px" y="0px"
	 viewBox="15.167 -16.333 1000.636 1000.678" enable-background="new 15.167 -16.333 1000.636 1000.678" xml:space="preserve">
<g>
	<g>
		<defs>
			<rect id="SVGID_1_" x="157.045" y="125.086" width="716.88" height="717.84"/>
		</defs>
		<clipPath id="SVGID_2_">
			<use xlink:href="#SVGID_1_"  overflow="visible"/>
		</clipPath>
		<path clip-path="url(#SVGID_2_)" fill="#FFFFFF" d="M865.584,173.186l-39.84-39.761c-10.961-10.957-28.801-10.957-39.84,0l-156.64,156.722v-78
			c0-15.519-12.641-28.16-28.16-28.16h-28.161c-15.519,0-28.16,12.641-28.16,28.16v213.918c0,15.52,12.641,28.161,28.16,28.161
			h213.922c15.52,0,28.16-12.641,28.16-28.161v-28.16c0-15.519-12.64-28.16-28.16-28.16h-78l156.719-156.719
			C876.545,201.987,876.545,184.226,865.584,173.186L865.584,173.186z M457.904,512.944H243.986c-15.519,0-28.16,12.641-28.16,28.16
			v28.161c0,15.519,12.641,28.16,28.16,28.16h78l-156.722,156.64c-10.957,10.961-10.957,28.801,0,39.84l39.84,39.84
			c10.961,10.961,28.8,10.961,39.839,0l156.723-156.719v78c0,15.52,12.641,28.16,28.16,28.16h28.16
			c15.52,0,28.161-12.64,28.161-28.16v-214C486.065,525.507,473.506,512.944,457.904,512.944L457.904,512.944z M457.904,512.944"/>
	</g>
</g>
</svg>
