<?xml version="1.0" encoding="iso-8859-1"?>
<!DOCTYPE svg PUBLIC "-//W3C//DTD SVG 1.1//EN" "http://www.w3.org/Graphics/SVG/1.1/DTD/svg11.dtd">
<svg xmlns="http://www.w3.org/2000/svg" xmlns:xlink="http://www.w3.org/1999/xlink" version="1.1" viewBox="0 0 297 297" enable-background="new 0 0 297 297" width="512px" height="512px">
  <g>
    <path d="M34.165,84.869c18.839,0,34.166-15.327,34.166-34.166S53.004,16.537,34.165,16.537S0,31.864,0,50.703   S15.326,84.869,34.165,84.869z" fill="#495060"/>
    <path d="m3.367,133.777v70.955c0,16.297 13.211,29.508 29.508,29.508h38.457v52.407c0,3.992 3.236,7.229 7.229,7.229h34.077c3.992,0 7.229-3.236 7.229-7.229v-75.595c0-13.757-11.152-24.908-24.908-24.908h-29.995v-52.367c0-17.009-13.789-30.798-30.798-30.798-17.01-0.001-30.799,13.788-30.799,30.798z" fill="#495060"/>
    <path d="m262.835,84.869c18.839,0 34.165-15.327 34.165-34.166s-15.326-34.166-34.165-34.166-34.166,15.327-34.166,34.166 15.327,34.166 34.166,34.166z" fill="#495060"/>
    <path d="m232.036,133.777v52.367h-29.994c-13.757,0-24.909,11.152-24.909,24.908v75.595c0,3.992 3.236,7.229 7.229,7.229h34.077c3.992,0 7.229-3.236 7.229-7.229v-52.407h38.457c16.297,0 29.508-13.211 29.508-29.508v-70.955c0-17.009-13.789-30.798-30.798-30.798-17.01-0.001-30.799,13.788-30.799,30.798z" fill="#495060"/>
    <path d="m199.616,151.813c4.848,0 8.777-3.93 8.777-8.777 0-4.848-3.93-8.777-8.777-8.777h-102.232c-4.848,0-8.777,3.93-8.777,8.777 0,4.848 3.93,8.777 8.777,8.777h42.338v136.395c0,4.848 3.93,8.777 8.777,8.777s8.777-3.93 8.777-8.777v-136.395h42.34z" fill="#495060"/>
  </g>
</svg>
