<?xml version="1.0" encoding="UTF-8"?>
<svg width="28px" height="28px" viewBox="0 0 28 28" version="1.1" xmlns="http://www.w3.org/2000/svg" xmlns:xlink="http://www.w3.org/1999/xlink">
    <!-- Generator: Sketch 48.2 (47327) - http://www.bohemiancoding.com/sketch -->
    <title>Group</title>
    <desc>Created with Sketch.</desc>
    <defs></defs>
    <g id="Artboard" stroke="none" stroke-width="1" fill="none" fill-rule="evenodd" transform="translate(-1818.000000, -12.000000)">
        <g id="Group" transform="translate(1818.000000, 12.000000)">
            <path d="M5,9.02304393 L5.20232222,21.9662318 C5.20050835,22.0204761 5.19960122,22.074747 5.19960122,22.1290216 C5.19960122,24.8191887 7.38041254,27 10.0705796,27 L22,27 C24.7614237,27 27,24.7614237 27,22 L27,6 C27,3.23857625 24.7614237,1 22,1 L10,1 C7.23857625,1 5,3.23857625 5,6 L5,9.02304393 Z" id="Rectangle-3" stroke="#FFFFFF" stroke-width="2"></path>
            <path d="M2,11.23873 L9.51888924,11.23873 L9.51888924,8.99698068 C9.51888924,8.44469593 9.96660449,7.99698068 10.5188892,7.99698068 C10.7592705,7.99698068 10.9916082,8.08356952 11.1733579,8.24089151 L17.6826311,13.8752998 C18.1002076,14.2367528 18.1457047,14.8682811 17.7842517,15.2858576 C17.7477118,15.3280711 17.7077009,15.3671503 17.6646384,15.4026856 L11.1553651,20.7741539 C10.7293897,21.1256698 10.0991085,21.0653085 9.74759263,20.6393331 C9.59975106,20.4601752 9.51888924,20.2351388 9.51888924,20.0028573 L9.51888924,17.8378805 L2,17.8378805 C0.8954305,17.8378805 9.55402053e-15,16.94245 8.43769499e-15,15.8378805 L5.32907052e-15,13.23873 C5.68432716e-15,12.1341605 0.8954305,11.23873 2,11.23873 Z" id="Path-2" fill="#FFFFFF"></path>
        </g>
    </g>
</svg>