<?xml version="1.0" ?><!DOCTYPE svg  PUBLIC '-//W3C//DTD SVG 1.1//EN'  'http://www.w3.org/Graphics/SVG/1.1/DTD/svg11.dtd'><svg enable-background="new 0 0 24 24" height="24px" id="Layer_1" version="1.1" viewBox="0 0 24 24" width="24px" xml:space="preserve" xmlns="http://www.w3.org/2000/svg" xmlns:xlink="http://www.w3.org/1999/xlink"><g><path d="M19.195,23.479c-0.105,0-0.207-0.031-0.295-0.096l-6.902-5.039l-6.901,5.002c-0.175,0.127-0.413,0.125-0.588-0.002   c-0.175-0.127-0.248-0.354-0.18-0.562l2.634-8.013L0.067,9.852c-0.177-0.126-0.252-0.354-0.186-0.563   c0.066-0.207,0.259-0.346,0.476-0.346h8.531l2.636-8.113c0.134-0.412,0.817-0.412,0.951,0l2.636,8.113h8.531   c0.217,0,0.408,0.141,0.477,0.348c0.064,0.207-0.01,0.437-0.188,0.563l-6.895,4.912l2.633,8.059   c0.066,0.205-0.006,0.435-0.184,0.562C19.4,23.445,19.299,23.479,19.195,23.479z M12,17.227c0.104,0,0.207,0.031,0.295,0.096   l5.945,4.34l-2.268-6.936c-0.068-0.207,0.006-0.438,0.186-0.563l5.922-4.219h-7.33c-0.217,0-0.41-0.14-0.479-0.346L12,2.604   L9.729,9.601c-0.067,0.206-0.26,0.345-0.477,0.345H1.919l5.924,4.227c0.178,0.127,0.253,0.354,0.185,0.563l-2.266,6.896   l5.944-4.311C11.793,17.258,11.896,17.227,12,17.227z"/></g></svg>