<?xml version="1.0" encoding="UTF-8"?>
<svg width="30px" height="30px" viewBox="0 0 30 30" version="1.1" xmlns="http://www.w3.org/2000/svg" xmlns:xlink="http://www.w3.org/1999/xlink">
    <!-- Generator: Sketch 48.2 (47327) - http://www.bohemiancoding.com/sketch -->
    <title>Group 11</title>
    <desc>Created with Sketch.</desc>
    <defs></defs>
    <g id="02-lesson--started-files" stroke="none" stroke-width="1" fill="none" fill-rule="evenodd" transform="translate(-1143.000000, -436.000000)">
        <g id="tab-content" transform="translate(1126.000000, 0.000000)">
            <g id="attend" transform="translate(0.000000, 46.000000)">
                <g id="Group-16" transform="translate(14.000000, 60.000000)">
                    <g id="Group-11" transform="translate(3.000000, 330.000000)">
                        <rect id="Rectangle-6-Copy-4" fill="#43C1F0" x="0" y="0" width="30" height="30" rx="4"></rect>
                        <g id="img" transform="translate(6.000000, 8.000000)" fill="#FFFFFF" fill-rule="nonzero">
                            <path d="M2.98125126,8.98145336 C3.09307938,8.85612347 3.541177,8.39878835 4.11982464,8.39878835 L4.12246181,8.39878835 C4.73877469,8.39878835 5.18608719,8.83308022 5.26510166,8.91517923 L7.08933948,10.7381144 C7.1637238,10.8079382 7.29628693,10.8853572 7.3644105,10.8853572 C7.43913705,10.8853572 7.51126669,10.815692 7.53198157,10.7938981 L10.5277272,6.38740223 C10.6011251,6.27603314 11.131277,5.52048427 12.000718,5.52048427 C12.8352316,5.52048427 13.3403807,6.14322708 13.4343727,6.26972698 L18,11.9469133 L18,1.66192989 C17.9993155,0.744007417 17.2433534,0 16.3122106,0 L1.68778938,0 C0.755277697,0 0,0.744007417 0,1.66192989 L0,12 L2.98125126,8.98145336 Z M6.12653052,3.29675124 C7.07293265,3.29732633 7.84004742,4.05299418 7.84004742,4.98457999 C7.84004742,5.91741514 7.07293265,6.67308299 6.12655065,6.67308299 C5.18016865,6.67308299 4.41249021,5.91682022 4.41249021,4.98457999 C4.41249021,4.05299418 5.18016865,3.29675124 6.12655065,3.29675124 L6.12653052,3.29675124 Z" id="Shape"></path>
                            <path d="M12.6717728,7.82352022 L12.6676074,7.8175865 C12.6437996,7.78880605 12.3960425,7.5 12.0574642,7.5 C11.7798963,7.5 11.5136197,7.7837227 11.4400113,7.88586212 L11.4346412,7.89338321 L8.37153128,12.1264526 L8.36411939,12.1357122 C8.32505896,12.1844859 7.96495972,12.6123565 7.35493905,12.6123565 C6.82028275,12.6123565 6.41352743,12.2599802 6.33740756,12.1893425 L6.33526363,12.1873583 L4.4666312,10.4329981 L4.46526317,10.4314485 C4.41029678,10.3796701 4.22922624,10.2428543 4.06545011,10.2428543 L4.06524592,10.2428543 C3.97226044,10.2428543 3.7749981,10.3819189 3.69173179,10.4721909 L3.68070584,10.4841528 L3.66884274,10.4954344 L0,13.9855033 C0.247267051,14.5787434 0.868762882,15 1.59731248,15 L16.430477,15 C17.1326052,15 17.7359694,14.6082042 18,14.0481854 L12.6717728,7.82352022 Z" id="Shape"></path>
                        </g>
                    </g>
                </g>
            </g>
        </g>
    </g>
</svg>