<?xml version="1.0" encoding="UTF-8"?>
<svg width="30px" height="30px" viewBox="0 0 30 30" version="1.1" xmlns="http://www.w3.org/2000/svg" xmlns:xlink="http://www.w3.org/1999/xlink">
    <!-- Generator: Sketch 48.2 (47327) - http://www.bohemiancoding.com/sketch -->
    <title>Group 2</title>
    <desc>Created with Sketch.</desc>
    <defs></defs>
    <g id="02-lesson--started-files" stroke="none" stroke-width="1" fill="none" fill-rule="evenodd" transform="translate(-1143.000000, -189.000000)">
        <g id="tab-content" transform="translate(1126.000000, 0.000000)">
            <g id="attend" transform="translate(0.000000, 46.000000)">
                <g id="Group-16" transform="translate(14.000000, 60.000000)">
                    <g id="Group-2" transform="translate(3.000000, 83.000000)">
                        <rect id="Rectangle-6-Copy" fill="#4A8FE3" x="0" y="0" width="30" height="30" rx="4"></rect>
                        <g id="word-(1)" transform="translate(7.000000, 5.000000)" fill="#FFFFFF" fill-rule="nonzero">
                            <path d="M12.0007334,4.00000001 L16,4.00000001 L16,16 L12.0007334,16 L12.0007334,4.00000001 Z M0,17.0906037 L0,2.93550388 L11.20088,0.789338756 L11.1766308,19.2304307 L0,17.0906037 Z M3.08011978,5.99999999 L1.44032269,5.99999999 L2.58045591,12.92 L4.67982645,12.92 L5.57941698,7.64 L6.4398949,12.92 L8.56077738,12.92 L9.7194891,5.99999999 L8.15987289,5.99999999 L7.36001956,11.68 L6.46042902,5.99999999 L4.73947321,5.99999999 L3.75970177,11.68 L3.08011978,5.99999999 Z" id="Shape"></path>
                        </g>
                    </g>
                </g>
            </g>
        </g>
    </g>
</svg>