<?xml version="1.0" encoding="iso-8859-1"?>
<!-- Generator: Adobe Illustrator 18.0.0, SVG Export Plug-In . SVG Version: 6.00 Build 0)  -->
<!DOCTYPE svg PUBLIC "-//W3C//DTD SVG 1.1//EN" "http://www.w3.org/Graphics/SVG/1.1/DTD/svg11.dtd">
<svg xmlns="http://www.w3.org/2000/svg" xmlns:xlink="http://www.w3.org/1999/xlink" version="1.1" id="Capa_1" x="0px" y="0px" viewBox="0 0 337.77 337.77" style="enable-background:new 0 0 337.77 337.77;" xml:space="preserve" width="512px" height="512px">
<g>
	<g>
		<path d="M239.487,322.336c29.452-13.579,54.676-35.697,72.088-63.107l-139.97-4.77L239.487,322.336z" fill="#FFFFFF"/>
	</g>
	<g>
		<path d="M168.886,337.77c12.516-0.001,24.928-1.373,37.022-4.079L110.3,231.33l0.004,96.003    C129.012,334.253,148.707,337.77,168.886,337.77z" fill="#FFFFFF"/>
	</g>
	<g>
		<path d="M10.435,110.303C3.51,129.013-0.001,148.72,0,168.881c0,12.518,1.372,24.928,4.073,37.026l102.365-95.608L10.435,110.303z    " fill="#FFFFFF"/>
	</g>
	<g>
		<path d="M98.283,15.433C68.829,29.009,43.601,51.13,26.188,78.535l139.971,4.771L98.283,15.433z" fill="#FFFFFF"/>
	</g>
	<g>
		<path d="M168.88,0c-12.509,0.001-24.924,1.371-37.03,4.063l95.621,102.376l-0.004-96.005C208.745,3.5,189.054,0,168.88,0z" fill="#FFFFFF"/>
	</g>
	<g>
		<path d="M333.699,131.857l-102.371,95.612l96.004-0.004c6.931-18.728,10.439-38.418,10.438-58.598    C337.769,156.37,336.4,143.959,333.699,131.857z" fill="#FFFFFF"/>
	</g>
	<g>
		<path d="M78.53,311.58l4.774-139.977l-67.871,67.883C29.01,268.94,51.132,294.168,78.53,311.58z" fill="#FFFFFF"/>
	</g>
	<g>
		<path d="M259.232,26.186l-4.766,139.977l67.872-67.88C308.751,68.827,286.639,43.596,259.232,26.186z" fill="#FFFFFF"/>
	</g>
</g>
<g>
</g>
<g>
</g>
<g>
</g>
<g>
</g>
<g>
</g>
<g>
</g>
<g>
</g>
<g>
</g>
<g>
</g>
<g>
</g>
<g>
</g>
<g>
</g>
<g>
</g>
<g>
</g>
<g>
</g>
</svg>
