<?xml version="1.0" encoding="UTF-8"?>
<svg width="30px" height="30px" viewBox="0 0 30 30" version="1.1" xmlns="http://www.w3.org/2000/svg" xmlns:xlink="http://www.w3.org/1999/xlink">
    <!-- Generator: Sketch 48.2 (47327) - http://www.bohemiancoding.com/sketch -->
    <title>Group 10</title>
    <desc>Created with Sketch.</desc>
    <defs></defs>
    <g id="02-lesson--started-files" stroke="none" stroke-width="1" fill="none" fill-rule="evenodd" transform="translate(-1143.000000, -385.000000)">
        <g id="tab-content" transform="translate(1126.000000, 0.000000)">
            <g id="attend" transform="translate(0.000000, 46.000000)">
                <g id="Group-16" transform="translate(14.000000, 60.000000)">
                    <g id="Group-10" transform="translate(3.000000, 279.000000)">
                        <rect id="Rectangle-6-Copy-3" fill="#E06504" x="0" y="0" width="30" height="30" rx="4"></rect>
                        <g id="ppt" transform="translate(6.000000, 5.000000)" fill="#FFFFFF" fill-rule="nonzero">
                            <path d="M0.00723167155,1.94908504 L0.00723167155,16.0581994 L10.1270147,18 L10.1270147,0.00728445748 L0.00724926686,1.94910264 L0.00723167155,1.94908504 Z M7.77307918,7.50434604 C7.50615836,10.5030792 4.25422874,10.2573607 4.25422874,10.2573607 L4.25422874,12.9582405 L2.70109091,12.9582405 L2.70109091,5.07096774 C2.70109091,5.07096774 5.13306158,4.93546628 5.92866862,5.07096774 C7.90407625,5.40735484 7.77307918,7.50434604 7.77307918,7.50434604 Z" id="Shape"></path>
                            <path d="M4.13206452,6.29982405 L4.13206452,9.00364223 C4.13206452,9.00364223 6.06529619,9.00364223 6.00063343,7.65179472 C5.94904399,6.57237537 5.44258065,6.42281525 4.13206452,6.29982405 Z M10.9461114,2.31779472 L10.9461114,5.69762463 C11.4192493,5.22559531 12.0679883,4.93363636 12.7845924,4.93363636 L12.7845924,7.58825806 L15.4054839,7.58825806 C15.4054839,9.0543871 14.2320352,10.2428974 12.7845924,10.2428974 C12.0679883,10.2428974 11.4192669,9.95093842 10.9461114,9.47890909 L10.9461114,11.3795191 L16.0585689,11.3795191 L16.0585689,12.13339 L10.9461114,12.13339 L10.9461114,13.3623695 L16.0585689,13.3623695 L16.0585689,14.1162405 L10.9461114,14.1162405 L10.9461114,15.689349 L17.9999472,15.689349 L17.9999472,2.31779472 L10.9461114,2.31779472 Z M13.1625924,7.16516129 L13.1625924,4.51052199 C14.6101584,4.51052199 15.7834839,5.69903226 15.7834839,7.16516129 L13.1625924,7.16516129 Z" id="Shape"></path>
                        </g>
                    </g>
                </g>
            </g>
        </g>
    </g>
</svg>