<?xml version="1.0" encoding="UTF-8"?>
<svg width="30px" height="30px" viewBox="0 0 30 30" version="1.1" xmlns="http://www.w3.org/2000/svg" xmlns:xlink="http://www.w3.org/1999/xlink">
    <!-- Generator: Sketch 48.2 (47327) - http://www.bohemiancoding.com/sketch -->
    <title>Group 12</title>
    <desc>Created with Sketch.</desc>
    <defs></defs>
    <g id="02-lesson--started-files" stroke="none" stroke-width="1" fill="none" fill-rule="evenodd" transform="translate(-1143.000000, -486.000000)">
        <g id="tab-content" transform="translate(1126.000000, 0.000000)">
            <g id="attend" transform="translate(0.000000, 46.000000)">
                <g id="Group-16" transform="translate(14.000000, 60.000000)">
                    <g id="Group-12" transform="translate(3.000000, 380.000000)">
                        <rect id="Rectangle-6-Copy-5" fill="#0780AB" x="0" y="0" width="30" height="30" rx="4"></rect>
                        <g id="TXT" transform="translate(4.000000, 4.000000)" fill="#FFFFFF" fill-rule="nonzero">
                            <path d="M12.906575,4.442075 L12.906575,5.615225 L18.22865,5.615225 L18.22865,6.34865 L12.906575,6.34865 L12.906575,7.563875 L18.22865,7.563875 L18.22865,8.297025 L12.906575,8.297025 L12.906575,9.47045 L18.22865,9.47045 L18.22865,10.203875 L12.906575,10.203875 L12.906575,11.3982 L18.22865,11.3982 L18.22865,12.13135 L12.906575,12.13135 L12.906575,13.304775 L18.22865,13.304775 L18.22865,14.0382 L12.906575,14.0382 L12.906575,15.23225 L18.22865,15.23225 L18.22865,15.965675 L12.906575,15.965675 L12.906575,17.516125 L19.8,17.516125 L19.8,4.442075 L12.906575,4.442075 Z M2.2,4.0458 L2.2,17.8684 L12.08955,19.8 L12.08955,2.2 L2.2,4.0458 Z M10.21515,9.19545 L8.101225,9.19545 L8.101225,15.31255 L6.51805,15.31255 L6.51805,9.19545 L4.4088,9.19545 L4.4088,7.90405 L10.214875,7.90405 L10.214875,9.19545 L10.21515,9.19545 Z" id="Shape"></path>
                        </g>
                    </g>
                </g>
            </g>
        </g>
    </g>
</svg>