<?xml version="1.0" encoding="UTF-8"?>
<svg width="30px" height="30px" viewBox="0 0 30 30" version="1.1" xmlns="http://www.w3.org/2000/svg" xmlns:xlink="http://www.w3.org/1999/xlink">
    <!-- Generator: Sketch 48.2 (47327) - http://www.bohemiancoding.com/sketch -->
    <title>Group</title>
    <desc>Created with Sketch.</desc>
    <defs></defs>
    <g id="02-lesson--started-files" stroke="none" stroke-width="1" fill="none" fill-rule="evenodd" transform="translate(-1143.000000, -138.000000)">
        <g id="tab-content" transform="translate(1126.000000, 0.000000)">
            <g id="attend" transform="translate(0.000000, 46.000000)">
                <g id="Group-16" transform="translate(14.000000, 60.000000)">
                    <g id="Group" transform="translate(3.000000, 32.000000)">
                        <rect id="Rectangle-6" fill="#E2021D" x="0" y="0" width="30" height="30" rx="4"></rect>
                        <g id="pdf" transform="translate(6.000000, 7.000000)" fill="#FFFFFF" fill-rule="nonzero">
                            <path d="M14.624607,12.6943683 C13.350851,12.5997391 12.124271,12.1265928 11.1335718,11.2749293 C9.1993496,11.700761 7.35947967,12.3158513 5.51960976,13.0728854 C4.05714905,15.6751902 2.68904064,17 1.50963685,17 C1.2737561,17 0.990699181,16.9526854 0.801994587,16.8107415 C0.283056916,16.5741683 0,16.0537073 0,15.5332464 C0,15.1074147 0.0943523054,13.9245488 4.57608672,11.9846488 C5.61396206,10.0920635 6.41595663,8.15216352 7.07642277,6.11763427 C6.51030895,4.98208306 5.283729,2.19051968 6.13289973,0.771080677 C6.41595663,0.250619705 6.98207046,-0.0332681018 7.59536044,0.0140465245 C8.06712195,0.0140465245 8.53888348,0.250619689 8.82194038,0.629136765 C9.43523035,1.48080017 9.38805419,3.27875625 8.58605962,5.92837573 C9.34087805,7.34781474 10.3315772,8.62530984 11.510981,9.71354643 C12.5016802,9.52428789 13.4923794,9.382344 14.4830786,9.38234398 C16.7003577,9.42965861 17.0305908,10.4705805 16.9834146,11.0856708 C16.9834146,12.6943683 15.4266016,12.6943683 14.624607,12.6943683 Z M1.41528455,15.6278756 L1.55681301,15.580561 C2.21727913,15.3439878 2.73621681,14.8708415 3.11362601,14.2557512 C2.40598373,14.5396391 1.83986991,15.0127854 1.41528455,15.6278756 Z M7.68971273,1.43348554 L7.54818428,1.43348554 C7.50100814,1.43348554 7.40665583,1.43348554 7.35947967,1.48080017 C7.17077506,2.28514895 7.31230352,3.13681235 7.64253659,3.89384649 C7.9255935,3.08949771 7.9255935,2.23783431 7.68971273,1.43348554 Z M8.01994581,8.29410741 L7.97276965,8.38873668 L7.9255935,8.34142205 C7.50100814,9.42965862 7.02924663,10.5178952 6.51030894,11.5588171 L6.60466124,11.5115025 L6.60466124,11.6061318 C7.64253659,11.2276147 8.77476422,10.8964123 9.81263956,10.6598391 L9.76546341,10.6125245 L9.90699186,10.6125245 C9.19934958,9.90280495 8.53888346,9.09845619 8.01994581,8.29410741 Z M14.4359024,10.801783 C14.0113171,10.801783 13.6339079,10.801783 13.2093225,10.8964123 C13.681084,11.1329854 14.1528455,11.2276147 14.624607,11.2749293 C14.9548401,11.322244 15.2850732,11.2749293 15.5681301,11.1803001 C15.5681301,11.0383562 15.3794255,10.801783 14.4359024,10.801783 Z" id="Shape"></path>
                        </g>
                    </g>
                </g>
            </g>
        </g>
    </g>
</svg>