<?xml version="1.0" encoding="UTF-8"?>
<svg width="30px" height="30px" viewBox="0 0 30 30" version="1.1" xmlns="http://www.w3.org/2000/svg" xmlns:xlink="http://www.w3.org/1999/xlink">
    <!-- Generator: Sketch 48.2 (47327) - http://www.bohemiancoding.com/sketch -->
    <title>Group 5</title>
    <desc>Created with Sketch.</desc>
    <defs></defs>
    <g id="02-lesson--started-files" stroke="none" stroke-width="1" fill="none" fill-rule="evenodd" transform="translate(-1143.000000, -288.000000)">
        <g id="tab-content" transform="translate(1126.000000, 0.000000)">
            <g id="attend" transform="translate(0.000000, 46.000000)">
                <g id="Group-16" transform="translate(14.000000, 60.000000)">
                    <g id="Group-5" transform="translate(3.000000, 182.000000)">
                        <rect id="Rectangle-6-Copy-2" fill="#399C04" x="0" y="0" width="30" height="30" rx="4"></rect>
                        <g id="excel" transform="translate(7.000000, 6.000000)" fill="#FFFFFF" fill-rule="nonzero">
                            <polygon id="Shape" points="15.9438107 3.56516129 13.0808521 3.56516129 13.0808521 5.03303226 15.9438107 5.03303226"></polygon>
                            <path d="M17.9887811,13.8123871 C17.9887811,10.1891613 17.9796923,6.56593548 17.9887811,2.93341935 C17.9706036,2.5803871 17.9978698,2.19019355 17.7888284,1.87432258 C17.4888994,1.66064516 17.1071716,1.68851613 16.7617988,1.66993548 C14.7168284,1.67922581 12.671858,1.67922581 10.6268876,1.67922581 L10.6268876,0.00696774194 L9.41808284,0.00696774194 C6.27337278,0.582967742 3.13775148,1.13109677 0.00213017751,1.68851613 L0.00213017751,16.3114839 C3.11957396,16.8689032 6.24610651,17.4077419 9.35446154,17.9837419 L10.6268876,17.9837419 L10.6268876,16.1070968 C12.744568,16.1070968 14.8622485,16.1163871 16.979929,16.1070968 C17.316213,16.0885161 17.8342722,16.0792258 17.916071,15.6425806 C18.0433136,15.048 17.9796923,14.4255484 17.9887811,13.8123871 Z M6.01888757,12.2701935 C5.67351479,11.3969032 5.2463432,10.5607742 5.00094675,9.65032258 C4.72828402,10.4957419 4.3283787,11.2947097 4.01027219,12.1308387 C3.56492308,12.1215484 3.11048521,12.1029677 2.66513609,12.0843871 C3.19228402,11.0345806 3.70125444,9.97548387 4.23749112,8.93496774 C3.78305325,7.85729032 3.27408284,6.80748387 2.80146746,5.73909677 C3.25590533,5.71122581 3.70125444,5.68335484 4.15569231,5.65548387 C4.46471006,6.47303226 4.79190533,7.28129032 5.04639053,8.11741935 C5.31905325,7.22554839 5.71895858,6.38941935 6.06433136,5.53470968 C6.52785799,5.49754839 6.99138462,5.46967742 7.45491124,5.45109677 C6.9095858,6.59380645 6.36426036,7.73651613 5.80984615,8.87922581 C6.37334911,10.0498065 6.94594083,11.2110968 7.50944379,12.3816774 C7.00047337,12.3352258 6.51876923,12.3073548 6.01888757,12.2701935 Z M17.3798343,15.4753548 L10.6268876,15.4753548 L10.6268876,14.2211613 L12.2628639,14.2211613 L12.2628639,12.7532903 L10.6268876,12.7532903 L10.6268876,11.9171613 L12.2628639,11.9171613 L12.2628639,10.4492903 L10.6268876,10.4492903 L10.6268876,9.61316129 L12.2628639,9.61316129 L12.2628639,8.16387097 L10.6268876,8.16387097 L10.6268876,7.32774194 L12.2628639,7.32774194 L12.2628639,5.85987097 L10.6268876,5.85987097 L10.6268876,5.02374194 L12.2628639,5.02374194 L12.2628639,3.56516129 L10.6268876,3.56516129 L10.6268876,2.31096774 L17.3707456,2.31096774 L17.3707456,15.4753548 L17.3798343,15.4753548 Z" id="Shape"></path>
                            <path d="M15.9438107,5.86916129 L13.0808521,5.86916129 L13.0808521,7.32774194 L15.9438107,7.32774194 L15.9438107,5.86916129 Z M15.9438107,8.16387097 L13.0808521,8.16387097 L13.0808521,9.63174194 L15.9438107,9.63174194 L15.9438107,8.16387097 Z M15.9438107,10.467871 L13.0808521,10.467871 L13.0808521,11.9357419 L15.9438107,11.9357419 L15.9438107,10.467871 Z M15.9438107,12.7625806 L13.0808521,12.7625806 L13.0808521,14.2304516 L15.9438107,14.2304516 L15.9438107,12.7625806 Z" id="Shape"></path>
                        </g>
                    </g>
                </g>
            </g>
        </g>
    </g>
</svg>