<?xml version="1.0" encoding="UTF-8"?>
<svg width="14px" height="19px" viewBox="0 0 14 19" version="1.1" xmlns="http://www.w3.org/2000/svg" xmlns:xlink="http://www.w3.org/1999/xlink">
    <!-- Generator: Sketch 48.2 (47327) - http://www.bohemiancoding.com/sketch -->
    <title>Group 2</title>
    <desc>Created with Sketch.</desc>
    <defs></defs>
    <g id="lesson--before-start-screen-tips-detail" stroke="none" stroke-width="1" fill="none" fill-rule="evenodd" transform="translate(-209.000000, -326.000000)">
        <g id="Group-2" transform="translate(209.000000, 326.000000)" fill="#FFFFFF">
            <path d="M9.57831839,18.4677937 L1.47123669,18.4677937 C0.659218814,18.4677937 0,17.8256868 0,17.0347178 L0,1.4330759 C0,0.642106878 0.659218814,0 1.47123669,0 L12.2020966,9.47220161e-16 C13.0141145,9.47220161e-16 13.6733333,0.642106878 13.6733333,1.4330759 L13.6733333,13.8108524 L9.57831839,18.4677937 Z M9.07189864,12.5133077 L12.293776,12.5133077 L12.293776,1.43974137 C12.2850446,1.42863226 12.252302,1.4041922 12.2020966,1.4041922 L1.47123669,1.4041922 C1.42103128,1.4041922 1.38828863,1.42641043 1.37955725,1.43974137 L1.37955725,1.43974137 L1.37955725,17.0258305 C1.38828863,17.0391614 1.42321413,17.0636015 1.47123669,17.0636015 L7.82331201,17.0636015 L7.82331201,13.7841906 C7.82331201,13.0843163 8.38430286,12.5133077 9.07189864,12.5133077 Z M9.20286927,13.9174999 L9.20286927,16.7880954 L11.7262366,13.9174999 L9.20286927,13.9174999 Z M2.92282779,11.6001384 C2.56702425,11.6001384 2.27670604,11.304636 2.27670604,10.9424788 C2.27670604,10.5803216 2.56702425,10.2848192 2.92282779,10.2848192 L7.39329179,10.2848192 C7.74909533,10.2848192 8.03941355,10.5803216 8.03941355,10.9424788 C8.03941355,11.304636 7.74909533,11.6001384 7.39329179,11.6001384 L2.92282779,11.6001384 Z M2.27670604,7.52753669 C2.27670604,7.16537952 2.56702425,6.86987705 2.92282779,6.86987705 L10.7548712,6.86987705 C11.1106747,6.86987705 11.4009929,7.16537952 11.4009929,7.52753669 C11.4009929,7.88969385 11.1106747,8.18519632 10.7548712,8.18519632 L2.92282779,8.18519632 C2.56702425,8.18519632 2.27670604,7.88969385 2.27670604,7.52753669 Z M7.39329179,4.77247603 L2.92282779,4.77247603 C2.56702425,4.77247603 2.27670604,4.47697356 2.27670604,4.11481639 C2.27670604,3.75265923 2.56702425,3.45715675 2.92282779,3.45715675 L7.39329179,3.45715675 C7.74909533,3.45715675 8.03941355,3.75265923 8.03941355,4.11481639 C8.03941355,4.47697356 7.74909533,4.77247603 7.39329179,4.77247603 Z" id="Shape" transform="translate(6.836667, 9.233897) scale(1, -1) translate(-6.836667, -9.233897) "></path>
        </g>
    </g>
</svg>