<?xml version="1.0" encoding="UTF-8"?>
<svg width="29px" height="29px" viewBox="0 0 29 29" version="1.1" xmlns="http://www.w3.org/2000/svg" xmlns:xlink="http://www.w3.org/1999/xlink">
    <!-- Generator: Sketch 48.2 (47327) - http://www.bohemiancoding.com/sketch -->
    <title>退出</title>
    <desc>Created with Sketch.</desc>
    <defs></defs>
    <g id="01-lesson--started-default" stroke="none" stroke-width="1" fill="none" fill-rule="evenodd" transform="translate(-1351.000000, -10.000000)">
        <g id="退出" transform="translate(1351.000000, 10.000000)">
            <circle id="Oval-7" fill="#D0021B" cx="14.5" cy="14.5" r="14.5"></circle>
            <circle id="Oval-4" fill="#FFFFFF" cx="14.5" cy="14.5333333" r="11.0333333"></circle>
            <path d="M14.5,3 C8.15880615,3 3,8.15880615 3,14.5 C3,20.8411938 8.15880615,26 14.5,26 C20.8411938,26 26,20.8411938 26,14.5 C26,8.15880615 20.8411938,3 14.5,3 Z M14,7.19999432 C14,6.54024011 14.4502022,6 15,6 C15.5497978,6 16,6.54024011 16,7.19999432 L16,13.8000057 C16,14.4597599 15.5497978,15 15,15 C14.4502022,15 14,14.4597599 14,13.8000057 L14,7.19999432 Z M15,21 C11.1339893,21 8,17.9734407 8,14.2400079 C8,11.4282557 9.77837411,9.01869196 12.3076943,8 L12.3076943,10.3486366 C11.0088783,11.1880643 10.1538344,12.6170371 10.1538344,14.2400079 C10.1538344,16.8252938 12.3229256,18.9200138 15,18.9200138 C17.6770744,18.9200138 19.8461656,16.8252938 19.8461656,14.2400079 C19.8461656,12.6170371 18.9911472,11.1880643 17.6923057,10.3486366 L17.6923057,8 C20.2216259,9.01869196 22,11.4282557 22,14.2400079 C22,17.9734407 18.8659853,21 15,21 Z" id="Shape" fill="#D0021B" fill-rule="nonzero"></path>
        </g>
    </g>
</svg>