<?xml version="1.0" encoding="utf-8"?>
<!-- Generator: Adobe Illustrator 21.0.0, SVG Export Plug-In . SVG Version: 6.00 Build 0)  -->
<svg version="1.1" id="图形" xmlns="http://www.w3.org/2000/svg" xmlns:xlink="http://www.w3.org/1999/xlink" x="0px" y="0px"
	 viewBox="15.167 -16.333 1000.636 1000.678" enable-background="new 15.167 -16.333 1000.636 1000.678" xml:space="preserve">
<g>
	<path d="M515.485,646.831c-100.261,0-181.821-81.56-181.821-181.821V253.316c0-100.261,81.56-181.821,181.821-181.821
		s181.821,81.56,181.821,181.821V465.01C697.306,565.271,615.746,646.831,515.485,646.831z M515.485,123.444
		c-71.691,0.086-129.786,58.181-129.872,129.872V465.01c0,71.586,58.287,129.872,129.872,129.872s129.872-58.287,129.872-129.872
		V253.316C645.357,181.731,587.07,123.444,515.485,123.444z"/>
	<path d="M827.668,461.248c0-13.263-10.751-24.014-24.014-24.014c-13.263,0-24.014,10.751-24.014,24.014
		c0,145.67-118.486,256.155-264.155,256.155S251.329,606.917,251.329,461.248c-0.006-13.263-10.762-24.009-24.025-24.004
		c-13.254,0.006-23.998,10.749-24.004,24.004c0.202,163.023,125.646,290.523,288.17,303.271v83.969h-97.042
		c-13.263,0-24.014,10.752-24.014,24.014s10.751,24.014,24.014,24.014h240.113c13.263,0,24.014-10.752,24.014-24.014
		s-10.751-24.014-24.014-24.014h-95.042v-83.969C702.023,751.771,827.466,624.271,827.668,461.248z"/>
</g>
</svg>
