<?xml version="1.0" encoding="UTF-8"?>
<svg width="25px" height="25px" viewBox="0 0 25 25" version="1.1" xmlns="http://www.w3.org/2000/svg" xmlns:xlink="http://www.w3.org/1999/xlink">
    <!-- Generator: Sketch 50.2 (55047) - http://www.bohemiancoding.com/sketch -->
    <title>enter classroom</title>
    <desc>Created with Sketch.</desc>
    <defs></defs>
    <g id="Page-1" stroke="none" stroke-width="1" fill="none" fill-rule="evenodd">
        <g id="03-multiple-school-home-page" transform="translate(-1202.000000, -10.000000)" fill="#FAFBFC">
            <g id="enter-classroom" transform="translate(1202.000000, 10.000000)">
                <path d="M12.4878659,0.0243902439 C8.50728659,0.0243902439 4.6829878,1.97560976 2.3414939,5.25365854 C2.10734756,5.64390244 2.18536585,6.11219512 2.49762195,6.34631098 C2.88777439,6.58045732 3.35603659,6.50243902 3.59030488,6.19018293 C5.69753049,3.30243902 8.97554878,1.58533537 12.4878659,1.58533537 C18.4975305,1.58533537 23.4146341,6.50243902 23.4146341,12.5122561 C23.4146341,18.5219207 18.4975305,23.4390244 12.4878659,23.4390244 C8.81954268,23.4390244 5.46338415,21.6439329 3.43417683,18.6000305 C3.20003049,18.2097561 2.73176829,18.1317683 2.3414939,18.3659146 C1.95121951,18.6000305 1.87320122,19.0683232 2.10734756,19.4585671 C4.44884146,22.9707622 8.35128049,24.9999695 12.4878659,24.9999695 C19.3560671,24.9999695 24.9755793,19.3804573 24.9755793,12.5122561 C24.9755793,5.64390244 19.4341768,0.0243902439 12.4878659,0.0243902439 Z" id="Fill-1"></path>
                <path d="M11.0049085,16.0244207 C10.6926524,16.3365549 10.6926524,16.8048171 11.0049085,17.1171037 C11.1609146,17.2732317 11.3951829,17.3512195 11.551189,17.3512195 C11.7073171,17.3512195 11.9414634,17.2732317 12.0975915,17.1171037 L16.1561585,13.0585366 C16.2341463,12.9805183 16.3121646,12.902378 16.3121646,12.8243902 C16.3903049,12.6682622 16.3903049,12.4341159 16.3121646,12.1999695 C16.2341463,12.1219817 16.2341463,12.0438415 16.1561585,11.9658537 L12.0975915,7.90728659 C11.7853354,7.59512195 11.3170427,7.59512195 11.0049085,7.90728659 C10.6926524,8.21954268 10.6926524,8.68780488 11.0049085,8.99993902 L13.7365549,11.7317073 L0.78054878,11.7317073 C0.312134146,11.7317073 0,12.0438415 0,12.5122561 C0,12.9805183 0.312134146,13.2926524 0.78054878,13.2926524 L13.7365549,13.2926524 L11.0049085,16.0244207 Z" id="Fill-3"></path>
            </g>
        </g>
    </g>
</svg>