<?xml version="1.0" encoding="UTF-8"?>
<svg width="48px" height="27px" viewBox="0 0 48 27" version="1.1" xmlns="http://www.w3.org/2000/svg" xmlns:xlink="http://www.w3.org/1999/xlink">
    <!-- Generator: Sketch 51 (57462) - http://www.bohemiancoding.com/sketch -->
    <title>noun_Medal_1225631</title>
    <desc>Created with Sketch.</desc>
    <defs>
        <polygon id="path-1" points="0 0.023016966 24.5606914 0.023016966 24.5606914 2.86405133 0 2.86405133"></polygon>
    </defs>
    <g id="Page-1" stroke="none" stroke-width="1" fill="none" fill-rule="evenodd">
        <g id="master-course-create" transform="translate(-596.000000, -148.000000)">
            <rect fill="#F4F5F7" x="0" y="0" width="1400" height="1585"></rect>
            <g id="options" transform="translate(0.000000, 73.000000)">
                <g id="type" transform="translate(158.000000, 0.000000)">
                    <g id="master" transform="translate(419.000000, 60.000000)">
                        <g id="noun_Medal_1225631" transform="translate(19.000000, 11.000000)">
                            <path d="M17.0714286,29.7391098 C17.0714286,29.7391098 16.9285714,29.7391098 16.7142857,29.6670114 C16.5,29.5949131 16.0714286,29.5228147 15.6428571,29.378618 C15.4285714,29.3065197 15.1428571,29.2344214 14.8571429,29.0902247 C14.5714286,29.0181263 14.2857143,28.8739296 14,28.7297329 C13.7142857,28.5855362 13.3571429,28.4413395 13,28.2971428 C13,28.2971428 12.9285714,28.2971428 12.9285714,28.2250445 C11.7857143,29.7391098 10.2857143,30.820585 8.5,30.9647817 C6.64285714,31.1810767 4.85714286,30.3879949 3.42857143,28.946028 C4.57142857,27.287766 6.14285714,26.1341924 8.07142857,25.9899957 C8.71428571,25.9178974 9.35714286,25.9899957 10,26.2062908 C10,26.2062908 9.92857143,26.1341924 9.92857143,26.1341924 C9.71428571,25.9899957 9.57142857,25.8457991 9.42857143,25.629504 C9.28571429,25.4853073 9.07142857,25.2690123 8.92857143,25.1248156 C8.64285714,24.8364222 8.35714286,24.4759305 8,24.1154387 C6.57142857,25.0527172 5,25.413209 3.42857143,24.9806189 C1.85714286,24.5480288 0.642857143,23.3223569 0,21.7361933 C1.42857143,20.7268164 3.07142857,20.3663247 4.64285714,20.7989148 C5.35714286,21.0152098 6,21.3757016 6.5,21.88039 C6.35714286,21.7361933 6.28571429,21.5198983 6.21428571,21.3036032 C6,20.7989148 5.71428571,20.3663247 5.57142857,19.8616363 L5.42857143,19.4290462 C4.14285714,19.6453412 2.85714286,19.5011445 1.85714286,18.7080627 C0.785714286,17.9149809 0.214285714,16.5451123 0.142857143,15.1031454 C1.57142857,14.7426537 2.92857143,14.9589487 4.07142857,15.8241289 C4.35714286,16.0404239 4.57142857,16.2567189 4.71428571,16.473014 C4.64285714,16.0404239 4.57142857,15.5357355 4.5,15.1031454 C4.5,14.814752 4.5,14.5263586 4.5,14.2379652 C3.35714286,14.0937685 2.42857143,13.5890801 1.78571429,12.7239 C1.14285714,11.7866214 1.07142857,10.6330479 1.42857143,9.5515727 C2.57142857,9.69576939 3.57142857,10.2004578 4.21428571,11.1377363 C4.35714286,11.4261297 4.5,11.7145231 4.64285714,12.0029165 C4.71428571,11.4261297 4.78571429,10.9214413 4.92857143,10.4167529 C4.28571429,9.26317931 4,8.03750742 4.42857143,6.81183552 C4.85714286,5.51406528 5.85714286,4.57678677 7.14285714,4.07209835 C7.85714286,5.22567189 8.14285714,6.59554048 7.71428571,7.89331072 C7.35714286,9.04688427 6.42857143,9.91206443 5.28571429,10.4888512 C5.21428571,11.065638 5.07142857,11.6424248 5.07142857,12.2192115 C5.07142857,12.7239 5,13.2285884 5.07142857,13.7332768 C5.14285714,14.2379652 5.14285714,14.7426537 5.21428571,15.2473421 C5.35714286,16.2567189 5.57142857,17.2660958 5.92857143,18.2754727 L6.21428571,18.9964561 L6.5,19.7174396 C6.71428571,20.222128 6.92857143,20.6547181 7.21428571,21.0873082 C7.35714286,21.3036032 7.5,21.5198983 7.64285714,21.7361933 C7.78571429,21.9524883 7.92857143,22.1687834 8.07142857,22.3850784 C8.35714286,22.8176685 8.64285714,23.1781602 9,23.538652 C9.35714286,23.8991437 9.64285714,24.2596354 10,24.5480288 C10.1428571,24.6922255 10.3571429,24.8364222 10.5,24.9806189 C10.6428571,25.1248156 10.8571429,25.2690123 11,25.413209 C11.3571429,25.7016024 11.7142857,25.9899957 12,26.1341924 C12.3571429,26.3504875 12.7142857,26.5667825 13,26.7830776 C13.3571429,26.9272743 13.6428571,27.1435693 14,27.287766 C14.2857143,27.4319627 14.6428571,27.5761594 14.9285714,27.6482577 C15.2142857,27.7924544 15.5,27.8645528 15.7142857,27.9366511 C16,28.0087495 16.2142857,28.0808478 16.4285714,28.1529462 C16.8571429,28.2250445 17.2142857,28.2971428 17.4285714,28.3692412 C17.6428571,28.4413395 17.7857143,28.4413395 17.7857143,28.4413395 L17.0714286,29.7391098 Z M44.2142857,24.9806189 C42.6428571,25.413209 41.0714286,25.0527172 39.6428571,24.1154387 C39.3571429,24.4759305 39.0714286,24.8364222 38.7142857,25.1248156 C38.5714286,25.2690123 38.3571429,25.4853073 38.2142857,25.629504 C38.0714286,25.7737007 37.8571429,25.9899957 37.7142857,26.1341924 C37.7142857,26.1341924 37.6428571,26.2062908 37.6428571,26.2062908 C38.2857143,26.0620941 38.9285714,25.9899957 39.5714286,25.9899957 C41.4285714,26.2062908 43.0714286,27.287766 44.2142857,28.946028 C42.7857143,30.3879949 41,31.1810767 39.1428571,30.9647817 C37.3571429,30.820585 35.7857143,29.7391098 34.7142857,28.2250445 C34.7142857,28.2250445 34.6428571,28.2250445 34.6428571,28.2971428 C34.2857143,28.4413395 34,28.5855362 33.6428571,28.7297329 C33.3571429,28.8739296 33.0714286,29.0181263 32.7857143,29.0902247 C32.5,29.162323 32.2857143,29.3065197 32,29.378618 C31.5714286,29.5228147 31.1428571,29.5949131 30.9285714,29.6670114 C30.6428571,29.7391098 30.5,29.7391098 30.5,29.7391098 L30.2142857,28.3692412 C30.2142857,28.3692412 30.3571429,28.3692412 30.5714286,28.2971428 C30.7857143,28.2250445 31.1428571,28.1529462 31.5714286,28.0808478 C31.7857143,28.0087495 32,27.9366511 32.2857143,27.8645528 C32.5714286,27.7924544 32.7857143,27.7203561 33.0714286,27.5761594 C33.3571429,27.4319627 33.6428571,27.3598643 34,27.2156676 C34.2857143,27.071471 34.6428571,26.8551759 35,26.7109792 C35.3571429,26.4946842 35.6428571,26.2783891 36,26.0620941 C36.3571429,25.8457991 36.6428571,25.5574057 37,25.3411106 C37.2142857,25.1969139 37.3571429,25.0527172 37.5,24.9085205 C37.6428571,24.7643239 37.8571429,24.6201272 38,24.4759305 C38.3571429,24.1875371 38.6428571,23.8270453 39,23.4665536 C39.2857143,23.1060619 39.6428571,22.7455701 39.9285714,22.3129801 C40.0714286,22.096685 40.2142857,21.88039 40.3571429,21.6640949 C40.5,21.4477999 40.6428571,21.2315049 40.7857143,21.0152098 C41,20.5826197 41.2857143,20.1500297 41.5,19.6453412 L41.7857143,18.9243578 L42.0714286,18.2033743 C42.4285714,17.1939974 42.6428571,16.1846206 42.7857143,15.1752437 C42.8571429,14.6705553 42.8571429,14.1658669 42.9285714,13.6611785 C42.9285714,13.15649 42.9285714,12.6518016 42.9285714,12.1471132 C42.8571429,11.5703264 42.7857143,10.9935396 42.7142857,10.4167529 C41.5714286,9.91206443 40.7142857,8.97478592 40.2857143,7.82121238 C39.8571429,6.52344214 40.1428571,5.22567189 40.8571429,4 C42.1428571,4.50468843 43.1428571,5.44196693 43.5714286,6.73973718 C43.9285714,7.96540907 43.7142857,9.19108096 43.0714286,10.3446545 C43.2142857,10.8493429 43.2857143,11.4261297 43.3571429,11.9308181 C43.4285714,11.6424248 43.5714286,11.3540314 43.7857143,11.065638 C44.4285714,10.1283595 45.4285714,9.62367104 46.5714286,9.47947435 C46.9285714,10.6330479 46.7857143,11.7866214 46.2142857,12.6518016 C45.6428571,13.5169818 44.6428571,14.0937685 43.5,14.1658669 C43.5,14.4542603 43.5,14.7426537 43.5,15.031047 C43.4285714,15.4636371 43.3571429,15.9683256 43.2857143,16.4009156 C43.5,16.1846206 43.7142857,15.9683256 43.9285714,15.7520305 C45,14.9589487 46.4285714,14.7426537 47.8571429,15.031047 C47.7857143,16.473014 47.2142857,17.7707842 46.1428571,18.6359644 C45.1428571,19.4290462 43.8571429,19.5732429 42.5714286,19.3569479 L42.4285714,19.7895379 C42.2142857,20.2942264 42,20.7989148 41.7857143,21.2315049 C41.7142857,21.4477999 41.5714286,21.5919966 41.5,21.8082916 C42.0714286,21.3036032 42.6428571,20.9431115 43.3571429,20.7268164 C44.9285714,20.2942264 46.5714286,20.6547181 48,21.6640949 C47,23.3223569 45.7857143,24.4759305 44.2142857,24.9806189 Z" id="Shape" fill="#2E3D49" fill-rule="nonzero"></path>
                            <g id="王冠" transform="translate(11.000000, 1.000000)">
                                <polygon id="Fill-1" fill="#2E3D49" points="1.30590617 8.58417917 4.11865679 21.1530699 22.0256593 21.1530699 24.8384099 8.58417917 18.1829556 12.6171762 13.359121 4.05074243 8.08574321 12.6171762"></polygon>
                                <polygon id="Fill-4" fill="#2E3D49" points="1.30590617 8.58417917 4.11865679 21.1530699 22.0256593 21.1530699"></polygon>
                                <polygon id="Fill-5" fill="#2E3D49" points="24.8384099 8.58417917 22.0256593 21.1530699 4.11865679 21.1530699"></polygon>
                                <polygon id="Fill-6" fill="#2E3D49" points="4.11865679 21.1530699 22.0256593 21.1530699 13.0720938 15.7214006"></polygon>
                                <g id="Group-12" transform="translate(0.000000, 6.397347)">
                                    <mask id="mask-2" fill="white">
                                        <use xlink:href="#path-1"></use>
                                    </mask>
                                    <g id="Clip-9"></g>
                                </g>
                            </g>
                        </g>
                    </g>
                </g>
            </g>
        </g>
    </g>
</svg>