<?xml version="1.0" encoding="UTF-8"?>
<svg width="19px" height="21px" viewBox="0 0 19 21" version="1.1" xmlns="http://www.w3.org/2000/svg" xmlns:xlink="http://www.w3.org/1999/xlink">
    <!-- Generator: Sketch 47.1 (45422) - http://www.bohemiancoding.com/sketch -->
    <title>消息 (1)</title>
    <desc>Created with Sketch.</desc>
    <defs>
        <polygon id="path-1" points="0 1.17534121e-14 5.42553124e-19 21 19 21 19 8.8150591e-15 5.42553124e-19 0"></polygon>
    </defs>
    <g id="Page-1" stroke="none" stroke-width="1" fill="none" fill-rule="evenodd">
        <g id="login-as-student-followed-courses" transform="translate(-1208.000000, -15.000000)">
            <g id="icon-header" transform="translate(1163.000000, 10.000000)">
                <g id="消息-(1)" transform="translate(45.000000, 5.000000)">
                    <mask id="mask-2" fill="white">
                        <use xlink:href="#path-1"></use>
                    </mask>
                    <g id="Clip-2"></g>
                    <path d="M18.9015114,16.1370959 L18.8976544,16.1275071 L16.6336886,13.1619857 L16.6336886,9.57261872 C16.6336886,7.52018575 15.9397039,5.82029258 14.5715932,4.51992729 C13.4627657,3.46649493 12.1637694,2.93616031 11.4520891,2.70594976 L11.4520891,1.93612585 C11.4520891,0.868659108 10.5763794,0 9.49963334,0 C8.42306968,0 7.54717755,0.868555724 7.54717755,1.93612585 L7.54717755,2.70545868 C6.83536697,2.93533324 5.53647489,3.46548694 4.42746499,4.51902268 C3.05833788,5.81938797 2.36414469,7.51956544 2.36414469,9.57261872 L2.36414469,13.1617789 L0.176720787,15.9988972 L0.101195321,16.1278172 L0.0964000529,16.1377162 C0.0670811607,16.2093873 -0.178467819,16.8545299 0.250630456,17.4901871 C0.702949294,18.1587463 1.65457538,18.4838376 3.15992458,18.4838376 L5.89666725,18.4838376 C6.08600214,19.2155128 6.51450101,19.8381436 7.13916281,20.287425 C7.78733185,20.7534548 8.60325707,21 9.49900787,21 C10.3950714,21 11.2112312,20.7534548 11.8595826,20.2872183 C12.4842444,19.8379368 12.9127433,19.215306 13.1020782,18.4838376 L15.8391336,18.4838376 C17.3443525,18.4838376 18.2962131,18.1588497 18.7484017,17.4900837 C19.1805491,16.8487921 18.9314558,16.2081725 18.9015114,16.1370959 Z M10.9879645,19.392403 C10.5759624,19.6434713 10.0608621,19.7762423 9.49900787,19.7762423 C8.93728395,19.7762423 8.42267876,19.6434713 8.01046816,19.3922996 C7.64357806,19.1689641 7.36545254,18.8563822 7.19972913,18.4838376 L11.7992248,18.4838376 C11.6335014,18.8562789 11.3550631,19.1688607 10.9879645,19.392403 Z M8.7812032,1.93612585 C8.7812032,1.54329209 9.10350253,1.22365428 9.49963334,1.22365428 C9.89623325,1.22414536 10.2176204,1.54277517 10.2181417,1.93612585 L10.2181417,2.52280481 L8.7812032,2.51724792 L8.7812032,1.93612585 Z M8.38376933,3.73940313 L10.6150543,3.73940313 C10.8664149,3.79148287 12.0683853,4.07467779 13.198583,4.92870804 C13.8456314,5.41745641 14.3589335,6.00889103 14.7237908,6.68644462 C15.1723308,7.5194879 15.3999496,8.49062651 15.3999496,9.57261872 L15.3999496,13.5766335 L17.7646942,16.6434196 C17.7699846,16.7047005 17.7534097,16.7659815 17.7179664,16.8164846 C17.4206077,17.2280826 16.2045903,17.2602092 15.8389251,17.2602092 L3.15992458,17.2602092 C1.71300468,17.2602092 1.35588754,16.9205665 1.28096148,16.8164846 C1.24502303,16.7664984 1.22792686,16.7055276 1.23261789,16.6442467 L3.58076144,13.5985509 L3.59777943,13.5766335 L3.59777943,9.57261872 C3.59788368,4.89469467 7.85480439,3.85095458 8.38376933,3.73940313 Z" id="Fill-1" fill="#FFFFFF" mask="url(#mask-2)"></path>
                </g>
            </g>
        </g>
    </g>
</svg>