<?xml version="1.0" encoding="utf-8"?>
<!-- Generator: Adobe Illustrator 21.0.0, SVG Export Plug-In . SVG Version: 6.00 Build 0)  -->
<svg version="1.1" id="图层_1" xmlns="http://www.w3.org/2000/svg" xmlns:xlink="http://www.w3.org/1999/xlink" x="0px" y="0px"
	 viewBox="0 0 48 27" style="enable-background:new 0 0 48 27;" xml:space="preserve">
<style type="text/css">
	.st0{fill:#FFFFFF;}
</style>
<title>noun_Medal_1225631</title>
<desc>Created with Sketch.</desc>
<g id="options" transform="translate(0.000000, 73.000000)">
	<g id="type" transform="translate(158.000000, 0.000000)">
		<g id="master" transform="translate(419.000000, 60.000000)">
			<g id="noun_Medal_1225631" transform="translate(19.000000, 11.000000)">
				<path id="Shape" class="st0" d="M-578.9-118.3c0,0-0.1,0-0.4-0.1s-0.6-0.1-1.1-0.3c-0.2-0.1-0.5-0.1-0.8-0.3
					c-0.3-0.1-0.6-0.2-0.9-0.4s-0.6-0.3-1-0.4c0,0-0.1,0-0.1-0.1c-1.1,1.5-2.6,2.6-4.4,2.7c-1.9,0.2-3.6-0.6-5.1-2
					c1.1-1.7,2.7-2.8,4.6-3c0.6-0.1,1.3,0,1.9,0.2l-0.1-0.1c-0.2-0.1-0.4-0.3-0.5-0.5c-0.1-0.1-0.4-0.4-0.5-0.5
					c-0.3-0.3-0.6-0.6-0.9-1c-1.4,0.9-3,1.3-4.6,0.9c-1.6-0.4-2.8-1.7-3.4-3.2c1.4-1,3.1-1.4,4.6-0.9c0.7,0.2,1.4,0.6,1.9,1.1
					c-0.1-0.1-0.2-0.4-0.3-0.6c-0.2-0.5-0.5-0.9-0.6-1.4l-0.1-0.4c-1.3,0.2-2.6,0.1-3.6-0.7c-1.1-0.8-1.6-2.2-1.7-3.6
					c1.4-0.4,2.8-0.1,3.9,0.7c0.3,0.2,0.5,0.4,0.6,0.6c-0.1-0.4-0.1-0.9-0.2-1.4c0-0.3,0-0.6,0-0.9c-1.1-0.1-2.1-0.6-2.7-1.5
					c-0.6-0.9-0.7-2.1-0.4-3.2c1.1,0.1,2.1,0.6,2.8,1.6c0.1,0.3,0.3,0.6,0.4,0.9c0.1-0.6,0.1-1.1,0.3-1.6c-0.6-1.2-0.9-2.4-0.5-3.6
					c0.4-1.3,1.4-2.2,2.7-2.7c0.7,1.2,1,2.5,0.6,3.8c-0.4,1.2-1.3,2-2.4,2.6c-0.1,0.6-0.2,1.2-0.2,1.7c0,0.5-0.1,1,0,1.5
					c0.1,0.5,0.1,1,0.1,1.5c0.1,1,0.4,2,0.7,3l0.3,0.7l0.3,0.7c0.2,0.5,0.4,0.9,0.7,1.4c0.1,0.2,0.3,0.4,0.4,0.6
					c0.1,0.2,0.3,0.4,0.4,0.6c0.3,0.4,0.6,0.8,0.9,1.2c0.4,0.4,0.6,0.7,1,1c0.1,0.1,0.4,0.3,0.5,0.4s0.4,0.3,0.5,0.4
					c0.4,0.3,0.7,0.6,1,0.7c0.4,0.2,0.7,0.4,1,0.6c0.4,0.1,0.6,0.4,1,0.5c0.3,0.1,0.6,0.3,0.9,0.4c0.3,0.1,0.6,0.2,0.8,0.3
					c0.3,0.1,0.5,0.1,0.7,0.2c0.4,0.1,0.8,0.1,1,0.2s0.4,0.1,0.4,0.1L-578.9-118.3z M-551.8-123c-1.6,0.4-3.1,0.1-4.6-0.9
					c-0.3,0.4-0.6,0.7-0.9,1c-0.1,0.1-0.4,0.4-0.5,0.5c-0.1,0.1-0.4,0.4-0.5,0.5l-0.1,0.1c0.6-0.1,1.3-0.2,1.9-0.2
					c1.9,0.2,3.5,1.3,4.6,3c-1.4,1.4-3.2,2.2-5.1,2c-1.8-0.1-3.4-1.2-4.4-2.7c0,0-0.1,0-0.1,0.1c-0.4,0.1-0.6,0.3-1,0.4
					c-0.3,0.1-0.6,0.3-0.9,0.4s-0.5,0.2-0.8,0.3c-0.4,0.1-0.9,0.2-1.1,0.3c-0.3,0.1-0.4,0.1-0.4,0.1l-0.3-1.4c0,0,0.1,0,0.4-0.1
					s0.6-0.1,1-0.2c0.2-0.1,0.4-0.1,0.7-0.2s0.5-0.1,0.8-0.3c0.3-0.1,0.6-0.2,0.9-0.4c0.3-0.1,0.6-0.4,1-0.5c0.4-0.2,0.6-0.4,1-0.6
					s0.6-0.5,1-0.7c0.2-0.1,0.4-0.3,0.5-0.4s0.4-0.3,0.5-0.4c0.4-0.3,0.6-0.6,1-1c0.3-0.4,0.6-0.7,0.9-1.2c0.1-0.2,0.3-0.4,0.4-0.6
					c0.1-0.2,0.3-0.4,0.4-0.6c0.2-0.4,0.5-0.9,0.7-1.4l0.3-0.7l0.3-0.7c0.4-1,0.6-2,0.7-3c0.1-0.5,0.1-1,0.1-1.5c0-0.5,0-1,0-1.5
					c-0.1-0.6-0.1-1.2-0.2-1.7c-1.1-0.5-2-1.4-2.4-2.6c-0.4-1.3-0.1-2.6,0.6-3.8c1.3,0.5,2.3,1.4,2.7,2.7c0.4,1.2,0.1,2.5-0.5,3.6
					c0.1,0.5,0.2,1.1,0.3,1.6c0.1-0.3,0.2-0.6,0.4-0.9c0.6-0.9,1.6-1.4,2.8-1.6c0.4,1.2,0.2,2.3-0.4,3.2c-0.6,0.9-1.6,1.4-2.7,1.5
					c0,0.3,0,0.6,0,0.9c-0.1,0.4-0.1,0.9-0.2,1.4c0.2-0.2,0.4-0.4,0.6-0.6c1.1-0.8,2.5-1,3.9-0.7c-0.1,1.4-0.6,2.7-1.7,3.6
					c-1,0.8-2.3,0.9-3.6,0.7l-0.1,0.4c-0.2,0.5-0.4,1-0.6,1.4c-0.1,0.2-0.2,0.4-0.3,0.6c0.6-0.5,1.1-0.9,1.9-1.1
					c1.6-0.4,3.2-0.1,4.6,0.9C-549-124.7-550.2-123.5-551.8-123z"/>
				<g id="王冠" transform="translate(11.000000, 1.000000)">
					<polygon id="Fill-1" class="st0" points="-594.7,-139.4 -591.9,-126.8 -574,-126.8 -571.2,-139.4 -577.8,-135.4 -582.6,-143.9 
						-587.9,-135.4 					"/>
					<polygon id="Fill-4" class="st0" points="-594.7,-139.4 -591.9,-126.8 -574,-126.8 					"/>
					<polygon id="Fill-5" class="st0" points="-571.2,-139.4 -574,-126.8 -591.9,-126.8 					"/>
					<polygon id="Fill-6" class="st0" points="-591.9,-126.8 -574,-126.8 -582.9,-132.3 					"/>
					<g id="Group-12" transform="translate(0.000000, 6.397347)">
						<g id="Clip-9">
						</g>
					</g>
				</g>
			</g>
		</g>
	</g>
</g>
</svg>
