<?xml version="1.0" encoding="UTF-8"?>
<svg width="18px" height="21px" viewBox="0 0 18 21" version="1.1" xmlns="http://www.w3.org/2000/svg" xmlns:xlink="http://www.w3.org/1999/xlink">
    <!-- Generator: Sketch 53.1 (72631) - https://sketchapp.com -->
    <title>tubiao2jianpangaodu</title>
    <desc>Created with Sketch.</desc>
    <g id="Symbols" stroke="none" stroke-width="1" fill="none" fill-rule="evenodd">
        <g id="page" transform="translate(-176.000000, -10.000000)" fill="#2E3D49">
            <g id="tubiao2jianpangaodu" transform="translate(176.000000, 10.000000)">
                <path d="M11.4199348,7.0466338 C11.6396707,7.28052582 11.9948542,7.28052582 12.2145901,7.0466338 C12.4344494,6.8133662 12.4344494,6.43467606 12.2145901,6.20061972 L9.40992453,3.21477465 C9.3997976,3.20333803 9.39822298,3.18960094 9.38689194,3.1788216 C9.16777358,2.94492958 8.81197256,2.94492958 8.59223671,3.1788216 L5.77068268,6.18215023 C5.55082333,6.41604225 5.55082333,6.79476526 5.77068268,7.02865728 C5.9898319,7.26202347 6.34560206,7.26202347 6.56536878,7.02865728 L8.43026758,5.0430892 L8.43026758,15.9697934 L6.56259005,13.9859014 C6.34393482,13.7520094 5.98933791,13.7531596 5.77009605,13.9859014 C5.55082333,14.2181174 5.55082333,14.5961831 5.77009605,14.8271502 L8.58427101,17.8172347 C8.80354374,18.0511268 9.15823328,18.0511268 9.3773825,17.8172347 C9.38859005,17.8064554 9.39028816,17.7927183 9.39933448,17.7807887 L12.197825,14.8080235 C12.4169743,14.5752817 12.4164803,14.1977089 12.197825,13.9656244 C11.9785832,13.7328826 11.6238628,13.7328826 11.405331,13.9656244 L9.55503602,15.9315399 L9.55503602,5.06155869 L11.4199348,7.0466338 Z" id="Fill-1"></path>
                <path d="M16.2997256,0.0277370892 L1.68616467,0.0277370892 C0.754857633,0.0277370892 0,0.831751174 0,1.82256338 L0,19.1723427 C0,20.1636479 0.754857633,20.967169 1.68616467,20.967169 L16.2997256,20.967169 C17.2310326,20.967169 17.9858902,20.1636479 17.9858902,19.1723427 L17.9858902,1.82256338 C17.9858902,0.831751174 17.2310326,0.0277370892 16.2997256,0.0277370892 Z M16.8617393,18.5739906 C16.8617393,19.2344883 16.3580789,19.7705962 15.7375883,19.7705962 L2.24817839,19.7705962 C1.62768782,19.7705962 1.12415094,19.2344883 1.12415094,18.5739906 L1.12415094,2.42078404 C1.12415094,1.76028638 1.62768782,1.22434272 2.24817839,1.22434272 L15.7375883,1.22434272 C16.3580789,1.22434272 16.8617393,1.76028638 16.8617393,2.42078404 L16.8617393,18.5739906 Z" id="Fill-2"></path>
            </g>
        </g>
    </g>
</svg>