<?xml version="1.0" encoding="UTF-8"?>
<svg width="18px" height="21px" viewBox="0 0 18 21" version="1.1" xmlns="http://www.w3.org/2000/svg" xmlns:xlink="http://www.w3.org/1999/xlink">
    <!-- Generator: Sketch 53.1 (72631) - https://sketchapp.com -->
    <title>tubiao2jianpangaodu</title>
    <desc>Created with Sketch.</desc>
    <g id="Symbols" stroke="none" stroke-width="1" fill="none" fill-rule="evenodd">
        <g id="page" transform="translate(-176.000000, -10.000000)" fill="#2E3D49">
            <g id="tubiao2jianpangaodu" transform="translate(176.000000, 10.000000)">
                <path d="M11.5315381,7.54449729 C11.7613768,7.76810834 12.1328906,7.76810834 12.3627292,7.54449729 C12.592697,7.32148321 12.592697,6.95943879 12.3627292,6.73567064 L9.42911356,3.88107151 C9.41852103,3.87013759 9.41687402,3.85700433 9.405022,3.84669881 C9.17582924,3.62308776 8.80366955,3.62308776 8.5738309,3.84669881 L5.62255025,6.718013 C5.39258242,6.94162405 5.39258242,7.30369989 5.62255025,7.52731094 C5.8517753,7.75041928 6.2239027,7.75041928 6.45377364,7.52731094 L8.40441492,5.62902059 L8.40441492,15.3831224 L6.45086716,13.4864345 C6.22215881,13.2628234 5.85125859,13.2639231 5.62193665,13.4864345 C5.39258242,13.7084431 5.39258242,14.0698906 5.62193665,14.2907053 L8.56549896,17.1493575 C8.7948532,17.3729686 9.1658503,17.3729686 9.39507535,17.1493575 C9.40679819,17.139052 9.40857438,17.1259187 9.41803661,17.1145135 L12.3451934,14.2724193 C12.5744185,14.0499079 12.5739018,13.6889317 12.3451934,13.4670488 C12.1158715,13.2445374 11.7448421,13.2445374 11.5162629,13.4670488 L9.58089685,15.3465504 L9.58089685,5.64667822 L11.5315381,7.54449729 Z" id="Fill-1" transform="translate(8.992563, 10.498028) rotate(-90.000000) translate(-8.992563, -10.498028) "></path>
                <path d="M16.2997256,0.0277370892 L1.68616467,0.0277370892 C0.754857633,0.0277370892 0,0.831751174 0,1.82256338 L0,19.1723427 C0,20.1636479 0.754857633,20.967169 1.68616467,20.967169 L16.2997256,20.967169 C17.2310326,20.967169 17.9858902,20.1636479 17.9858902,19.1723427 L17.9858902,1.82256338 C17.9858902,0.831751174 17.2310326,0.0277370892 16.2997256,0.0277370892 Z M16.8617393,18.5739906 C16.8617393,19.2344883 16.3580789,19.7705962 15.7375883,19.7705962 L2.24817839,19.7705962 C1.62768782,19.7705962 1.12415094,19.2344883 1.12415094,18.5739906 L1.12415094,2.42078404 C1.12415094,1.76028638 1.62768782,1.22434272 2.24817839,1.22434272 L15.7375883,1.22434272 C16.3580789,1.22434272 16.8617393,1.76028638 16.8617393,2.42078404 L16.8617393,18.5739906 Z" id="Fill-2"></path>
            </g>
        </g>
    </g>
</svg>