<?xml version="1.0" encoding="utf-8"?>
<!-- Generator: Adobe Illustrator 21.0.0, SVG Export Plug-In . SVG Version: 6.00 Build 0)  -->
<svg version="1.1" id="图形" xmlns="http://www.w3.org/2000/svg" xmlns:xlink="http://www.w3.org/1999/xlink" x="0px" y="0px"
	 viewBox="15.167 -16.333 1000.636 1000.678" enable-background="new 15.167 -16.333 1000.636 1000.678" xml:space="preserve">
<g>
	<g>
		<defs>
			<rect id="SVGID_1_" x="128.605" y="210.526" width="773.76" height="546.96"/>
		</defs>
		<clipPath id="SVGID_2_">
			<use xlink:href="#SVGID_1_"  overflow="visible"/>
		</clipPath>
		<path clip-path="url(#SVGID_2_)" d="M853.45,235.449h-21.41c-12.707,0-24.875,5.152-33.938,14.304l-65.476,66.278V285.07
			c0-41.09-32.43-74.406-72.496-74.406H200.981c-39.98,0-72.496,33.359-72.496,74.406v397.004c0,41.136,32.43,74.453,72.496,74.453
			H660.13c40.07,0,72.496-33.317,72.496-74.453v-30.25l65.476,66.277c9.063,9.152,21.235,14.305,33.942,14.305h21.406
			c26.656,0,48.332-22.211,48.332-49.617V285.07C901.782,257.66,880.106,235.449,853.45,235.449L853.45,235.449z M201.602,710.597
			c-12.437,0-27.719-15.594-27.719-28.387V284.98c0-12.836,15.282-28.383,27.719-28.383h444.356
			c12.441,0,27.765,15.547,27.765,28.383v397.23c0,12.793-15.324,28.387-27.765,28.387H201.602z M855.981,668.929h-24.918
			l-91.996-98.082v-0.621l-20.258-21.633V418.601l112.254-120.383h24.918V668.929z M855.981,668.929"/>
	</g>
</g>
</svg>
