<?xml version="1.0" encoding="UTF-8"?>
<svg width="52px" height="52px" viewBox="0 0 52 52" version="1.1" xmlns="http://www.w3.org/2000/svg" xmlns:xlink="http://www.w3.org/1999/xlink">
    <!-- Generator: Sketch 48.2 (47327) - http://www.bohemiancoding.com/sketch -->
    <title>Group</title>
    <desc>Created with Sketch.</desc>
    <defs></defs>
    <g id="lesson--before-start-screen-tips-detail" stroke="none" stroke-width="1" fill="none" fill-rule="evenodd" transform="translate(-127.000000, -156.000000)">
        <g id="Group" transform="translate(127.000000, 156.000000)">
            <circle id="Oval-Copy" fill="#8A30E2" cx="26" cy="26" r="26"></circle>
            <g id="Group-8" transform="translate(13.351351, 16.162162)" fill="#FFFFFF" fill-rule="nonzero">
                <path d="M23.0627027,17.6561032 L14.0118919,17.6561032 L14.0118919,20.4074365 L11.2432432,20.4074365 L11.2432432,17.6561032 L2.2345946,17.6561032 C1.0262744,17.680422 0.0261139032,16.7518132 0,15.581372 L0,2.07519822 C0.0261138912,0.904756969 1.02627439,-0.0238518542 2.2345946,0.000466951728 L23.0627027,0.000466951728 C24.2710229,-0.0238518542 25.2711834,0.904756969 25.2972973,2.07519822 L25.2972973,15.581372 C25.2711834,16.7518132 24.2710229,17.680422 23.0627027,17.6561032 Z M7.72972974,20.4224116 L17.5675676,20.4224116 C17.955611,20.422478 18.270146,20.7272121 18.270146,21.1030977 C18.270146,21.4789832 17.955611,21.7837173 17.5675676,21.7837838 L7.72972974,21.7837838 C7.34168627,21.7837173 7.02715126,21.4789832 7.02715126,21.1030977 C7.02715126,20.7272121 7.34168627,20.422478 7.72972974,20.4224116 Z" id="Shape"></path>
            </g>
        </g>
    </g>
</svg>