<?xml version="1.0" encoding="utf-8"?>
<!-- Generator: Adobe Illustrator 21.0.0, SVG Export Plug-In . SVG Version: 6.00 Build 0)  -->
<svg version="1.1" id="图形" xmlns="http://www.w3.org/2000/svg" xmlns:xlink="http://www.w3.org/1999/xlink" x="0px" y="0px"
	 viewBox="15.167 -16.333 1000.636 1000.678" enable-background="new 15.167 -16.333 1000.636 1000.678" xml:space="preserve">
<g>
	<path fill="none" d="M201.602,256.597c-12.437,0-27.719,15.547-27.719,28.383v397.23c0,12.793,15.282,28.387,27.719,28.387h444.356
		c5.007,0,10.479-2.528,15.233-6.38l-447.556-447.62H201.602z"/>
	<polygon fill="none" points="718.809,418.601 718.809,548.593 739.067,570.226 739.067,570.847 831.063,668.929 855.981,668.929 
		855.981,298.218 831.063,298.218 	"/>
	<path d="M858.45,235.449h-21.41c-12.707,0-24.875,5.152-33.938,14.304l-65.476,66.278V285.07c0-41.09-32.43-74.406-72.496-74.406
		H284.661l34.343,34.345l11.588,11.588h320.365c12.441,0,27.765,15.547,27.765,28.383v309.776l58.903,57.068l65.476,66.277
		c9.063,9.152,21.235,14.305,33.942,14.305h21.406c26.656,0,48.332-22.211,48.332-49.617V285.07
		C906.782,257.66,885.106,235.449,858.45,235.449z M860.981,668.929h-24.918l-91.996-98.082v-0.621l-20.258-21.633V418.601
		l112.254-120.383h24.918V668.929z"/>
	<path d="M645.958,710.597H201.602c-12.437,0-27.719-15.594-27.719-28.387V284.98c0-12.836,15.282-28.383,27.719-28.383h12.033
		l-40.297-40.303c-25.114,10.667-43.155,35.406-44.733,64.607v405.355c2.11,39.188,33.678,70.271,72.376,70.271H660.13
		c15.054,0,29.027-4.704,40.609-12.756l-39.548-39.554C656.437,708.069,650.965,710.597,645.958,710.597z"/>
	<path d="M751.376,794.414c8.498,8.498,22.429,8.498,31.019,0c8.498-8.499,8.498-22.521,0-30.932l-5.994-5.997h-61.949
		L751.376,794.414z"/>
	<path d="M661.191,704.216c7.059-5.72,12.532-14.362,12.532-22.007v-27.454l-60.096-60.126L275.593,256.597h-61.958L661.191,704.216
		z"/>
	<path d="M169.195,150.195c-8.498-8.498-22.432-8.498-31.02,0c-8.498,8.504-8.498,22.521,0,30.932l29.395,29.399h61.953
		L169.195,150.195z"/>
	<path d="M229.661,210.664l-0.138-0.138h-61.953l5.767,5.768c8.524-3.621,17.857-5.63,27.643-5.63H229.661z"/>
	<path d="M700.739,743.77l13.714,13.715h61.949l-48.618-48.642C722.423,723.138,712.911,735.308,700.739,743.77z"/>
	<path d="M275.593,256.597l-11.588-11.588l-34.343-34.345h-28.681c-9.786,0-19.119,2.01-27.643,5.63l40.297,40.303H275.593z"/>
	<path d="M673.723,682.21c0,7.645-5.473,16.287-12.532,22.007l39.548,39.554c12.172-8.463,21.684-20.633,27.045-34.927
		l-54.061-54.088V682.21z"/>
</g>
</svg>
