<?xml version="1.0" encoding="utf-8"?>
<!-- Generator: Adobe Illustrator 21.0.0, SVG Export Plug-In . SVG Version: 6.00 Build 0)  -->
<svg version="1.1" id="图形" xmlns="http://www.w3.org/2000/svg" xmlns:xlink="http://www.w3.org/1999/xlink" x="0px" y="0px"
	 viewBox="15.167 -16.333 1000.636 1000.678" enable-background="new 15.167 -16.333 1000.636 1000.678" xml:space="preserve">
<g>
	<g>
		<defs>
			<rect id="SVGID_1_" x="208.045" y="73.646" width="614.88" height="820.72"/>
		</defs>
		<clipPath id="SVGID_2_">
			<use xlink:href="#SVGID_1_"  overflow="visible"/>
		</clipPath>
		<path clip-path="url(#SVGID_2_)" d="M658.484,577.482l-326.86-326.859l-88.637-88.641c-7.945-7.945-20.972-7.945-29,0
			c-7.945,7.95-7.945,21.055,0,28.918l116.817,116.821v155.566c0,101.332,82.984,184.32,184.32,184.32
			c43.418,0,83.067-15.566,114.524-41.043l58.328,58.329c-46.531,40.058-106.66,64.632-172.77,64.632h-0.082
			c-146.801,0-266.238-119.437-266.238-266.156v-0.082c0-11.305-9.176-20.48-20.481-20.48c-11.304,0-20.48,9.175-20.48,20.48
			c0,162.035,127.223,295.484,286.719,306.133v82.984H392.245c-11.304,0-20.48,9.176-20.48,20.481c0,11.222,9.176,20.48,20.48,20.48
			h245.758c11.309,0,20.481-9.258,20.481-20.48c0-11.305-9.172-20.481-20.481-20.481h-98.957v-83.23
			c67.828-5.324,129.352-32.93,177.684-75.446l70.535,70.532c7.945,7.945,20.969,7.945,29,0c7.945-7.946,7.945-21.055,0-28.918
			L658.484,577.482z M515.124,606.646c-79.051,0-143.359-64.308-143.359-143.359V348.682l228.558,228.554
			C576.484,595.26,547.32,606.646,515.124,606.646L515.124,606.646z M801.847,442.807c-11.309,0-20.481,9.175-20.481,20.48
			c0,35.797-7.211,69.957-20.07,101.09l30.719,30.801c19.168-40.059,30.308-84.625,30.308-131.809v-0.082
			C822.323,451.982,813.152,442.807,801.847,442.807L801.847,442.807z M515.124,115.127c79.055,0,143.36,64.305,143.36,143.359
			v203.16l37.355,37.356c2.379-11.633,3.606-23.43,3.606-35.715V258.486c0-101.418-82.903-184.32-184.321-184.32
			c-65.945,0-123.699,35.391-156.219,87.898l29.981,29.985C412.972,146.584,460.155,115.127,515.124,115.127L515.124,115.127z
			 M515.124,115.127"/>
	</g>
</g>
</svg>
