<?xml version="1.0" encoding="UTF-8"?>
<svg width="118px" height="20px" viewBox="0 0 118 20" version="1.1" xmlns="http://www.w3.org/2000/svg" xmlns:xlink="http://www.w3.org/1999/xlink">
    <!-- Generator: Sketch 48.2 (47327) - http://www.bohemiancoding.com/sketch -->
    <title>Logo</title>
    <desc>Created with Sketch.</desc>
    <defs>
        <polygon id="path-1" points="0.1275009 14.013384 13.4031576 14.013384 13.4031576 0.160370815 0.1275009 0.160370815 0.1275009 14.013384"></polygon>
        <polygon id="path-3" points="0.107880575 14.013384 13.3835372 14.013384 13.3835372 0.160370815 0.107880575 0.160370815"></polygon>
        <polygon id="path-5" points="0.0316879684 14.013384 13.3072822 14.013384 13.3072822 0.160370815 0.0316879684 0.160370815 0.0316879684 14.013384"></polygon>
    </defs>
    <g id="01-lesson--started-default" stroke="none" stroke-width="1" fill="none" fill-rule="evenodd" transform="translate(-23.000000, -14.000000)">
        <g id="Logo" transform="translate(23.000000, 14.000000)">
            <path d="M9.26603099,9.47062842 C9.76076202,9.10773874 10.0083373,8.5629983 10.0083373,7.8364071 C10.0083373,7.11022183 9.76076202,6.56121926 9.26603099,6.18980533 C8.77088035,5.81839139 8.25894493,5.63268443 7.73022475,5.63268443 L4.53062841,5.63268443 L4.53062841,10.0153689 L7.75582152,10.0153689 C8.26775693,10.0153689 8.77088035,9.83392401 9.26603099,9.47062842 M13.8478529,4.91461749 C14.2913904,5.78977425 14.513369,6.76356882 14.513369,7.8364071 C14.513369,8.9096513 14.2913904,9.87918374 13.8478529,10.7458163 C13.4038958,11.6124488 12.8323745,12.3018986 12.1328693,12.8133538 C10.7162349,13.8699554 9.2488266,14.3980533 7.73022475,14.3980533 L4.53062841,14.3980533 L4.53062841,17.1960383 C4.53062841,17.5759764 4.51783003,17.8607271 4.49223326,18.0502903 C4.46663649,18.2402594 4.38544017,18.4588456 4.24906394,18.7064549 C4.009881,19.1521516 3.34436496,19.375 2.25251582,19.375 C1.05785998,19.375 0.35835479,19.0697505 0.153580624,18.4588456 C0.0511935414,18.1783571 0,17.7493029 0,17.1712773 L0,3.42896175 C0,3.04942948 0.0127983853,2.76467879 0.038395156,2.5747097 C0.0639919267,2.38514652 0.144768621,2.16615437 0.281564478,1.91854508 C0.520327798,1.47284836 1.18584384,1.25 2.27811259,1.25 L7.75582152,1.25 C9.25721899,1.25 10.7162349,1.77850376 12.1328693,2.83469945 C12.8323745,3.34656062 13.4038958,4.03986664 13.8478529,4.91461749" id="Fill-1" fill="#FFFFFF"></path>
            <g id="Group-5" transform="translate(14.513369, 5.625000)">
                <mask id="mask-2" fill="white">
                    <use xlink:href="#path-1"></use>
                </mask>
                <g id="Clip-4"></g>
                <path d="M8.0472043,6.21951074 C8.69011843,6.21951074 9.01178356,5.95160782 9.01178356,5.41497764 C9.01178356,5.02960958 8.86343476,4.7196665 8.56756942,4.48473624 C8.27128796,4.25021814 7.84808817,4.13275301 7.29838619,4.13275301 C6.74826808,4.13275301 6.20251928,4.35511244 5.66113981,4.79900698 C5.11934421,5.24331369 4.84886254,5.71667756 4.84886254,6.21951074 L8.0472043,6.21951074 Z M13.4031576,5.47783179 C13.4031576,6.50863983 13.1449516,7.27154494 12.6289558,7.7657228 C12.1125438,8.26031282 11.5414114,8.50740176 10.9155584,8.50740176 L4.89962987,8.50740176 C4.89962987,8.97685012 5.17885018,9.3708735 5.73729081,9.68905975 C6.29573143,10.0076582 6.85417206,10.1667513 7.41261268,10.1667513 C8.39404503,10.1667513 9.16408555,10.0661846 9.72252617,9.86505137 L10.0017465,9.76448473 C10.4078851,9.58024994 10.7461953,9.48792647 11.0170931,9.48792647 C11.5584725,9.48792647 12.023701,9.86505137 12.4131946,10.6193011 C12.633117,11.071851 12.7431823,11.4576312 12.7431823,11.7758175 C12.7431823,13.2678307 10.9409421,14.0134252 7.33646169,14.0134252 C6.08392347,14.0134252 4.97141155,13.7997211 3.99850977,13.3723129 C3.02519187,12.9449046 2.26805125,12.3792173 1.72667178,11.6752508 C0.660557859,10.3176012 0.1275009,8.8008585 0.1275009,7.12461048 C0.1275009,5.01271109 0.817021104,3.3243044 2.19626958,2.0585661 C3.57530998,0.793239964 5.29702987,0.160370815 7.36184535,0.160370815 C9.71378753,0.160370815 11.4398767,0.98180241 12.540113,2.62425344 C13.1151986,3.49596836 13.4031576,4.44702375 13.4031576,5.47783179 Z" id="Fill-3" fill="#FFFFFF" mask="url(#mask-2)"></path>
            </g>
            <g id="Group-8" transform="translate(29.026738, 5.625000)">
                <mask id="mask-4" fill="white">
                    <use xlink:href="#path-3"></use>
                </mask>
                <g id="Clip-7"></g>
                <path d="M8.02758397,6.21951074 C8.6704981,6.21951074 8.99216323,5.95160782 8.99216323,5.41497764 C8.99216323,5.02960958 8.84381444,4.7196665 8.5479491,4.48473624 C8.25166764,4.25021814 7.82846785,4.13275301 7.27876586,4.13275301 C6.72864775,4.13275301 6.18289896,4.35511244 5.64151949,4.79900698 C5.09972389,5.24331369 4.82924222,5.71667756 4.82924222,6.21951074 L8.02758397,6.21951074 Z M13.3835372,5.47783179 C13.3835372,6.50863983 13.1253313,7.27154494 12.6093355,7.7657228 C12.0929235,8.26031282 11.5217911,8.50740176 10.8959381,8.50740176 L4.88000955,8.50740176 C4.88000955,8.97685012 5.15922986,9.3708735 5.71767048,9.68905975 C6.27611111,10.0076582 6.83455173,10.1667513 7.39299235,10.1667513 C8.3744247,10.1667513 9.14446522,10.0661846 9.70290585,9.86505137 L9.98212616,9.76448473 C10.3882648,9.58024994 10.7265749,9.48792647 10.9974727,9.48792647 C11.5388522,9.48792647 12.0040807,9.86505137 12.3935743,10.6193011 C12.6134967,11.071851 12.7235619,11.4576312 12.7235619,11.7758175 C12.7235619,13.2678307 10.9213218,14.0134252 7.31684136,14.0134252 C6.06430315,14.0134252 4.95179122,13.7997211 3.97888945,13.3723129 C3.00557155,12.9449046 2.24843093,12.3792173 1.70705145,11.6752508 C0.640937535,10.3176012 0.107880575,8.8008585 0.107880575,7.12461048 C0.107880575,5.01271109 0.79740078,3.3243044 2.17664925,2.0585661 C3.55568966,0.793239964 5.27740954,0.160370815 7.34222503,0.160370815 C9.69416721,0.160370815 11.4202564,0.98180241 12.5204926,2.62425344 C13.0955783,3.49596836 13.3835372,4.44702375 13.3835372,5.47783179 Z" id="Fill-6" fill="#FFFFFF" mask="url(#mask-4)" transform="translate(6.745709, 7.086898) scale(-1, 1) translate(-6.745709, -7.086898) "></path>
            </g>
            <path d="M53.1623168,6.52138158 C53.4801665,6.62006579 53.7438746,6.78892094 53.9534413,7.02713816 C54.1625963,7.26575981 54.2673797,7.64816113 54.2673797,8.17434211 C54.2673797,8.70092752 54.1080431,9.2764506 53.7901934,9.90131579 C53.471932,10.5265854 53.0116264,10.8388158 52.4088648,10.8388158 C52.107484,10.8388158 51.8186607,10.7732959 51.542395,10.6414474 C51.2661292,10.5100032 50.9019608,10.4440789 50.4498896,10.4440789 C49.9978184,10.4440789 49.5747736,10.6005986 49.1815787,10.9128289 C48.7879721,11.2254638 48.5913747,11.6036184 48.5913747,12.0476974 L48.5913747,17.2286184 C48.5913747,17.6071775 48.5788171,17.8908946 48.5537021,18.0797697 C48.528587,18.2690493 48.4489187,18.4868421 48.3151089,18.7335526 C48.0639583,19.1614538 47.4109666,19.375 46.3561338,19.375 C45.5524516,19.375 44.9748051,19.235467 44.6231942,18.9555921 C44.3551629,18.7254638 44.2044725,18.3719802 44.171123,17.8947368 L44.171123,17.1792763 L44.171123,8.51973684 C44.171123,8.14158218 44.1836805,7.85786508 44.2087956,7.66858553 C44.2339107,7.47971042 44.3049328,7.27000647 44.4222737,7.03947368 C44.6565437,6.59539474 45.3095354,6.37335526 46.3812488,6.37335526 C47.3858515,6.37335526 48.0137282,6.56263481 48.2648788,6.94078947 C48.4489187,7.20408218 48.5411445,7.47546376 48.5411445,7.75493421 C48.6247242,7.64007226 48.7459764,7.50013481 48.905313,7.33552632 C49.0642379,7.17132226 49.4032912,6.94928279 49.9224732,6.66940789 C50.4412434,6.38993745 50.8976377,6.25 51.2912443,6.25 C51.6844392,6.25 52.0152582,6.27082884 52.2832894,6.31167763 C52.550909,6.35293087 52.8440553,6.42269737 53.1623168,6.52138158" id="Fill-9" fill="#FFFFFF"></path>
            <path d="M59.2623983,1.25 L73.2761754,1.25 C73.8137365,1.25 74.2087469,1.3138624 74.4607932,1.44158719 C74.7128396,1.56931199 74.880595,1.76969335 74.9648859,2.04189373 C75.0487636,2.31451289 75.0909091,2.67214231 75.0909091,3.11478202 C75.0909091,3.55784049 75.0487636,3.91107283 74.9648859,4.17489782 C74.880595,4.43914158 74.7380442,4.6219346 74.5364071,4.72411444 C74.2339515,4.8773842 73.8054727,4.95401907 73.2509707,4.95401907 L68.4368854,4.95401907 L68.4368854,17.8031335 C68.4368854,18.1951021 68.4242831,18.484472 68.3990785,18.6716621 C68.3738738,18.859271 68.2982599,19.0764032 68.1722368,19.3230586 C68.0462136,19.5701328 67.8232972,19.7445504 67.5043139,19.8467302 C67.1849175,19.9489101 66.7647025,20 66.2440822,20 C65.7230487,20 65.3071722,19.9489101 64.9964527,19.8467302 C64.6853201,19.7445504 64.4671554,19.5701328 64.3411322,19.3230586 C64.215109,19.0764032 64.1394951,18.8548739 64.1142905,18.6588896 C64.0890859,18.4633241 64.0764836,18.1695571 64.0764836,17.7775886 L64.0764836,4.95401907 L59.2371936,4.95401907 C58.6992193,4.95401907 58.3046221,4.89015668 58.0525758,4.76243188 C57.8005294,4.63470708 57.6323608,4.43474449 57.5484831,4.16212534 C57.4641922,3.88992496 57.4224599,3.53229553 57.4224599,3.08923706 C57.4224599,2.64659736 57.4641922,2.29336501 57.5484831,2.02912125 C57.6323608,1.76529627 57.7753248,1.58208447 57.9769619,1.47990463 C58.2794175,1.32663488 58.7078963,1.25 59.2623983,1.25" id="Fill-11" fill="#FFFFFF"></path>
            <path d="M76.3529412,8.37160414 C76.3529412,7.98741597 76.3655615,7.69917211 76.3908021,7.50687257 C76.4160428,7.31498394 76.48742,7.0933053 76.6053476,6.84265847 C76.840789,6.40834093 77.4970457,6.19097671 78.5741176,6.19097671 C79.3818182,6.19097671 79.9536635,6.33314688 80.2904813,6.61707633 C80.576404,6.8512873 80.7278478,7.21041079 80.7448128,7.6948577 C80.7613641,7.86209255 80.7700535,8.10452145 80.7700535,8.42173351 L80.7700535,17.1943726 C80.7700535,17.5789716 80.7574332,17.8672155 80.7321925,18.0591041 C80.7069519,18.2514037 80.6268852,18.4726714 80.4924064,18.7233182 C80.2735163,19.1580467 79.6255352,19.375 78.548877,19.375 C77.4887701,19.375 76.840789,19.1494179 76.6053476,18.6982536 C76.48742,18.4476067 76.4160428,18.2306534 76.3908021,18.0465718 C76.3655615,17.8629011 76.3529412,17.5703428 76.3529412,17.1693079 L76.3529412,8.37160414 Z M80.5050267,3.72210543 C80.3788235,3.96453434 80.1555887,4.1356727 79.8361497,4.23593144 C79.516297,4.33619017 79.0915508,4.38631953 78.5614973,4.38631953 C78.0314439,4.38631953 77.6062839,4.33619017 77.2868449,4.23593144 C76.9669922,4.1356727 76.7441711,3.96021992 76.6179679,3.70957309 C76.4917647,3.45892626 76.4160428,3.23765853 76.3908021,3.04535899 C76.3655615,2.85347035 76.3529412,2.5652265 76.3529412,2.18062743 C76.3529412,1.79643925 76.3655615,1.5081954 76.3908021,1.31589586 C76.4160428,1.12400722 76.48742,0.910957415 76.6053476,0.676746442 C76.840789,0.225582147 77.4970457,0 78.5741176,0 C79.6342246,0 80.2735163,0.225582147 80.4924064,0.676746442 C80.6268852,0.927393273 80.7069519,1.1490719 80.7321925,1.34096054 C80.7574332,1.53326008 80.7700535,1.82150393 80.7700535,2.20569211 C80.7700535,2.59029118 80.7574332,2.87853503 80.7321925,3.07042367 C80.7069519,3.26272321 80.6312299,3.48008743 80.5050267,3.72210543 Z" id="Fill-13" fill="#FFFFFF"></path>
            <path d="M89.8940053,6.25 C91.6192735,6.25 92.9044902,6.97088068 93.7504872,8.41264205 C93.9364069,8.1640625 94.160384,7.90305398 94.4228344,7.62961648 C94.6848689,7.35617898 95.1035002,7.05788352 95.6787282,6.73473011 C96.2535404,6.4115767 96.8458215,6.25 97.4547397,6.25 C98.8077526,6.25 99.9411557,6.75958807 100.854533,7.7787642 C101.76791,8.79794034 102.224599,10.4844099 102.224599,12.837358 L102.224599,17.1875 C102.224599,17.568927 102.211913,17.8547935 102.186542,18.0450994 C102.16117,18.2358129 102.080688,18.4552557 101.945511,18.7038352 C101.725486,19.1512784 101.074143,19.375 99.9918988,19.375 C98.926292,19.375 98.2749492,19.1431283 98.0382863,18.6789773 C97.9197469,18.4303977 97.8479993,18.210955 97.8226277,18.0202415 C97.7972562,17.8299355 97.7845704,17.544069 97.7845704,17.162642 L97.7845704,12.8125 C97.7845704,11.3707386 97.2600855,10.649858 96.2115317,10.649858 C95.6192506,10.649858 95.2176723,10.8405714 95.006381,11.2215909 C94.7946738,11.6030179 94.6892361,12.1413352 94.6892361,12.837358 L94.6892361,17.1875 C94.6892361,17.5852273 94.6765504,17.8753726 94.6511788,18.0575284 C94.6258072,18.2400917 94.5453252,18.4552557 94.4101486,18.7038352 C94.1730698,19.1512784 93.5134084,19.375 92.4311645,19.375 C91.3655576,19.375 90.7142148,19.1431283 90.4775519,18.6789773 C90.3590125,18.4303977 90.287265,18.210955 90.2618934,18.0202415 C90.2365218,17.8299355 90.223836,17.544069 90.223836,17.162642 L90.223836,12.8125 C90.223836,11.3707386 89.6993511,10.649858 88.6507973,10.649858 C87.6359336,10.649858 87.1285018,11.3707386 87.1285018,12.8125 L87.1285018,17.212358 C87.1285018,17.5937849 87.115816,17.8796514 87.0904444,18.0699574 C87.0650728,18.2606709 86.9845908,18.4801136 86.8494143,18.7286932 C86.5956983,19.1598361 85.936037,19.375 84.8704301,19.375 C83.8048232,19.375 83.1534804,19.1512784 82.9168175,18.7038352 C82.7984861,18.4552557 82.7265306,18.2400917 82.701159,18.0575284 C82.6757874,17.8753726 82.6631016,17.5852273 82.6631016,17.1875 L82.6631016,8.4375 C82.6631016,8.05648053 82.6757874,7.77061406 82.701159,7.57990057 C82.7265306,7.38959459 82.8065967,7.17830197 82.9421891,6.94602273 C83.195905,6.49857955 83.7960888,6.27485795 84.7435721,6.27485795 C85.6906396,6.27485795 86.3078764,6.42400568 86.5956983,6.72230114 C86.8831044,7.02059659 87.0270154,7.45173947 87.0270154,8.01491477 C87.8218533,6.83844076 88.7776552,6.25 89.8940053,6.25 Z" id="Fill-15" fill="#FFFFFF"></path>
            <g id="Group-19" transform="translate(104.117647, 5.625000)">
                <mask id="mask-6" fill="white">
                    <use xlink:href="#path-5"></use>
                </mask>
                <g id="Clip-18"></g>
                <path d="M7.95139137,6.21951074 C8.5943055,6.21951074 8.91597063,5.95160782 8.91597063,5.41497764 C8.91597063,5.02960958 8.76762183,4.7196665 8.47175649,4.48473624 C8.17547503,4.25021814 7.75227524,4.13275301 7.20257326,4.13275301 C6.65245515,4.13275301 6.10670635,4.35511244 5.56532688,4.79900698 C5.02353128,5.24331369 4.75304961,5.71667756 4.75304961,6.21951074 L7.95139137,6.21951074 Z M13.3073446,5.47783179 C13.3073446,6.50863983 13.0491387,7.27154494 12.5331429,7.7657228 C12.0167309,8.26031282 11.4455985,8.50740176 10.8197455,8.50740176 L4.80381694,8.50740176 C4.80381694,8.97685012 5.08303725,9.3708735 5.64147788,9.68905975 C6.1999185,10.0076582 6.75835912,10.1667513 7.31679975,10.1667513 C8.2982321,10.1667513 9.06827261,10.0661846 9.62671324,9.86505137 L9.90593355,9.76448473 C10.3120722,9.58024994 10.6503823,9.48792647 10.9212801,9.48792647 C11.4626596,9.48792647 11.9278881,9.86505137 12.3173817,10.6193011 C12.5373041,11.071851 12.6473693,11.4576312 12.6473693,11.7758175 C12.6473693,13.2678307 10.8451291,14.0134252 7.24064875,14.0134252 C5.98811054,14.0134252 4.87559861,13.7997211 3.90269684,13.3723129 C2.92937894,12.9449046 2.17223832,12.3792173 1.63085885,11.6752508 C0.564744928,10.3176012 0.0316879684,8.8008585 0.0316879684,7.12461048 C0.0316879684,5.01271109 0.721208173,3.3243044 2.10045664,2.0585661 C3.47949705,0.793239964 5.20121694,0.160370815 7.26603242,0.160370815 C9.6179746,0.160370815 11.3440638,0.98180241 12.4443,2.62425344 C13.0193857,3.49596836 13.3073446,4.44702375 13.3073446,5.47783179 Z" id="Fill-17" fill="#FFFFFF" mask="url(#mask-6)"></path>
            </g>
        </g>
    </g>
</svg>