<?xml version="1.0" standalone="no"?><!DOCTYPE svg PUBLIC "-//W3C//DTD SVG 1.1//EN" "http://www.w3.org/Graphics/SVG/1.1/DTD/svg11.dtd"><svg t="1512619068767" class="icon" style="" viewBox="0 0 1030 1024" version="1.1" xmlns="http://www.w3.org/2000/svg" p-id="13988" xmlns:xlink="http://www.w3.org/1999/xlink" width="201.171875" height="200"><defs><style type="text/css"></style></defs><path d="M401.81374 836.046051c6.463341 0 12.978388 6.463341 19.441729 6.463341l97.208645 103.671985 97.208644-103.671985c6.463341-6.463341 19.441729-6.463341 25.90507-6.463341H926.792128c25.90507 0 51.861846-19.441729 51.861846-51.861846v-667.533831c0-25.90507-19.441729-51.861846-51.861846-51.861846H110.187806c-25.90507 0-45.346799 25.90507-45.346799 51.861846v667.533831c0 25.90507 19.441729 51.861846 45.346799 51.861846h291.625934z m116.650374 187.953949c-6.463341 0-12.978388 0-19.441729-6.463341l-110.187033-116.650373h-278.699253c-64.788528-0.051707-110.135326-51.861846-110.135326-116.702081v-667.533831C0.000773 51.861846 51.862619 0 110.187806 0h810.140982c58.325187 0 110.187033 51.861846 110.187032 116.650374v667.533831c0 64.788528-51.861846 116.650374-110.187032 116.650374H648.092876l-110.187033 116.650374c0 0.051707-12.978388 6.515047-19.441729 6.515047z m0 0" fill="" p-id="13989"></path></svg>