<?xml version="1.0" encoding="utf-8"?>
<!-- Generator: Adobe Illustrator 21.0.0, SVG Export Plug-In . SVG Version: 6.00 Build 0)  -->
<svg version="1.1" id="图形" xmlns="http://www.w3.org/2000/svg" xmlns:xlink="http://www.w3.org/1999/xlink" x="0px" y="0px"
	 viewBox="15.167 -16.333 1000.636 1000.678" enable-background="new 15.167 -16.333 1000.636 1000.678" xml:space="preserve">
<g>
	<defs>
		<path id="SVGID_1_" d="M694.224,224.119c-30.003,0-48.005-13.688-48.005-34.219v-84.407c0,0,15.002-2.281,36.004,9.125
			c21.002,9.125,126.013,75.282,141.015,84.407c21.002,11.406,21.002,25.094,21.002,25.094H694.224z"/>
	</defs>
	<clipPath id="SVGID_2_">
		<use xlink:href="#SVGID_1_"  overflow="visible"/>
	</clipPath>
	<g clip-path="url(#SVGID_2_)">
		<defs>
			<rect id="SVGID_3_" x="-23987.557" y="-567.964" width="57109.172" height="35762.539"/>
		</defs>
		<clipPath id="SVGID_4_">
			<use xlink:href="#SVGID_3_"  overflow="visible"/>
		</clipPath>
	</g>
</g>
<g>
	<defs>
		<path id="SVGID_5_" d="M736.184,649.328c0-12.711-11.082-25.422-27.706-25.422H306.732c-13.853,0-27.707,10.169-27.707,25.422
			c0,12.711,11.083,25.422,27.707,25.422h401.746C725.101,674.75,736.184,662.039,736.184,649.328z M733.413,514.594
			c0-12.711-11.083-25.422-27.707-25.422H306.732c-13.853,0-27.707,10.169-27.707,25.422c0,12.711,11.083,25.422,27.707,25.422
			h401.746C722.331,540.016,733.413,527.305,733.413,514.594z M736.184,379.86c0-12.711-11.082-25.422-27.706-25.422H362.145
			c-13.853,0-27.707,10.169-27.707,25.422c0,12.711,11.083,25.421,27.707,25.421h346.333
			C725.101,405.281,736.184,392.57,736.184,379.86z M625.357,206.993c0,43.216,36.019,66.096,72.037,66.096H844.24v528.769
			c0,40.674-30.477,55.927-72.037,55.927H229.153c-36.019,0-58.184-25.422-58.184-50.843V163.776
			c0-43.216,22.165-58.47,66.496-58.47h387.892V206.993z"/>
	</defs>
	<use xlink:href="#SVGID_5_"  overflow="visible" fill="#FFFFFF"/>
	<clipPath id="SVGID_6_">
		<use xlink:href="#SVGID_5_"  overflow="visible"/>
	</clipPath>
	<g clip-path="url(#SVGID_6_)">
		<defs>
			<rect id="SVGID_7_" x="-23987.557" y="-567.964" width="57109.172" height="35762.539"/>
		</defs>
		<use xlink:href="#SVGID_7_"  overflow="visible" fill="#FFFFFF"/>
		<clipPath id="SVGID_8_">
			<use xlink:href="#SVGID_7_"  overflow="visible"/>
		</clipPath>
	</g>
</g>
</svg>
