<?xml version="1.0" encoding="utf-8"?>
<!-- Generator: Adobe Illustrator 21.0.0, SVG Export Plug-In . SVG Version: 6.00 Build 0)  -->
<svg version="1.1" id="图形" xmlns="http://www.w3.org/2000/svg" xmlns:xlink="http://www.w3.org/1999/xlink" x="0px" y="0px"
	 viewBox="15.167 -16.333 1000.636 1000.678" enable-background="new 15.167 -16.333 1000.636 1000.678" xml:space="preserve">
<path fill="#FFFFFF" d="M898.03,645.318c0,12.063-9.342,21.839-20.862,21.839h-723.41c-11.518,0-20.864-9.774-20.864-21.839v-460.85
	c0-12.053,9.346-21.833,20.864-21.833h723.41c11.518,0,20.862,9.778,20.862,21.833V645.318z M936.282,110.958H94.641
	c-11.525,0-20.87,9.776-20.87,21.837v607.794c0,12.053,9.344,21.817,20.87,21.817h316.49v52.377c0,0.777,0.144,1.475,0.219,2.225
	h-45.417c-10.559,0-19.13,8.969-19.13,20.016c0,11.051,8.571,20.029,19.13,20.029h309.532c10.557,0,19.128-8.969,19.128-20.029
	c0-11.047-8.571-20.016-19.128-20.016H630.05c0.063-0.725,0.225-1.449,0.225-2.225v-52.377h306.052
	c11.518,0,20.872-9.772,20.872-21.817V132.795C957.163,120.734,947.827,110.958,936.282,110.958z"/>
</svg>
