<?xml version="1.0" encoding="iso-8859-1"?>
<!-- Generator: Adobe Illustrator 19.0.0, SVG Export Plug-In . SVG Version: 6.00 Build 0)  -->
<svg xmlns="http://www.w3.org/2000/svg" xmlns:xlink="http://www.w3.org/1999/xlink" version="1.1" id="Layer_1" x="0px" y="0px" viewBox="0 0 512 512" style="enable-background:new 0 0 512 512;" xml:space="preserve">
<g>
	<g>
		<path d="M128.05,0H25.55C11.462,0,0,11.462,0,25.55v102.5c0,14.087,11.462,25.55,25.55,25.55h102.5    c14.087,0,25.55-11.462,25.55-25.55V25.55C153.6,11.462,142.138,0,128.05,0z M136.533,128.05c0,4.677-3.806,8.483-8.483,8.483    H25.55c-4.677,0-8.483-3.806-8.483-8.483V25.55c0-4.677,3.806-8.483,8.483-8.483h102.5c4.677,0,8.483,3.806,8.483,8.483V128.05z" fill="#FFFFFF"/>
	</g>
</g>
<g>
	<g>
		<path d="M307.25,0h-102.5c-14.088,0-25.55,11.462-25.55,25.55v102.5c0,14.087,11.462,25.55,25.55,25.55h102.5    c14.087,0,25.55-11.462,25.55-25.55V25.55C332.8,11.462,321.338,0,307.25,0z M315.733,128.05c0,4.677-3.806,8.483-8.483,8.483    h-102.5c-4.677,0-8.483-3.806-8.483-8.483V25.55c0-4.677,3.806-8.483,8.483-8.483h102.5c4.677,0,8.483,3.806,8.483,8.483V128.05z" fill="#FFFFFF"/>
	</g>
</g>
<g>
	<g>
		<path d="M486.45,0h-102.5c-14.087,0-25.55,11.462-25.55,25.55v102.5c0,14.087,11.462,25.55,25.55,25.55h102.5    c14.087,0,25.55-11.462,25.55-25.55V25.55C512,11.462,500.538,0,486.45,0z M494.933,128.05c0,4.677-3.806,8.483-8.483,8.483    h-102.5c-4.677,0-8.483-3.806-8.483-8.483V25.55c0-4.677,3.806-8.483,8.483-8.483h102.5c4.677,0,8.483,3.806,8.483,8.483V128.05z" fill="#FFFFFF"/>
	</g>
</g>
<g>
	<g>
		<path d="M128.05,179.2H25.55C11.462,179.2,0,190.662,0,204.75v102.5c0,14.087,11.462,25.55,25.55,25.55h102.5    c14.087,0,25.55-11.462,25.55-25.55v-102.5C153.6,190.662,142.138,179.2,128.05,179.2z M136.533,307.25    c0,4.677-3.806,8.483-8.483,8.483H25.55c-4.677,0-8.483-3.806-8.483-8.483v-102.5c0-4.677,3.806-8.483,8.483-8.483h102.5    c4.677,0,8.483,3.806,8.483,8.483V307.25z" fill="#FFFFFF"/>
	</g>
</g>
<g>
	<g>
		<path d="M307.25,179.2h-102.5c-14.088,0-25.55,11.462-25.55,25.55v102.5c0,14.087,11.462,25.55,25.55,25.55h102.5    c14.087,0,25.55-11.462,25.55-25.55v-102.5C332.8,190.662,321.338,179.2,307.25,179.2z M315.733,307.25    c0,4.677-3.806,8.483-8.483,8.483h-102.5c-4.677,0-8.483-3.806-8.483-8.483v-102.5c0-4.677,3.806-8.483,8.483-8.483h102.5    c4.677,0,8.483,3.806,8.483,8.483V307.25z" fill="#FFFFFF"/>
	</g>
</g>
<g>
	<g>
		<path d="M486.45,179.2h-102.5c-14.087,0-25.55,11.462-25.55,25.55v102.5c0,14.087,11.462,25.55,25.55,25.55h102.5    c14.087,0,25.55-11.462,25.55-25.55v-102.5C512,190.662,500.538,179.2,486.45,179.2z M494.933,307.25    c0,4.677-3.806,8.483-8.483,8.483h-102.5c-4.677,0-8.483-3.806-8.483-8.483v-102.5c0-4.677,3.806-8.483,8.484-8.483h102.5    c4.677,0,8.483,3.806,8.483,8.483V307.25z" fill="#FFFFFF"/>
	</g>
</g>
<g>
	<g>
		<path d="M128.05,358.4H25.55C11.462,358.4,0,369.862,0,383.95v102.5C0,500.538,11.462,512,25.55,512h102.5    c14.087,0,25.55-11.462,25.55-25.55v-102.5C153.6,369.862,142.138,358.4,128.05,358.4z M136.533,486.45    c0,4.677-3.806,8.483-8.483,8.483H25.55c-4.677,0-8.483-3.806-8.483-8.483v-102.5c0-4.677,3.806-8.483,8.483-8.483h102.5    c4.677,0,8.483,3.806,8.483,8.483V486.45z" fill="#FFFFFF"/>
	</g>
</g>
<g>
	<g>
		<path d="M307.25,358.4h-102.5c-14.088,0-25.55,11.462-25.55,25.55v102.5c0,14.087,11.462,25.55,25.55,25.55h102.5    c14.087,0,25.55-11.462,25.55-25.55v-102.5C332.8,369.862,321.338,358.4,307.25,358.4z M315.734,486.45L315.734,486.45    c0,4.677-3.806,8.483-8.484,8.483h-102.5c-4.677,0-8.483-3.806-8.483-8.483v-102.5c0-4.677,3.806-8.483,8.483-8.483h102.5    c4.677,0,8.483,3.806,8.483,8.483V486.45z" fill="#FFFFFF"/>
	</g>
</g>
<g>
	<g>
		<path d="M486.45,358.4h-102.5c-14.087,0-25.55,11.462-25.55,25.55v102.5c0,14.087,11.462,25.55,25.55,25.55h102.5    c14.087,0,25.55-11.462,25.55-25.55v-102.5C512,369.862,500.538,358.4,486.45,358.4z M494.933,486.45    c0,4.677-3.806,8.483-8.483,8.483h-102.5c-4.677,0-8.483-3.806-8.483-8.483v-102.5c0-4.677,3.806-8.483,8.483-8.483h102.5    c4.677,0,8.483,3.806,8.483,8.483V486.45z" fill="#FFFFFF"/>
	</g>
</g>
<g>
</g>
<g>
</g>
<g>
</g>
<g>
</g>
<g>
</g>
<g>
</g>
<g>
</g>
<g>
</g>
<g>
</g>
<g>
</g>
<g>
</g>
<g>
</g>
<g>
</g>
<g>
</g>
<g>
</g>
</svg>
