<?xml version="1.0" encoding="iso-8859-1"?>
<!-- Generator: Adobe Illustrator 19.0.0, SVG Export Plug-In . SVG Version: 6.00 Build 0)  -->
<svg version="1.1" id="Capa_1" xmlns="http://www.w3.org/2000/svg" xmlns:xlink="http://www.w3.org/1999/xlink" x="0px" y="0px"
	 viewBox="0 0 512 512" style="enable-background:new 0 0 512 512;" xml:space="preserve">
<path style="fill:#303C42;" d="M444.875,109.792L338.208,3.125c-2-2-4.708-3.125-7.542-3.125h-224C83.146,0,64,19.135,64,42.667
	v426.667C64,492.865,83.146,512,106.667,512h298.667C428.854,512,448,492.865,448,469.333v-352
	C448,114.5,446.875,111.792,444.875,109.792z"/>
<path style="fill:#E6E6E6;" d="M341.333,36.417l70.25,70.25h-48.917c-11.771,0-21.333-9.573-21.333-21.333V36.417z"/>
<path style="fill:#FFFFFF;" d="M405.333,490.667H106.667c-11.771,0-21.333-9.573-21.333-21.333V42.667
	c0-11.76,9.563-21.333,21.333-21.333H320v64C320,108.865,339.146,128,362.667,128h64v341.333
	C426.667,481.094,417.104,490.667,405.333,490.667z"/>
<linearGradient id="SVGID_1_" gradientUnits="userSpaceOnUse" x1="-30.0002" y1="641.8779" x2="-25.7514" y2="637.6291" gradientTransform="matrix(21.3333 0 0 -21.3333 996.3334 13791.667)">
	<stop  offset="0" style="stop-color:#000000;stop-opacity:0.1"/>
	<stop  offset="1" style="stop-color:#000000;stop-opacity:0"/>
</linearGradient>
<path style="fill:url(#SVGID_1_);" d="M362.667,128c-10.005,0-19.098-3.605-26.383-9.397l-0.259-0.027l90.642,90.642V128H362.667z"
	/>
<g>
<path style="fill:#303C42;" transform="translate(15, 15)" d="M248.177,162.544c-3.924-3.94-10.307-3.94-14.247,0l-56.327,56.335c-2.9,2.893-3.75,7.227-2.191,10.977
		c1.576,3.767,5.233,6.225,9.299,6.225h24.634v73.058c0,7.415,6.005,13.42,13.397,13.42h36.626c7.407,0,13.411-6.005,13.411-13.42
		v-73.058h24.634c4.067,0,7.738-2.458,9.315-6.225c1.545-3.75,0.692-8.085-2.191-10.977L248.177,162.544z"/>
</g>
<linearGradient id="SVGID_2_" gradientUnits="userSpaceOnUse" x1="-46.4381" y1="639.0643" x2="-23.653" y2="628.4363" gradientTransform="matrix(21.3333 0 0 -21.3333 996.3334 13791.667)">
	<stop  offset="0" style="stop-color:#FFFFFF;stop-opacity:0.2"/>
	<stop  offset="1" style="stop-color:#FFFFFF;stop-opacity:0"/>
</linearGradient>
<path style="fill:url(#SVGID_2_);" d="M444.875,109.792L338.208,3.125c-2-2-4.708-3.125-7.542-3.125h-224
	C83.146,0,64,19.135,64,42.667v426.667C64,492.865,83.146,512,106.667,512h298.667C428.854,512,448,492.865,448,469.333v-352
	C448,114.5,446.875,111.792,444.875,109.792z"/>
<g>
</g>
<g>
</g>
<g>
</g>
<g>
</g>
<g>
</g>
<g>
</g>
<g>
</g>
<g>
</g>
<g>
</g>
<g>
</g>
<g>
</g>
<g>
</g>
<g>
</g>
<g>
</g>
<g>
</g>
</svg>
