<?xml version="1.0" encoding="utf-8"?>
<!-- Generator: Adobe Illustrator 21.0.0, SVG Export Plug-In . SVG Version: 6.00 Build 0)  -->
<svg version="1.1" id="图形" xmlns="http://www.w3.org/2000/svg" xmlns:xlink="http://www.w3.org/1999/xlink" x="0px" y="0px"
	 viewBox="15.167 -16.333 1000.636 1000.678" enable-background="new 15.167 -16.333 1000.636 1000.678" xml:space="preserve">
<g id="_x30_2-lesson--started-files" transform="translate(-1268.000000, -776.000000)">
	<g id="tab-content" transform="translate(1126.000000, 0.000000)">
		<g id="upload" transform="translate(17.000000, 757.000000)">
			<g id="发送云盘文件" transform="translate(125.000000, 19.000000)">
				<path id="Fill-1" fill="#4A4A4A" d="M534.042,518.703c-4.878-4.956-11.603-7.65-18.557-7.438
					c-6.921-0.098-13.592,2.58-18.519,7.438L382.832,632.674c-4.956,4.985-7.712,11.746-7.648,18.768
					c0.066,7.026,2.941,13.734,7.99,18.625c10.297,10.279,26.933,10.429,37.418,0.342l68.124-68.032v164.831
					c0,15.043,11.973,26.621,26.724,26.621c14.682-0.114,26.566-11.953,26.729-26.621V602.377l68.124,68.032
					c4.983,4.956,11.75,7.707,18.78,7.642c7.031-0.066,13.74-2.939,18.638-7.985c10.281-10.29,10.432-26.915,0.342-37.393
					L534.042,518.703z M754.79,389.815c-12.712-122.527-116.039-215.631-239.305-215.631c-123.27,0-226.593,93.105-239.309,215.631
					c-82.625,13.196-141.215,87.664-134.542,171.021c6.668,83.356,76.354,147.574,160.031,147.48
					c14.76,0,26.725-11.958,26.725-26.706c0-14.754-11.966-26.711-26.725-26.711c-55.835,0.147-102.381-42.666-106.846-98.285
					c-4.471-55.619,34.64-105.308,89.783-114.065l40.583-6.452l4.192-40.857c9.821-95.338,90.196-167.817,186.108-167.817
					c95.909,0,176.284,72.478,186.108,167.817l4.189,40.857l40.583,6.452c54.917,9.003,93.752,58.589,89.294,114.025
					c-4.454,55.435-50.705,98.195-106.357,98.326c-14.76,0-26.725,11.958-26.725,26.711c0,14.749,11.966,26.706,26.725,26.706
					c83.678,0.094,153.364-64.124,160.035-147.48C896.005,477.479,837.421,403.011,754.79,389.815z"/>
			</g>
		</g>
	</g>
</g>
</svg>
