<?xml version="1.0" encoding="iso-8859-1"?>
<!-- Generator: Adobe Illustrator 19.0.0, SVG Export Plug-In . SVG Version: 6.00 Build 0)  -->
<svg xmlns="http://www.w3.org/2000/svg" xmlns:xlink="http://www.w3.org/1999/xlink" version="1.1" id="Capa_1" x="0px" y="0px" viewBox="0 0 402.768 402.768" style="enable-background:new 0 0 402.768 402.768;" xml:space="preserve" width="512px" height="512px">
<g>
	<g>
		<path d="M314.868,42.841l-46.35-40.96c-1.207-1.067-2.761-1.657-4.371-1.657H37.431c-3.644,0-6.6,2.956-6.6,6.6V382.29    c0,3.644,2.956,6.6,6.6,6.6h237.025c3.644,0,6.601-2.956,6.601-6.6c0-3.644-2.956-6.6-6.6-6.6H44.03V13.423h217.622l42.247,37.333    v235.957c0,3.644,2.956,6.6,6.6,6.6c3.644,0,6.6-2.956,6.6-6.6V47.783C317.099,45.894,316.285,44.09,314.868,42.841z" fill="#303c42"/>
	</g>
</g>
<g>
	<g>
		<path d="M173.964,129.702c-39.523,0-71.68,32.157-71.68,71.68s32.157,71.68,71.68,71.68c39.523,0,71.68-32.157,71.68-71.68    S213.487,129.702,173.964,129.702z M173.964,259.408c-31.997,0-58.027-26.03-58.027-58.027s26.03-58.027,58.027-58.027    s58.027,26.03,58.027,58.027S205.961,259.408,173.964,259.408z" fill="#303c42"/>
	</g>
</g>
<g>
	<g>
		<path d="M208.097,195.468l-51.2-29.559c-2.113-1.22-4.714-1.22-6.827,0s-3.413,3.473-3.413,5.914v59.121    c0,2.441,1.3,4.693,3.413,5.914c1.056,0.609,2.234,0.913,3.413,0.913s2.355-0.304,3.413-0.915l51.2-29.559    c2.113-1.22,3.413-3.473,3.413-5.914C211.511,198.941,210.21,196.688,208.097,195.468z M160.311,219.119v-35.473l30.72,17.736    L160.311,219.119z" fill="#303c42"/>
	</g>
</g>
<g>
	<g>
		<path d="M314.94,42.599l-47.787-40.96c-2.022-1.734-4.869-2.121-7.296-1.021c-2.42,1.118-3.973,3.538-3.973,6.204v40.96    c0,3.77,3.057,6.827,6.827,6.827h47.787c2.855,0,5.41-1.78,6.402-4.456C317.891,47.471,317.109,44.459,314.94,42.599z     M269.537,40.955v-19.29l22.508,19.29H269.537z" fill="#303c42"/>
	</g>
</g>
<g>
	<g>
		<path d="M310.497,279.888c-33.877,0-61.44,27.563-61.44,61.44s27.563,61.44,61.44,61.44c33.876,0,61.44-27.563,61.44-61.44    S344.375,279.888,310.497,279.888z M310.497,389.115c-26.349,0-47.787-21.437-47.787-47.787c0-26.349,21.437-47.787,47.787-47.787    c26.349,0,47.787,21.437,47.787,47.787S336.847,389.115,310.497,389.115z" fill="#303c42"/>
	</g>
</g>
<g>
	<g>
		<rect x="303.664" y="320.852" width="13.653" height="54.613" fill="#303c42"/>
	</g>
</g>
<g>
	<g>
		<polygon points="310.497,304.369 278.363,336.502 288.017,346.155 310.497,323.676 332.976,346.155 342.63,336.502   " fill="#303c42"/>
	</g>
</g>
<g>
</g>
<g>
</g>
<g>
</g>
<g>
</g>
<g>
</g>
<g>
</g>
<g>
</g>
<g>
</g>
<g>
</g>
<g>
</g>
<g>
</g>
<g>
</g>
<g>
</g>
<g>
</g>
<g>
</g>
</svg>
