<?xml version="1.0" encoding="UTF-8"?>
<svg width="74px" height="21px" viewBox="0 0 74 21" version="1.1" xmlns="http://www.w3.org/2000/svg" xmlns:xlink="http://www.w3.org/1999/xlink">
    <!-- Generator: Sketch 49.3 (51167) - http://www.bohemiancoding.com/sketch -->
    <title>Group 28</title>
    <desc>Created with Sketch.</desc>
    <defs></defs>
    <g id="Page-1" stroke="none" stroke-width="1" fill="none" fill-rule="evenodd">
        <g id="detail" transform="translate(-1008.000000, -558.000000)" fill="#64C092">
            <g id="detail-top" transform="translate(0.000000, 63.000000)">
                <g id="Group-3" transform="translate(968.000000, 308.000000)">
                    <g id="Group-20" transform="translate(0.000000, 43.000000)">
                        <g id="Group-2" transform="translate(40.000000, 144.000000)">
                            <g id="Group-28">
                                <path d="M2.88,1.44 C2.08470996,1.44 1.44,2.08470996 1.44,2.88 L1.44,17.28 C1.44,18.07529 2.08470996,18.72 2.88,18.72 L71.12,18.72 C71.91529,18.72 72.56,18.07529 72.56,17.28 L72.56,2.88 C72.56,2.08470996 71.91529,1.44 71.12,1.44 L2.88,1.44 Z M2.88,0 L71.12,4.4408921e-16 C72.7105801,1.51904389e-16 74,1.28941992 74,2.88 L74,17.28 C74,18.8705801 72.7105801,20.16 71.12,20.16 L2.88,20.16 C1.28941992,20.16 2.85932514e-15,18.8705801 2.66453526e-15,17.28 L4.4408921e-16,2.88 C2.4929933e-16,1.28941992 1.28941992,7.3627403e-16 2.88,0 Z" id="Rectangle-7" fill-rule="nonzero"></path>
                                <path d="M15.26048,15 L13.45952,15 L13.45952,7.5408 L11.99456,8.58912 L11.99456,6.57312 L13.45952,5.43072 L15.26048,5.43072 L15.26048,15 Z M25.05824,10.21536 C25.05824,11.5056 25.112,13.23936 24.34592,14.15328 C23.9024,14.67744 23.31104,15.10752 22.23584,15.10752 C21.16064,15.10752 20.59616,14.67744 20.15264,14.15328 C19.38656,13.23936 19.44032,11.5056 19.44032,10.21536 C19.44032,8.92512 19.38656,7.19136 20.15264,6.27744 C20.59616,5.75328 21.16064,5.3232 22.23584,5.3232 C23.31104,5.3232 23.9024,5.75328 24.34592,6.27744 C25.112,7.19136 25.05824,8.92512 25.05824,10.21536 Z M23.14976,10.21536 C23.14976,9.05952 23.12288,7.86336 22.8944,7.41984 C22.78688,7.2048 22.58528,7.04352 22.23584,7.04352 C21.8864,7.04352 21.71168,7.2048 21.60416,7.41984 C21.37568,7.86336 21.3488,9.05952 21.3488,10.21536 C21.3488,11.3712 21.37568,12.56736 21.60416,13.01088 C21.71168,13.22592 21.8864,13.3872 22.23584,13.3872 C22.58528,13.3872 22.78688,13.22592 22.8944,13.01088 C23.12288,12.56736 23.14976,11.3712 23.14976,10.21536 Z M31.81856,15 L30.19232,15 L28.16288,10.32288 L28.16288,15 L26.2544,15 L26.2544,5.43072 L27.92096,5.43072 L29.91008,10.10784 L29.91008,5.43072 L31.81856,5.43072 L31.81856,15 Z M42.4496,15 L40.54112,15 L40.54112,10.01376 L39.4928,13.29312 L38.51168,13.29312 L37.49024,10.0272 L37.49024,15 L35.58176,15 L35.58176,5.43072 L37.26176,5.43072 L39.00896,10.12128 L40.75616,5.43072 L42.4496,5.43072 L42.4496,15 Z M50.07008,15 L48.08096,15 L47.77184,13.50816 L45.56768,13.50816 L45.25856,15 L43.26944,15 L45.72896,5.43072 L47.61056,5.43072 L50.07008,15 Z M47.40896,11.78784 L46.66976,8.23968 L45.93056,11.78784 L47.40896,11.78784 Z M56.45408,15 L54.82784,15 L52.7984,10.32288 L52.7984,15 L50.88992,15 L50.88992,5.43072 L52.55648,5.43072 L54.5456,10.10784 L54.5456,5.43072 L56.45408,5.43072 L56.45408,15 Z M62.98592,5.43072 L61.03712,11.39808 L61.03712,15 L59.12864,15 L59.12864,11.39808 L57.17984,5.43072 L59.27648,5.43072 L60.08288,8.89824 L60.88928,5.43072 L62.98592,5.43072 Z" id="1-on-MANY"></path>
                            </g>
                        </g>
                    </g>
                </g>
            </g>
        </g>
    </g>
</svg>