<?xml version="1.0" encoding="UTF-8"?>
<svg width="56px" height="21px" viewBox="0 0 56 21" version="1.1" xmlns="http://www.w3.org/2000/svg" xmlns:xlink="http://www.w3.org/1999/xlink">
    <!-- Generator: Sketch 49.3 (51167) - http://www.bohemiancoding.com/sketch -->
    <title>Group 31</title>
    <desc>Created with Sketch.</desc>
    <defs></defs>
    <g id="Page-1" stroke="none" stroke-width="1" fill="none" fill-rule="evenodd">
        <g id="detail" transform="translate(-1089.000000, -558.000000)" fill="#64C092">
            <g id="detail-top" transform="translate(0.000000, 63.000000)">
                <g id="Group-3" transform="translate(968.000000, 308.000000)">
                    <g id="Group-20" transform="translate(0.000000, 43.000000)">
                        <g id="Group-2" transform="translate(40.000000, 144.000000)">
                            <g id="Group-31" transform="translate(81.000000, 0.000000)">
                                <path d="M2.88,1.44 C2.08470996,1.44 1.44,2.08470996 1.44,2.88 L1.44,17.28 C1.44,18.07529 2.08470996,18.72 2.88,18.72 L53.12,18.72 C53.91529,18.72 54.56,18.07529 54.56,17.28 L54.56,2.88 C54.56,2.08470996 53.91529,1.44 53.12,1.44 L2.88,1.44 Z M2.88,0 L53.12,4.4408921e-16 C54.7105801,1.51904389e-16 56,1.28941992 56,2.88 L56,17.28 C56,18.8705801 54.7105801,20.16 53.12,20.16 L2.88,20.16 C1.28941992,20.16 0,18.8705801 0,17.28 L0,2.88 C0,1.28941992 1.28941992,7.3627403e-16 2.88,0 Z" id="Rectangle-7-Copy-3" fill-rule="nonzero"></path>
                                <path d="M17.26048,15 L15.45952,15 L15.45952,7.5408 L13.99456,8.58912 L13.99456,6.57312 L15.45952,5.43072 L17.26048,5.43072 L17.26048,15 Z M27.05824,10.21536 C27.05824,11.5056 27.112,13.23936 26.34592,14.15328 C25.9024,14.67744 25.31104,15.10752 24.23584,15.10752 C23.16064,15.10752 22.59616,14.67744 22.15264,14.15328 C21.38656,13.23936 21.44032,11.5056 21.44032,10.21536 C21.44032,8.92512 21.38656,7.19136 22.15264,6.27744 C22.59616,5.75328 23.16064,5.3232 24.23584,5.3232 C25.31104,5.3232 25.9024,5.75328 26.34592,6.27744 C27.112,7.19136 27.05824,8.92512 27.05824,10.21536 Z M25.14976,10.21536 C25.14976,9.05952 25.12288,7.86336 24.8944,7.41984 C24.78688,7.2048 24.58528,7.04352 24.23584,7.04352 C23.8864,7.04352 23.71168,7.2048 23.60416,7.41984 C23.37568,7.86336 23.3488,9.05952 23.3488,10.21536 C23.3488,11.3712 23.37568,12.56736 23.60416,13.01088 C23.71168,13.22592 23.8864,13.3872 24.23584,13.3872 C24.58528,13.3872 24.78688,13.22592 24.8944,13.01088 C25.12288,12.56736 25.14976,11.3712 25.14976,10.21536 Z M33.81856,15 L32.19232,15 L30.16288,10.32288 L30.16288,15 L28.2544,15 L28.2544,5.43072 L29.92096,5.43072 L31.91008,10.10784 L31.91008,5.43072 L33.81856,5.43072 L33.81856,15 Z M41.10304,15 L39.30208,15 L39.30208,7.5408 L37.83712,8.58912 L37.83712,6.57312 L39.30208,5.43072 L41.10304,5.43072 L41.10304,15 Z" id="1-on-1"></path>
                            </g>
                        </g>
                    </g>
                </g>
            </g>
        </g>
    </g>
</svg>