<?xml version="1.0" encoding="UTF-8"?>
<svg width="27px" height="27px" viewBox="0 0 27 27" version="1.1" xmlns="http://www.w3.org/2000/svg" xmlns:xlink="http://www.w3.org/1999/xlink">
    <!-- Generator: Sketch 49.3 (51167) - http://www.bohemiancoding.com/sketch -->
    <title>Group 26</title>
    <desc>Created with Sketch.</desc>
    <defs></defs>
    <g id="Page-1" stroke="none" stroke-width="1" fill="none" fill-rule="evenodd">
        <g id="detail" transform="translate(-1595.000000, -92.000000)">
            <g id="detail-top" transform="translate(0.000000, 63.000000)">
                <g id="social" transform="translate(1463.000000, 29.000000)">
                    <g id="Group-26" transform="translate(132.000000, 0.000000)">
                        <circle id="Oval-4-Copy" fill="#5E8DD4" cx="13.2" cy="13.2" r="13.2"></circle>
                        <g id="Google-+" transform="translate(3.923596, 7.200000)" fill="#FFFFFF">
                            <path d="M5.96699562,5.33786008 L5.96699562,7.47300412 L9.35113457,7.47300412 C9.21474609,8.38933676 8.32822103,10.159727 5.96699562,10.159727 C3.92969283,10.159727 2.26745834,8.3982332 2.26745834,6.22750343 C2.26745834,4.05677366 3.92969283,2.29527984 5.96699562,2.29527984 C7.12629763,2.29527984 7.90200706,2.81127298 8.34526959,3.25609465 L9.96488269,1.62804733 C8.92492059,0.613853909 7.57808444,0 5.96699562,0 C2.66809947,0 0,2.78458368 0,6.22750343 C0,9.67042318 2.66809947,12.4550069 5.96699562,12.4550069 C9.41080452,12.4550069 11.6953114,9.92841975 11.6953114,6.36984636 C11.6953114,5.96061043 11.65269,5.64923525 11.6015443,5.33786008 L5.96699562,5.33786008 L5.96699562,5.33786008 Z" id="Shape"></path>
                            <polyline id="Shape-Copy" points="19.2628659 5.30491033 17.4283072 5.30491033 17.4283072 3.45972413 15.5937486 3.45972413 15.5937486 5.30491033 13.7591899 5.30491033 13.7591899 7.15009653 15.5937486 7.15009653 15.5937486 8.99528273 17.4283072 8.99528273 17.4283072 7.15009653 19.2628659 7.15009653"></polyline>
                        </g>
                    </g>
                </g>
            </g>
        </g>
    </g>
</svg>