<?xml version="1.0" encoding="UTF-8"?>
<svg width="28px" height="18px" viewBox="0 0 28 18" version="1.1" xmlns="http://www.w3.org/2000/svg" xmlns:xlink="http://www.w3.org/1999/xlink">
    <!-- Generator: Sketch 48.2 (47327) - http://www.bohemiancoding.com/sketch -->
    <title>Google +</title>
    <desc>Created with Sketch.</desc>
    <defs></defs>
    <g id="footer" stroke="none" stroke-width="1" fill="none" fill-rule="evenodd" transform="translate(-1537.000000, -223.000000)">
        <g fill="#F23D2B" id="bottom">
            <g transform="translate(260.000000, 221.000000)">
                <g id="Google-+" transform="translate(1277.000000, 2.000000)">
                    <path d="M8.67346939,7.71428571 L8.67346939,10.8 L13.5925656,10.8 C13.3943149,12.1242857 12.1056851,14.6828571 8.67346939,14.6828571 C5.71209913,14.6828571 3.29591837,12.1371429 3.29591837,9 C3.29591837,5.86285714 5.71209913,3.31714286 8.67346939,3.31714286 C10.3586006,3.31714286 11.4861516,4.06285714 12.1304665,4.70571429 L14.4846939,2.35285714 C12.9730321,0.887142857 11.0153061,0 8.67346939,0 C3.87827988,0 0,4.02428571 0,9 C0,13.9757143 3.87827988,18 8.67346939,18 C13.6793003,18 17,14.3485714 17,9.20571429 C17,8.61428571 16.9380466,8.16428571 16.8637026,7.71428571 L8.67346939,7.71428571 L8.67346939,7.71428571 Z" id="Shape"></path>
                    <polyline id="Shape-Copy" points="28 7.66666667 25.3333333 7.66666667 25.3333333 5 22.6666667 5 22.6666667 7.66666667 20 7.66666667 20 10.3333333 22.6666667 10.3333333 22.6666667 13 25.3333333 13 25.3333333 10.3333333 28 10.3333333"></polyline>
                </g>
            </g>
        </g>
    </g>
</svg>