<?xml version="1.0" encoding="UTF-8"?>
<svg width="38px" height="38px" viewBox="0 0 38 38" version="1.1" xmlns="http://www.w3.org/2000/svg" xmlns:xlink="http://www.w3.org/1999/xlink">
    <!-- Generator: Sketch 51 (57462) - http://www.bohemiancoding.com/sketch -->
    <title>Group 11</title>
    <desc>Created with Sketch.</desc>
    <defs></defs>
    <g id="Page-1" stroke="none" stroke-width="1" fill="none" fill-rule="evenodd">
        <g id="4-chat-course-list" transform="translate(-773.000000, -604.000000)">
            <g id="left" transform="translate(755.000000, 375.000000)">
                <g id="list" transform="translate(0.000000, 96.000000)">
                    <g id="03" transform="translate(18.000000, 133.000000)">
                        <g id="Group-11">
                            <circle id="Oval-3" fill="#D8D8D8" fill-rule="nonzero" cx="19" cy="19" r="19"></circle>
                            <g id="users" opacity="0.800000012" transform="translate(6.000000, 9.000000)" fill="#FFFFFF">
                                <path d="M14.5872883,7.9900332 C16.1137988,7.4800332 17.131616,5.9499668 17.131616,4.0799668 C17.131616,1.87 15.604973,0 13.7391571,0 C11.873308,0 10.3467975,1.87 10.3467975,4.0799668 C10.3467975,5.9499668 11.3644822,7.4800332 12.8911252,7.9900332 C9.15946012,8.5 6.10630675,12.07 6.10630675,16.32 L6.10630675,17 L21.0328012,17 L21.0328012,16.32 C21.202454,12.07 18.3189534,8.5 14.5872883,7.9900332 Z" id="Fill-1"></path>
                                <g id="Group-5" transform="translate(0.000000, 1.859375)">
                                    <path d="M8.65063436,7.1505918 C8.14180859,6.640625 7.29364417,6.30069141 6.61516564,6.30069141 C7.63281718,5.79055859 8.4809816,4.6005918 8.4809816,3.24069141 C8.4809816,1.54055859 7.29364417,0.010625 5.76700123,0.010625 C4.2404908,0.010625 3.22280613,1.54055859 3.22280613,3.24069141 C3.22280613,4.770625 4.07083804,5.960625 5.25817546,6.30069141 C2.20502209,6.640625 0,9.36069141 0,12.760625 L0,13.270625 L5.42782822,13.270625 C5.76700123,10.7205918 6.95447117,8.510625 8.65063436,7.1505918 Z" id="Fill-2"></path>
                                    <path d="M22.0506184,6.30069141 C23.2379227,5.960625 24.0859546,4.770625 24.0859546,3.24069141 C24.0859546,1.54055859 22.8986172,0.010625 21.3721067,0.010625 C19.8454638,0.010625 18.6581264,1.54055859 18.6581264,3.24069141 C18.6581264,4.6005918 19.5062908,5.960625 20.5239755,6.30069141 C19.8454638,6.4705918 18.9974319,6.640625 18.4884736,7.1505918 C20.3542896,8.6806582 21.541627,10.890625 21.8809325,13.270625 L26.9694552,13.270625 L26.9694552,12.760625 C27.139108,9.36069141 24.934119,6.640625 22.0506184,6.30069141 Z" id="Fill-4"></path>
                                </g>
                            </g>
                        </g>
                    </g>
                </g>
            </g>
        </g>
    </g>
</svg>