<?xml version="1.0" encoding="UTF-8"?>
<svg width="19px" height="14px" viewBox="0 0 19 14" version="1.1" xmlns="http://www.w3.org/2000/svg" xmlns:xlink="http://www.w3.org/1999/xlink">
    <!-- Generator: Sketch 50.2 (55047) - http://www.bohemiancoding.com/sketch -->
    <title>video</title>
    <desc>Created with Sketch.</desc>
    <defs></defs>
    <g id="Page-1" stroke="none" stroke-width="1" fill="none" fill-rule="evenodd">
        <g id="2-chat-default" transform="translate(-1287.000000, -339.000000)" fill-rule="nonzero">
            <g id="right" transform="translate(959.000000, 317.000000)">
                <g id="video" transform="translate(328.000000, 19.000000)">
                    <rect id="Rectangle-path" fill="#000000" opacity="0" x="0" y="0" width="19" height="19"></rect>
                    <path d="M17.8125,3.96256684 L17.2858437,3.96256684 C16.974125,3.96256684 16.674875,4.08875936 16.4522188,4.31371123 L14.84375,5.94263102 L14.84375,5.18181818 C14.84375,4.1717573 14.0462572,3.35294118 13.0625,3.35294118 L1.78125,3.35294118 C0.7991875,3.35294118 0,4.1728877 0,5.18181818 L0,14.9358289 C1.20475512e-16,15.9458898 0.797492789,16.7647059 1.78125,16.7647059 L13.0625,16.7647059 C14.04575,16.7647059 14.84375,15.945369 14.84375,14.9358289 L14.84375,14.1914759 L16.4522188,15.8203957 C16.674875,16.0453476 16.974125,16.1715401 17.2858437,16.1715401 L17.8125,16.1715401 C18.4683381,16.1715401 19,15.6256627 19,14.9522888 L19,5.18181818 C19,4.50844426 18.4683381,3.96256684 17.8125,3.96256684 Z M1.78125,15.5454545 C1.4535,15.5454545 1.1875,15.2717326 1.1875,14.9358289 L1.1875,5.18181818 C1.1875,4.84513122 1.45333093,4.57219251 1.78125,4.57219251 L13.0625,4.57219251 C13.3896562,4.57219251 13.65625,4.84530481 13.65625,5.18181818 L13.65625,14.9358289 C13.65625,15.2717326 13.3896562,15.5454545 13.0625,15.5454545 L1.78125,15.5454545 Z M17.8125,14.9522888 L17.21875,14.9522888 L14.84375,12.5137861 L14.84375,12.4973262 L14.25,11.8877005 L14.25,8.22994652 L17.21875,5.18181818 L17.8125,5.18181818 L17.8125,14.9522888 Z" id="Shape" fill="#333333"></path>
                </g>
            </g>
        </g>
    </g>
</svg>