<?xml version="1.0" encoding="UTF-8"?>
<svg width="18px" height="18px" viewBox="0 0 18 18" version="1.1" xmlns="http://www.w3.org/2000/svg" xmlns:xlink="http://www.w3.org/1999/xlink">
    <!-- Generator: Sketch 50.2 (55047) - http://www.bohemiancoding.com/sketch -->
    <title>face</title>
    <desc>Created with Sketch.</desc>
    <defs></defs>
    <g id="Page-1" stroke="none" stroke-width="1" fill="none" fill-rule="evenodd">
        <g id="2-chat-default" transform="translate(-1246.000000, -814.000000)" fill="#000000" fill-rule="nonzero">
            <g id="right" transform="translate(959.000000, 317.000000)">
                <g id="input" transform="translate(1.000000, 443.000000)">
                    <g id="face" transform="translate(285.000000, 53.000000)">
                        <rect id="Rectangle-path" opacity="0" x="0" y="0" width="20" height="20"></rect>
                        <path d="M10,1.24593525 C5.16529793,1.24593525 1.24593525,5.16529793 1.24593525,10 C1.24593525,14.8347021 5.16529793,18.7540647 10,18.7540647 C14.8347021,18.7540647 18.7540647,14.8347021 18.7540647,10 C18.7540647,5.16529793 14.8346821,1.24593525 10,1.24593525 Z M10,17.703577 C5.74552453,17.703577 2.29642303,14.2544755 2.29642303,10 C2.29642303,5.74552453 5.74552453,2.29642303 10,2.29642303 C14.2544755,2.29642303 17.703577,5.74552453 17.703577,10 C17.703577,14.2544755 14.2544755,17.703577 10,17.703577 Z M7.19869928,9.6498374 C7.77892588,9.6498374 8.24918705,8.82941365 8.24918705,8.24918705 C8.24918705,7.66896045 7.77892588,6.8485367 7.19869928,6.8485367 C6.61847268,6.8485367 6.1482115,7.66896045 6.1482115,8.24918705 C6.1482115,8.82941365 6.61847268,9.6498374 7.19869928,9.6498374 Z M12.8013007,9.6498374 C13.3815273,9.6498374 13.8517885,8.82941365 13.8517885,8.24918705 C13.8517885,7.66896045 13.3815273,6.8485367 12.8013007,6.8485367 C12.2210741,6.8485367 11.7508129,7.66896045 11.7508129,8.24918705 C11.7508129,8.82941365 12.2210741,9.6498374 12.8013007,9.6498374 Z M13.5016259,12.1009755 C13.331801,12.0274454 13.0933427,12.008878 12.8611801,12.0144942 C12.2273898,12.913005 11.1831978,13.5016259 10,13.5016259 C8.7943974,13.5016259 7.73165793,12.892339 7.10170504,11.9651077 C6.90491846,11.9693048 6.6958602,12.0022225 6.4983741,12.1009755 C6.2718277,12.2144386 6.19304111,12.3741104 6.14401436,12.5117171 C6.94904854,13.8994162 8.37280324,14.9022763 10,14.9022763 C11.6555575,14.9022763 13.100338,13.8640402 13.8969579,12.4385267 C13.7968058,12.3002204 13.6700517,12.1741659 13.5016259,12.1009755 Z" id="Shape"></path>
                    </g>
                </g>
            </g>
        </g>
    </g>
</svg>