<?xml version="1.0" encoding="UTF-8"?>
<svg width="38px" height="32px" viewBox="0 0 38 32" version="1.1" xmlns="http://www.w3.org/2000/svg" xmlns:xlink="http://www.w3.org/1999/xlink">
    <!-- Generator: Sketch 50.2 (55047) - http://www.bohemiancoding.com/sketch -->
    <title>chat</title>
    <desc>Created with Sketch.</desc>
    <defs>
        <polygon id="path-1" points="46.3708444 19.3840218 34.8975233 20.2828407 31.644417 33.9740753 0.768496132 30.4785711 5.91459139 0.492109819 39.3536025 3.77258301 49.2411146 8.07456277"></polygon>
        <path d="M17.6731715,2.52853262 L16.0817376,4.64132901 L14.0941879,9.45808524 L13.8240633,11.6134607 L12.6543994,13.1296684 L11.5020612,16.2731039 C4.65563493,15.4058718 0.902986771,14.1274651 0.244116699,12.4378838 C-0.414753373,10.7483026 1.38486952,7.01844583 5.64298537,1.24831364 L12.163586,0.186183535 L17.8956006,0.623051874 L17.6731715,2.52853262 Z" id="path-3"></path>
    </defs>
    <g id="Page-1" stroke="none" stroke-width="1" fill="none" fill-rule="evenodd">
        <g id="2-chat-default" transform="translate(-905.000000, -374.000000)">
            <g id="left" transform="translate(755.000000, 317.000000)">
                <g id="mode" transform="translate(22.000000, 50.000000)">
                    <g id="course-group" transform="translate(112.000000, 0.000000)">
                        <g id="Group-4">
                            <mask id="mask-2" fill="white">
                                <use xlink:href="#path-1"></use>
                            </mask>
                            <g id="Path-3"></g>
                            <path d="M42.3790997,10.9375 L35.8287554,10.9375 C34.2990351,10.9375 32.9394999,11.6550658 32.0851981,12.7645088 C31.2307129,11.6579964 29.8713245,10.9375 28.3416409,10.9375 L21.7881036,10.9375 C20.7575977,10.9375 19.9148936,11.7551705 19.9148936,12.7615782 L19.9148936,29.6218374 C19.9148936,30.6253145 20.7545882,31.4459156 21.7881036,31.4459156 L28.6703766,31.4459156 C29.5894933,32.3208041 30.8108105,32.8125 32.0851981,32.8125 C33.3594022,32.8125 34.5809029,32.3208041 35.4998728,31.4459156 L42.3821092,31.4459156 C43.4126151,31.4459156 44.2553191,30.6282451 44.2553191,29.6218374 L44.2553191,12.7587905 C44.2524564,11.7551705 43.4126151,10.9375 42.3790997,10.9375 Z M43.1489362,29.355758 C43.1489362,29.8435167 42.7397378,30.2411044 42.2379556,30.2411044 L35.320969,30.2411044 C35.0282845,30.2411044 34.7475836,30.3659651 34.5565547,30.5865125 C33.926275,31.3065753 33.02739,31.71875 32.0866557,31.71875 C31.1457346,31.71875 30.2468497,31.3065753 29.6167193,30.5865125 C29.4255411,30.3687954 29.1448402,30.2411044 28.8521557,30.2411044 L21.9322945,30.2411044 C21.430475,30.2411044 21.0212766,29.8435167 21.0212766,29.355758 L21.0212766,12.9167053 C21.0212766,12.4289828 21.430475,12.03125 21.9322945,12.03125 L28.0607501,12.03125 C29.7241987,12.03125 31.4175878,13.3549697 31.4175878,14.983457 L31.4175878,23.3497065 C31.4175878,24.4527336 32.752625,24.4527336 32.752625,23.3497065 L32.752625,14.9864324 C32.752625,13.3579452 34.446014,12.0342255 36.1094626,12.0342255 L42.2379556,12.0342255 C42.7397378,12.0342255 43.1489362,12.4319582 43.1489362,12.9195356 L43.1489362,29.355758 Z" id="Fill-1" fill="#4A4A4A" mask="url(#mask-2)"></path>
                        </g>
                        <g id="Group-2" transform="translate(25.446809, 17.500000)">
                            <path d="M25.1524653,14.70414 L25.293818,14.70414 L25.3751485,14.7835516 L25.1510144,14.7084619 L25.1524653,14.70414 Z M24.9143012,14.70414 L25.2085118,14.5229871 C25.2501009,14.3514581 25.2626448,14.1459764 25.2089501,13.9518255 C24.965589,13.6449375 24.461303,13.3315734 23.1358846,12.6184718 C22.7638543,12.418551 22.5990682,12.3290569 22.3831915,12.2080278 C22.2031732,12.1071023 22.0397001,12.0125375 21.8889405,11.9216018 C20.9980087,11.3842062 20.5953882,11.0504258 20.5853593,10.5476488 L20.5822174,9.93546208 L20.7564436,9.77144835 C21.5019386,9.06965183 21.9096538,8.11269114 21.9096538,7.05735691 C21.9096538,4.80203518 21.3227403,3.83125 19.3869023,3.83125 C17.4509802,3.83125 16.8640694,4.8020134 16.8640694,7.05735691 C16.8640694,8.11207418 17.2713602,9.06762587 18.0177267,9.77188895 L18.1914952,9.93585495 L18.1902573,10.1747667 L18.1882636,10.5482472 C18.1793028,11.0013059 17.8397996,11.3117536 17.1390842,11.7616994 C16.7511361,12.01081 16.3785379,12.2194432 15.6369373,12.6170863 C14.3465136,13.307442 13.8178427,13.6355243 13.5660393,13.9464085 C13.5105103,14.1475039 13.5240443,14.357968 13.5645126,14.520512 L13.8579034,14.70414 L24.9143012,14.70414 Z M17.0886001,10.4917733 C17.0888136,10.5034089 17.0887053,10.517552 17.0883786,10.5345214 L17.0886001,10.4917733 Z" id="Fill-1" stroke="#4A4A4A" stroke-width="1.1"></path>
                            <g id="Group">
                                <mask id="mask-4" fill="white">
                                    <use xlink:href="#path-3"></use>
                                </mask>
                                <g id="Path-2"></g>
                                <path d="M19.9117947,14.4811701 L20.0701512,14.4811701 L20.1574002,14.5685549 L19.9096754,14.487646 L19.9117947,14.4811701 Z M19.6831452,14.4811701 L19.9657175,14.3027013 C20.0076274,14.1270568 20.0203874,13.9161611 19.9660844,13.7163957 C19.7283593,13.4083201 19.2356652,13.0941802 17.9370584,12.3775062 C17.5725244,12.1765677 17.4110409,12.0866082 17.1994557,11.9649294 C17.0229771,11.8634397 16.8627038,11.7683377 16.7148761,11.6768735 C15.8448891,11.138594 15.4474423,10.8006151 15.437739,10.3016846 L15.4346878,9.69186715 L15.6038066,9.52856055 C16.3345367,8.82294356 16.7350617,7.85864317 16.7350617,6.79448775 C16.7350617,4.52639016 16.1595835,3.55 14.2748933,3.55 C12.3901206,3.55 11.8146452,4.52636815 11.8146452,6.79448775 C11.8146452,7.85802545 12.214753,8.82090542 12.9463427,9.52900758 L13.1150083,9.69225818 L13.1138227,9.9269866 L13.1118725,10.3020446 C13.1032082,10.7513929 12.7685988,11.0652475 12.0842687,11.5159912 C11.7038162,11.7665817 11.3385918,11.9763539 10.6117399,12.3761281 C9.34745789,13.0699213 8.83081181,13.3988901 8.58485033,13.7109502 C8.52871898,13.9176358 8.54249706,14.1337377 8.58332939,14.3002401 L8.86514985,14.4811701 L19.6831452,14.4811701 Z" id="Fill-1" stroke="#4A4A4A" stroke-width="1.1" mask="url(#mask-4)"></path>
                            </g>
                        </g>
                    </g>
                </g>
            </g>
        </g>
    </g>
</svg>