<?xml version="1.0" encoding="UTF-8"?>
<svg width="38px" height="32px" viewBox="0 0 38 32" version="1.1" xmlns="http://www.w3.org/2000/svg" xmlns:xlink="http://www.w3.org/1999/xlink">
    <!-- Generator: Sketch 50.2 (55047) - http://www.bohemiancoding.com/sketch -->
    <title>chat</title>
    <desc>Created with Sketch.</desc>
    <defs></defs>
    <g id="Page-1" stroke="none" stroke-width="1" fill="none" fill-rule="evenodd">
        <g id="2-chat-default" transform="translate(-839.000000, -374.000000)" fill="#428BCA">
            <g id="left" transform="translate(755.000000, 317.000000)">
                <g id="mode" transform="translate(22.000000, 50.000000)">
                    <g id="contact" transform="translate(67.000000, 11.000000)">
                        <g id="Group-3">
                            <path d="M1.2619814,21.9635033 L0.210121602,21.2768411 L0.146137339,21.0776391 C0.115665236,20.9816258 -0.153969957,20.1026093 0.125894134,19.1927053 L0.152825465,19.0999702 L0.210264664,19.0210033 C0.860872675,18.1145232 2.48583691,17.2047649 4.20872675,16.243394 C5.78658798,15.3609536 8.16680973,14.0287881 8.18022175,13.3215099 L8.18354793,12.6519305 C6.67989986,11.1720662 5.85393419,9.15666225 5.85393419,6.94548013 C5.85393419,3.5256457 6.49449213,0.0269536424 11.2517167,0.0269536424 C16.0087625,0.0269536424 16.6493562,3.5256457 16.6493562,6.94548013 C16.6493562,9.15666225 15.8233906,11.1754901 14.3197067,12.6519305 L14.3230687,13.3351689 C14.3364807,14.0322119 16.7201717,15.3643775 18.2945637,16.2468179 C20.0140916,17.2117583 21.642382,18.118202 22.2898069,19.0245364 L22.3470672,19.1035033 L22.3773963,19.1962748 C22.6538627,20.1095662 22.3874464,20.9851589 22.3571173,21.0846325 L22.293133,21.2838344 L21.2345851,21.963649 L1.2619814,21.9635033 Z" id="Fill-1"></path>
                        </g>
                        <polygon id="Fill-4" points="18.57103 7.20984437 24.9835122 7.20984437 24.9835122 6.01838411 18.57103 6.01838411"></polygon>
                        <polygon id="Fill-5" points="19.7441702 11.3574636 24.9833691 11.3574636 24.9833691 10.1660033 19.7441702 10.1660033"></polygon>
                        <polygon id="Fill-6" points="21.483834 15.5085066 24.9834049 15.5085066 24.9834049 14.3274272 21.483834 14.3274272"></polygon>
                    </g>
                </g>
            </g>
        </g>
    </g>
</svg>