<?xml version="1.0" encoding="UTF-8"?>
<svg width="14px" height="11px" viewBox="0 0 14 11" version="1.1" xmlns="http://www.w3.org/2000/svg" xmlns:xlink="http://www.w3.org/1999/xlink">
    <!-- Generator: Sketch 50.2 (55047) - http://www.bohemiancoding.com/sketch -->
    <title>Shape</title>
    <desc>Created with Sketch.</desc>
    <defs></defs>
    <g id="Page-1" stroke="none" stroke-width="1" fill="none" fill-rule="evenodd">
        <g id="2-chat-default" transform="translate(-972.000000, -341.000000)" fill="#4A4A4A">
            <g id="right" transform="translate(959.000000, 317.000000)">
                <path d="M26.4400622,33.9674055 L13.5599378,33.9674055 C13.2504166,33.9674055 13,34.1983051 13,34.4837027 C13,34.7691004 13.2504166,35 13.5599378,35 L26.4400622,35 C26.7495834,35 27,34.7691004 27,34.4837027 C27,34.1983051 26.748028,33.9674055 26.4400622,33.9674055 Z M13.5910454,30.4537158 L22.3805133,30.4537158 C22.6900344,30.4537158 22.9404511,30.2228162 22.9404511,29.9374185 C22.9404511,29.6520209 22.6900344,29.4211213 22.3805133,29.4211213 L13.5910454,29.4211213 C13.2815243,29.4211213 13.0311077,29.6520209 13.0311077,29.9374185 C13.0311077,30.2228162 13.2815243,30.4537158 13.5910454,30.4537158 Z M13.5599378,25.0325945 L26.3934007,25.0325945 C26.7029219,25.0325945 26.9533385,24.8016949 26.9533385,24.5162973 C26.9533385,24.2308996 26.7029219,24 26.3934007,24 L13.5599378,24 C13.2504166,24 13,24.2308996 13,24.5162973 C13,24.8016949 13.2504166,25.0325945 13.5599378,25.0325945 Z M24.911121,28.0271186 C24.8022442,27.9281617 24.6607044,27.8794003 24.5191645,27.8794003 C24.3745139,27.8794003 24.2298633,27.93103 24.1194312,28.0342894 C23.903233,28.23794 23.9047884,28.5649283 24.1256527,28.7642764 L25.6094878,30.1095176 L24.1520942,31.3758801 C23.9265637,31.5709257 23.915676,31.897914 24.1287635,32.105867 C24.3402955,32.3138201 24.6949228,32.322425 24.9204533,32.1273794 L26.7993556,30.4924381 C26.9097878,30.3963494 26.9735585,30.2629726 26.9751139,30.122425 C26.9766693,29.9818774 26.9160093,29.8470665 26.8071325,29.7481095 L24.911121,28.0271186 Z" id="Shape" transform="translate(20.000000, 29.500000) scale(-1, -1) translate(-20.000000, -29.500000) "></path>
            </g>
        </g>
    </g>
</svg>