<?xml version="1.0" encoding="UTF-8"?>
<svg width="15px" height="16px" viewBox="0 0 15 16" version="1.1" xmlns="http://www.w3.org/2000/svg" xmlns:xlink="http://www.w3.org/1999/xlink">
    <!-- Generator: Sketch 50.2 (55047) - http://www.bohemiancoding.com/sketch -->
    <title>attachment</title>
    <desc>Created with Sketch.</desc>
    <defs></defs>
    <g id="Page-1" stroke="none" stroke-width="1" fill="none" fill-rule="evenodd">
        <g id="2-chat-default" transform="translate(-1275.000000, -815.000000)" fill="#000000" fill-rule="nonzero">
            <g id="right" transform="translate(959.000000, 317.000000)">
                <g id="input" transform="translate(1.000000, 443.000000)">
                    <g id="attachment" transform="translate(315.000000, 55.000000)">
                        <rect id="Rectangle-path" opacity="0" x="0" y="0" width="16" height="16"></rect>
                        <path d="M10.40352,5.11008 L9.3888,4.09568 L4.3136,9.16992 C3.47264,10.01056 3.47264,11.37376 4.3136,12.2144 C5.15456,13.05504 6.51776,13.05504 7.3584,12.2144 L13.44864,6.12512 C14.85056,4.72416 14.85056,2.45216 13.44864,1.0512 C12.04768,-0.3504 9.77504,-0.3504 8.37408,1.0512 L1.97984,7.44448 C1.97536,7.44928 1.97024,7.45344 1.96608,7.4576 C0.01152,9.41216 0.01152,12.58048 1.96608,14.5344 C3.92,16.48832 7.08896,16.48832 9.04416,14.5344 C9.04832,14.53024 9.05216,14.52544 9.05696,14.52064 L9.0576,14.52128 L13.42208,10.15744 L12.40672,9.14304 L8.04224,13.50656 C8.03776,13.51072 8.03328,13.51552 8.02912,13.51968 C6.63744,14.91136 4.37312,14.91136 2.98112,13.51968 C1.58944,12.12832 1.58944,9.86464 2.98112,8.47328 C2.98592,8.46848 2.9904,8.46432 2.99488,8.46016 L2.99424,8.4592 L9.38912,2.06592 C10.22848,1.22624 11.59456,1.22624 12.43424,2.06592 C13.2736,2.9056 13.2736,4.27136 12.43424,5.1104 L6.344,11.19936 C6.06368,11.47936 5.60864,11.47936 5.32896,11.19936 C5.04928,10.92 5.04928,10.46464 5.32896,10.18496 L10.40416,5.1104 L10.40352,5.11008 Z" id="Shape"></path>
                    </g>
                </g>
            </g>
        </g>
    </g>
</svg>