<?xml version="1.0" encoding="UTF-8"?>
<svg width="38px" height="32px" viewBox="0 0 38 32" version="1.1" xmlns="http://www.w3.org/2000/svg" xmlns:xlink="http://www.w3.org/1999/xlink">
    <!-- Generator: Sketch 50.2 (55047) - http://www.bohemiancoding.com/sketch -->
    <title>chat</title>
    <desc>Created with Sketch.</desc>
    <defs></defs>
    <g id="Page-1" stroke="none" stroke-width="1" fill="none" fill-rule="evenodd">
        <g id="2-chat-default" transform="translate(-905.000000, -374.000000)">
            <g id="left" transform="translate(755.000000, 317.000000)">
                <g id="mode" transform="translate(22.000000, 50.000000)">
                    <g id="course-group" transform="translate(112.000000, 0.000000)">
                        <g id="Group-4">
                            <path d="M46.4240723,19.6098633 C41.5559082,18.3370768 38.1651204,18.6831868 36.251709,20.6481934 C35.3759672,21.5475495 35.9500441,25.5078482 35.4379883,27.2873535 C35.1519099,28.2815382 33.64995,28.5829239 32.6560059,30.0959473 C32.381732,30.5134584 32.1889423,31.3714499 32.0776367,32.6699219 L0.768496132,30.4785711 L5.91459139,0.492109819 L39.3536025,3.77258301 L49.2411146,8.07456277 L46.4240723,19.6098633 Z" id="Path-3"></path>
                            <path d="M42.3790997,10.9375 L35.8287554,10.9375 C34.2990351,10.9375 32.9394999,11.6550658 32.0851981,12.7645088 C31.2307129,11.6579964 29.8713245,10.9375 28.3416409,10.9375 L21.7881036,10.9375 C20.7575977,10.9375 19.9148936,11.7551705 19.9148936,12.7615782 L19.9148936,29.6218374 C19.9148936,30.6253145 20.7545882,31.4459156 21.7881036,31.4459156 L28.6703766,31.4459156 C29.5894933,32.3208041 30.8108105,32.8125 32.0851981,32.8125 C33.3594022,32.8125 34.5809029,32.3208041 35.4998728,31.4459156 L42.3821092,31.4459156 C43.4126151,31.4459156 44.2553191,30.6282451 44.2553191,29.6218374 L44.2553191,12.7587905 C44.2524564,11.7551705 43.4126151,10.9375 42.3790997,10.9375 Z" id="Fill-1" fill="#428BCA"></path>
                            <path d="M43.1489362,29.355758 C43.1489362,29.8435167 42.7397378,30.2411044 42.2379556,30.2411044 L35.320969,30.2411044 C35.0282845,30.2411044 34.7475836,30.3659651 34.5565547,30.5865125 C33.926275,31.3065753 33.02739,31.71875 32.0866557,31.71875 C31.1457346,31.71875 30.2468497,31.3065753 29.6167193,30.5865125 C29.4255411,30.3687954 29.1448402,30.2411044 28.8521557,30.2411044 L21.9322945,30.2411044 C21.430475,30.2411044 21.0212766,29.8435167 21.0212766,29.355758 L21.0212766,12.9167053 C21.0212766,12.4289828 21.430475,12.03125 21.9322945,12.03125 L28.0607501,12.03125 C29.7241987,12.03125 31.4175878,13.3549697 31.4175878,14.983457 L31.4175878,23.3497065 C31.4175878,24.4527336 32.752625,24.4527336 32.752625,23.3497065 L32.752625,14.9864324 C32.752625,13.3579452 34.446014,12.0342255 36.1094626,12.0342255 L42.2379556,12.0342255 C42.7397378,12.0342255 43.1489362,12.4319582 43.1489362,12.9195356 L43.1489362,29.355758 Z" id="Path" fill="#97C8F2"></path>
                        </g>
                        <g id="Group-2" transform="translate(25.446809, 17.500000)">
                            <g id="Group">
                                <path d="M17.6731715,2.52853262 C17.4681054,2.62713645 16.9884962,3.40652532 16.2343438,4.86669922 C15.4801915,6.32687312 15.4801915,7.95420602 16.2343438,9.74869792 C15.3214468,10.5279582 14.5849017,11.2200155 14.0247084,11.8248698 C13.1844186,12.7321513 13.0644736,12.2238471 12.163586,13.5865885 C11.5629942,14.4950828 11.342486,15.390588 11.5020612,16.2731039 C4.65563493,15.4058718 0.902986771,14.1274651 0.244116699,12.4378838 C-0.414753373,10.7483026 1.38486952,7.01844583 5.64298537,1.24831364 L12.163586,0.186183535 L17.8956006,0.623051874 L17.6731715,2.52853262 Z" id="Path-2"></path>
                                <path d="M17.9026624,14.9999269 L7.71908391,14.9999269 L7.18276057,14.655605 L7.1501362,14.5557166 C7.13459906,14.5075715 6.99711719,14.0667949 7.13981458,13.61053 L7.15354635,13.5640286 L7.18283351,13.5244312 C7.51456618,13.0698832 8.3431046,12.6136914 9.22157342,12.1316188 C10.0260949,11.6891253 11.2397248,11.0211204 11.2465633,10.6664608 L11.2482593,10.3307049 C10.4815777,9.5886375 10.0604335,8.5780275 10.0604335,7.46924594 C10.0604335,5.75439427 10.3870418,4 12.8126603,4 C15.2381876,4 15.5648142,5.75439427 15.5648142,7.46924594 C15.5648142,8.5780275 15.14367,9.59035436 14.3769702,10.3307049 L14.3786844,10.67331 C14.3855229,11.0228372 15.6009217,11.6908422 16.4036743,12.1333357 C17.2804289,12.6171982 18.1106633,13.0717279 18.4407729,13.5262029 L18.4699689,13.5658003 L18.4854331,13.6123199 C18.6263981,14.0702834 18.4905574,14.5093431 18.4750932,14.5592234 L18.4424689,14.6591118 L17.9027354,15 L17.9026624,14.9999269 Z" id="Fill-1" fill="#428BCA"></path>
                            </g>
                            <path d="M25.0698372,15.25414 L13.6999768,15.25414 L13.1011773,14.8793622 L13.0647525,14.7706385 C13.0474055,14.7182348 12.8939084,14.2384707 13.0532286,13.7418484 L13.0685599,13.6912339 L13.1012588,13.6481341 C13.4716349,13.1533805 14.3966895,12.6568377 15.3774908,12.1321249 C16.2757308,11.6504921 17.630736,10.9234009 17.6383712,10.5373711 L17.6402647,10.171917 C16.7842726,9.36421242 16.3140694,8.26421217 16.3140694,7.05735691 C16.3140694,5.19082356 16.6787243,3.28125 19.3869023,3.28125 C22.0949786,3.28125 22.4596538,5.19082356 22.4596538,7.05735691 C22.4596538,8.26421217 21.9894506,9.36608114 21.1334382,10.171917 L21.135352,10.5448261 C21.1429872,10.9252697 22.4999674,11.6523608 23.3962324,12.1339936 C24.3751199,12.6606546 25.302068,13.1553884 25.670632,13.6500624 L25.703229,13.6931623 L25.7204947,13.7437967 C25.8778806,14.2422678 25.7262159,14.7201632 25.7089503,14.7744555 L25.6725256,14.8831792 L25.0699187,15.2542195 L25.0698372,15.25414 Z" id="Fill-1" fill="#428BCA"></path>
                        </g>
                    </g>
                </g>
            </g>
        </g>
    </g>
</svg>