<?xml version="1.0" encoding="UTF-8"?>
<svg width="15px" height="16px" viewBox="0 0 15 16" version="1.1" xmlns="http://www.w3.org/2000/svg" xmlns:xlink="http://www.w3.org/1999/xlink">
    <!-- Generator: Sketch 50.2 (55047) - http://www.bohemiancoding.com/sketch -->
    <title>icon_call</title>
    <desc>Created with Sketch.</desc>
    <defs></defs>
    <g id="Page-1" stroke="none" stroke-width="1" fill="none" fill-rule="evenodd">
        <g id="2-chat-default" transform="translate(-1254.000000, -338.000000)" fill="#000000" fill-rule="nonzero">
            <g id="right" transform="translate(959.000000, 317.000000)">
                <g id="icon_call" transform="translate(293.000000, 20.000000)">
                    <rect id="Rectangle-path" opacity="0" x="0" y="0" width="18" height="18"></rect>
                    <path d="M12.7505501,17 C12.027728,17.0000915 11.2505183,16.8639595 10.4418704,16.5899566 C8.56288046,15.9533377 6.67800831,14.6229528 5.1344482,12.8438649 C3.73814202,11.2345347 2.7197442,9.35533854 2.26694196,7.55245459 C1.80793175,5.72493252 1.94416335,4.04706961 2.65024383,2.82543283 C2.65784544,2.8109355 2.66600812,2.79689582 2.67474996,2.78335034 C2.88750439,2.42369977 3.15099049,2.10329445 3.45809532,1.8307376 C3.76836748,1.55530692 4.12071995,1.33100122 4.50539734,1.16393431 C4.52116163,1.15663074 4.53708879,1.15018749 4.55292547,1.14464116 C4.55594801,1.14352457 4.55904294,1.14249951 4.56215598,1.14145615 C5.60978379,0.790280659 6.7573184,1.10585352 7.48544352,1.94495888 L8.14962468,2.71047938 C8.63239898,3.26685047 8.87203051,3.98003785 8.82433949,4.71865044 C8.77672086,5.45724473 8.447499,6.13283427 7.89734191,6.62105699 L7.5784908,6.90404752 C7.14757032,7.28645083 6.62135828,7.51917668 6.05664957,7.57705611 C5.78158007,7.60572126 5.53474511,7.40219139 5.50681827,7.12331942 C5.47889143,6.84444745 5.67980908,6.59548534 5.95553012,6.56724121 C6.31114042,6.53077826 6.64347534,6.38340719 6.91659013,6.14108968 L7.23544124,5.85813577 C7.5840291,5.54874988 7.79262075,5.12058484 7.82284619,4.65251559 C7.85307161,4.18450125 7.70123862,3.73254012 7.39527402,3.37995516 L6.73109286,2.61443466 C6.27371155,2.08718633 5.55507033,1.88596286 4.89586643,2.09895625 C4.61040809,2.22364781 4.34947395,2.39000085 4.11995979,2.59362223 C3.88792987,2.79962322 3.68887641,3.04302069 3.52855496,3.31713346 C3.52790339,3.31812192 3.52732422,3.31916528 3.52676316,3.32019034 C3.52546002,3.32246012 3.52415689,3.3247299 3.52283567,3.32696307 C2.28587361,5.44776289 3.28092365,9.16866731 5.8887808,12.1744257 C7.3171042,13.8206032 9.04728369,15.0469992 10.7606492,15.6275142 C12.3923336,16.1802793 13.8364213,16.0900921 14.8262226,15.3729326 C14.8304759,15.3698757 14.8348015,15.3669103 14.8391272,15.3639267 C14.8479415,15.3579044 14.8544752,15.3537675 14.8606108,15.3491365 C14.899741,15.3196476 14.9328079,15.2933072 14.965893,15.2670216 C14.9681011,15.2652827 14.9703092,15.2635437 14.9725897,15.2618231 L14.9764267,15.2584367 C14.9809152,15.2543914 14.986725,15.2494308 14.9914489,15.2455502 C15.0120275,15.2286184 15.0318822,15.2108628 15.0518092,15.1931805 C15.4917792,14.8027231 15.8072096,14.2846454 15.9895034,13.6529872 C16.0349139,13.1278805 15.8711536,12.6220303 15.526077,12.2243792 L14.815345,11.4051345 C14.481707,11.0206261 14.02,10.7904995 13.5152535,10.7572033 C13.0101811,10.7239986 12.5231536,10.8913401 12.1429648,11.2287871 L11.8013269,11.5319311 C11.3961433,11.8915816 11.1610003,12.4118009 11.1564213,12.9592943 C11.1550276,13.1177214 11.0807129,13.2663189 10.9553407,13.3612287 C10.8299686,13.45623 10.6680906,13.4864511 10.5173978,13.4431788 C9.26092497,13.081954 8.12361633,12.345721 7.22854549,11.3139405 C6.72305688,10.7313388 6.31845243,10.081687 6.02589925,9.3829054 C5.91784787,9.12477264 6.03717497,8.82695532 6.29240789,8.71767631 C6.54747792,8.6083973 6.8420763,8.72911673 6.95012768,8.98715798 C7.20078154,9.58590443 7.54822917,10.1435019 7.98289615,10.644483 C8.61529535,11.3734124 9.38606186,11.9294907 10.236609,12.2748453 C10.3771663,11.6958862 10.6898275,11.1679789 11.1394443,10.7690098 L11.4810822,10.4658109 C12.0627678,9.94958204 12.8087748,9.69338958 13.5805911,9.74433153 C14.3528236,9.7953467 15.0592117,10.1473825 15.5696776,10.735677 L16.2804095,11.5548852 C16.8141508,12.1699411 17.070361,12.9893506 16.9833046,13.8029758 C16.9803725,13.8308173 16.9750514,13.8584024 16.9676308,13.8854201 C16.7338814,14.728461 16.3119562,15.4252108 15.7136013,15.9561749 C15.6865613,15.980209 15.6595394,16.0040783 15.6317574,16.0271239 C15.6147623,16.0419873 15.5981836,16.0559538 15.5809533,16.0690783 C15.5424023,16.0997203 15.5037789,16.1302892 15.4643954,16.1598512 C15.4486311,16.172152 15.4266588,16.1874364 15.4041255,16.2028124 C14.6698105,16.7326233 13.7638078,17 12.7505501,17 Z" id="Shape"></path>
                </g>
            </g>
        </g>
    </g>
</svg>