<?xml version="1.0" encoding="UTF-8"?>
<svg width="81px" height="21px" viewBox="0 0 81 21" version="1.1" xmlns="http://www.w3.org/2000/svg" xmlns:xlink="http://www.w3.org/1999/xlink">
    <!-- Generator: Sketch 49.3 (51167) - http://www.bohemiancoding.com/sketch -->
    <title>Group 29</title>
    <desc>Created with Sketch.</desc>
    <defs></defs>
    <g id="Page-1" stroke="none" stroke-width="1" fill="none" fill-rule="evenodd">
        <g id="detail" transform="translate(-1076.000000, -589.000000)" fill="#5E8DD4">
            <g id="detail-top" transform="translate(0.000000, 63.000000)">
                <g id="Group-3" transform="translate(968.000000, 308.000000)">
                    <g id="Group-20" transform="translate(0.000000, 43.000000)">
                        <g id="Group-2" transform="translate(40.000000, 144.000000)">
                            <g id="Group-29" transform="translate(68.000000, 31.000000)">
                                <path d="M2.88,1.44 C2.08470996,1.44 1.44,2.08470996 1.44,2.88 L1.44,17.28 C1.44,18.07529 2.08470996,18.72 2.88,18.72 L77.76,18.72 C78.55529,18.72 79.2,18.07529 79.2,17.28 L79.2,2.88 C79.2,2.08470996 78.55529,1.44 77.76,1.44 L2.88,1.44 Z M2.88,0 L77.76,0 C79.3505801,-2.9218482e-16 80.64,1.28941992 80.64,2.88 L80.64,17.28 C80.64,18.8705801 79.3505801,20.16 77.76,20.16 L2.88,20.16 C1.28941992,20.16 -4.69019143e-15,18.8705801 -4.88498131e-15,17.28 L-7.88860905e-31,2.88 C-1.9478988e-16,1.28941992 1.28941992,2.9218482e-16 2.88,0 Z" id="Rectangle-7" fill-rule="nonzero"></path>
                                <path d="M17.93248,15 L16.024,15 L16.024,5.43072 L17.93248,5.43072 L17.93248,15 Z M24.97504,15 L23.3488,15 L21.31936,10.32288 L21.31936,15 L19.41088,15 L19.41088,5.43072 L21.07744,5.43072 L23.06656,10.10784 L23.06656,5.43072 L24.97504,5.43072 L24.97504,15 Z M34.12768,8.46816 C34.12768,10.34976 33.50944,11.54592 31.43968,11.54592 L30.64672,11.54592 L30.64672,15 L28.73824,15 L28.73824,5.43072 L31.43968,5.43072 C33.50944,5.43072 34.12768,6.6 34.12768,8.46816 Z M32.2192,8.4816 C32.2192,7.8768 32.17888,7.15104 31.45312,7.15104 L30.64672,7.15104 L30.64672,9.8256 L31.45312,9.8256 C32.17888,9.8256 32.2192,9.0864 32.2192,8.4816 Z M39.69184,15 L35.28352,15 L35.28352,5.43072 L39.69184,5.43072 L39.69184,7.15104 L37.192,7.15104 L37.192,9.31488 L39.3424,9.31488 L39.3424,11.0352 L37.192,11.0352 L37.192,13.27968 L39.69184,13.27968 L39.69184,15 Z M46.55968,15 L44.57056,15 L43.40128,11.27712 L42.7696,11.27712 L42.7696,15 L40.86112,15 L40.86112,5.43072 L43.58944,5.43072 C45.67264,5.43072 46.25056,6.51936 46.25056,8.3472 C46.25056,9.36864 46.08928,10.28256 45.16192,10.86048 L46.55968,15 Z M44.34208,8.3472 C44.34208,7.79616 44.30176,7.15104 43.576,7.15104 L42.7696,7.15104 L42.7696,9.5568 L43.576,9.5568 C44.30176,9.5568 44.34208,8.89824 44.34208,8.3472 Z M52.72864,12.27168 C52.72864,13.23936 52.60768,13.91136 52.1104,14.3952 C51.68032,14.81184 50.95456,15.10752 50.0272,15.10752 C49.0864,15.10752 48.38752,14.83872 47.95744,14.40864 C47.48704,13.93824 47.32576,13.26624 47.32576,12.28512 L49.23424,12.28512 C49.23424,12.67488 49.26112,12.95712 49.43584,13.15872 C49.54336,13.27968 49.73152,13.3872 50.0272,13.3872 C50.32288,13.3872 50.51104,13.30656 50.632,13.14528 C50.7664,12.984 50.82016,12.72864 50.82016,12.33888 C50.82016,11.42496 50.67232,11.26368 49.98688,10.98144 L48.77728,10.48416 C47.8096,10.08096 47.4064,9.57024 47.4064,8.0784 C47.4064,7.19136 47.68864,6.45216 48.26656,5.95488 C48.72352,5.56512 49.30144,5.35008 50.0272,5.35008 C50.87392,5.35008 51.49216,5.56512 51.9088,5.95488 C52.43296,6.43872 52.648,7.2048 52.648,8.17248 L50.73952,8.17248 C50.73952,7.83648 50.73952,7.52736 50.57824,7.31232 C50.47072,7.16448 50.30944,7.0704 50.0272,7.0704 C49.7584,7.0704 49.58368,7.17792 49.47616,7.32576 C49.3552,7.48704 49.31488,7.68864 49.31488,8.0112 C49.31488,8.616 49.4224,8.79072 49.97344,9.0192 L51.1696,9.50304 C52.3792,9.98688 52.72864,10.53792 52.72864,12.27168 Z M59.26048,10.21536 C59.26048,11.5056 59.31424,13.23936 58.54816,14.15328 C58.10464,14.67744 57.51328,15.10752 56.43808,15.10752 C55.36288,15.10752 54.7984,14.67744 54.35488,14.15328 C53.5888,13.23936 53.64256,11.5056 53.64256,10.21536 C53.64256,8.92512 53.5888,7.19136 54.35488,6.27744 C54.7984,5.75328 55.36288,5.3232 56.43808,5.3232 C57.51328,5.3232 58.10464,5.75328 58.54816,6.27744 C59.31424,7.19136 59.26048,8.92512 59.26048,10.21536 Z M57.352,10.21536 C57.352,9.05952 57.32512,7.86336 57.09664,7.41984 C56.98912,7.2048 56.78752,7.04352 56.43808,7.04352 C56.08864,7.04352 55.91392,7.2048 55.8064,7.41984 C55.57792,7.86336 55.55104,9.05952 55.55104,10.21536 C55.55104,11.3712 55.57792,12.56736 55.8064,13.01088 C55.91392,13.22592 56.08864,13.3872 56.43808,13.3872 C56.78752,13.3872 56.98912,13.22592 57.09664,13.01088 C57.32512,12.56736 57.352,11.3712 57.352,10.21536 Z M66.0208,15 L64.39456,15 L62.36512,10.32288 L62.36512,15 L60.45664,15 L60.45664,5.43072 L62.1232,5.43072 L64.11232,10.10784 L64.11232,5.43072 L66.0208,5.43072 L66.0208,15 Z" id="in-Person"></path>
                            </g>
                        </g>
                    </g>
                </g>
            </g>
        </g>
    </g>
</svg>