<?xml version="1.0" encoding="UTF-8"?>
<svg width="24px" height="24px" viewBox="0 0 24 24" version="1.1" xmlns="http://www.w3.org/2000/svg" xmlns:xlink="http://www.w3.org/1999/xlink">
    <!-- Generator: Sketch 49.3 (51167) - http://www.bohemiancoding.com/sketch -->
    <title>预告</title>
    <desc>Created with Sketch.</desc>
    <defs></defs>
    <g id="Page-1" stroke="none" stroke-width="1" fill="none" fill-rule="evenodd">
        <g id="detail" transform="translate(-1148.000000, -445.000000)">
            <g id="detail-top" transform="translate(0.000000, 63.000000)">
                <g id="Group-3" transform="translate(968.000000, 308.000000)">
                    <g id="Group-20" transform="translate(0.000000, 43.000000)">
                        <g id="预告" transform="translate(180.000000, 31.000000)">
                            <g>
                                <circle id="Oval-5" fill="#5E8DD4" cx="12" cy="12" r="12"></circle>
                                <g transform="translate(5.538462, 6.461538)" fill="#FFFFFF" id="直播预告">
                                    <path d="M11.5351622,3.47114793 C10.944782,2.13286898 9.83826017,1.0622891 8.44440421,0.480716822 C8.82931094,0.185332206 9.30796501,0.0236145393 9.80184931,0.022194421 C10.6473605,0.0361386306 11.4122578,0.50454776 11.7780099,1.23240575 C12.1437619,1.96031784 12.0477478,2.82296534 11.5299627,3.46122063 L11.5351622,3.47114793 Z M11.4464018,5.82364835 C11.4475069,7.16007439 10.9154408,8.44679628 9.95845852,9.42217413 L10.7206923,10.154847 C10.8247962,10.2558648 10.8829544,10.3919527 10.8825719,10.5336534 C10.8839603,10.6759358 10.8257312,10.8128757 10.7208056,10.9139341 C10.61588,11.01506 10.4729851,11.0719053 10.3239414,11.0719053 C10.1763428,11.0707422 10.0353889,11.0133153 9.93234754,10.9124057 L9.11786348,10.1249434 C7.25742428,11.385508 4.76546206,11.385508 2.90496619,10.1249434 L2.0957525,10.9174235 C1.99109606,11.0190228 1.84820114,11.0765038 1.69894494,11.0769231 C1.54847033,11.0769231 1.40424364,11.0194962 1.29838296,10.9174776 C1.19245144,10.815459 1.13368402,10.6772477 1.13505828,10.5336534 C1.13583751,10.3897346 1.19588001,10.2519019 1.30213739,10.1498292 L2.05917163,9.42217413 C0.57156832,7.90167371 0.163029949,5.68681657 1.01701342,3.77265934 C1.87105356,1.85851564 3.82702523,0.605024514 6.00619406,0.575445478 C9.0260571,0.591878276 11.4608954,2.94082164 11.4464018,5.82364835 Z M6.00619406,1.65696703 C4.23628615,1.6367743 2.62875368,2.63899915 1.93669229,4.19431276 C1.24464506,5.74957227 1.60508426,7.54987658 2.84917399,8.75190533 C4.09327788,9.95393407 5.9746427,10.3196348 7.61199807,9.67772781 C9.24941011,9.03582079 10.3185719,7.51346746 10.3186852,5.82364835 C10.3256557,4.72516653 9.8751669,3.66905833 9.06644908,2.88768216 C8.25767458,2.10623838 7.1568623,1.6635672 6.00619406,1.65696703 Z M7.69275653,6.48373288 L5.89283806,6.48373288 C5.77250956,6.48373288 5.65715603,6.43784122 5.57242292,6.356238 C5.48773514,6.27463478 5.44072793,6.16408152 5.44183851,6.04917926 L5.44183851,3.73293746 C5.42532706,3.5699474 5.50712505,3.41215017 5.65281569,3.32577603 C5.79854032,3.23939108 5.98296544,3.23939108 6.12869007,3.32577603 C6.2744147,3.41215017 6.3561787,3.5699474 6.33971257,3.73293746 L6.33971257,5.61462563 L7.69275653,5.61462563 C7.9441454,5.6146689 8.1479151,5.80922707 8.1479151,6.04917926 C8.1479151,6.2891639 7.9441454,6.48373288 7.69275653,6.48373288 Z M0.487667493,3.54596788 C-0.0493714677,2.89359256 -0.151477725,2.00660017 0.22429087,1.25840068 C0.600059465,0.510255283 1.38847505,0.0309044801 2.2575754,0.022194421 C2.77203113,0.0282671175 3.2683381,0.204402367 3.66200043,0.52060186 C2.24822475,1.11833643 1.12747859,2.20963652 0.529447895,3.57084024 L0.487667493,3.54596788 Z"></path>
                                </g>
                            </g>
                        </g>
                    </g>
                </g>
            </g>
        </g>
    </g>
</svg>