<?xml version="1.0" encoding="UTF-8"?>
<svg width="110px" height="19px" viewBox="0 0 110 19" version="1.1" xmlns="http://www.w3.org/2000/svg" xmlns:xlink="http://www.w3.org/1999/xlink">
    <!-- Generator: Sketch 49.3 (51167) - http://www.bohemiancoding.com/sketch -->
    <title>Logo</title>
    <desc>Created with Sketch.</desc>
    <defs>
        <polygon id="path-1" points="0.118856771 12.9092992 12.4944689 12.9092992 12.4944689 0.147735538 0.118856771 0.147735538 0.118856771 12.9092992"></polygon>
        <polygon id="path-3" points="0.100566638 12.9092992 12.4761788 12.9092992 12.4761788 0.147735538 0.100566638 0.147735538"></polygon>
        <polygon id="path-5" points="0.0295396315 12.9092992 12.4050936 12.9092992 12.4050936 0.147735538 0.0295396315 0.147735538 0.0295396315 12.9092992"></polygon>
    </defs>
    <g id="Symbols" stroke="none" stroke-width="1" fill="none" fill-rule="evenodd">
        <g id="footer" transform="translate(-261.000000, -275.000000)">
            <g transform="translate(0.000000, -2.000000)" id="bottom">
                <g transform="translate(261.000000, 275.000000)">
                    <g id="Logo" transform="translate(0.000000, 2.000000)">
                        <g>
                            <path d="M8.56593067,8.61587509 C9.02328097,8.27643646 9.25215008,7.76689883 9.25215008,7.08726219 C9.25215008,6.40800525 9.02328097,5.89448092 8.56593067,5.5470689 C8.10819245,5.19965688 7.63493768,5.02595087 7.14616637,5.02595087 L4.18832408,5.02595087 L4.18832408,9.12541272 L7.16982911,9.12541272 C7.64308387,9.12541272 8.10819245,8.95569341 8.56593067,8.61587509 M12.8015608,4.35428762 C13.2115857,5.17288906 13.416792,6.08375403 13.416792,7.08726219 C13.416792,8.09115005 13.2115857,8.99802831 12.8015608,9.80865636 C12.3911481,10.6192844 11.8628096,11.2641798 11.2161574,11.7425833 C9.90656056,12.730904 8.5500262,13.2248746 7.14616637,13.2248746 L4.18832408,13.2248746 L4.18832408,15.8420451 C4.18832408,16.1974306 4.17649271,16.4637798 4.15282997,16.6410928 C4.12916723,16.8187855 4.05410592,17.023246 3.92803396,17.254854 C3.70692312,17.6717485 3.09169193,17.8801957 2.08234037,17.8801957 C0.977949941,17.8801957 0.331297732,17.5946723 0.141995826,17.023246 C0.0473448723,16.7608835 1.93956871e-05,16.3595562 1.93956871e-05,15.8188843 L1.93956871e-05,2.96463954 C1.93956871e-05,2.60963381 0.0118507648,2.34328459 0.0355135032,2.16559189 C0.0591762415,1.98827887 0.133849637,1.78343866 0.260309517,1.55183065 C0.481032437,1.13493622 1.09626363,0.92648901 2.10600311,0.92648901 L7.16982911,0.92648901 C8.55778448,0.92648901 9.90656056,1.42083923 11.2161574,2.4087803 C11.8628096,2.88756343 12.3911481,3.53606587 12.8015608,4.35428762" id="Fill-1" fill="#1F345D"></path>
                            <g id="Group-5" transform="translate(13.770938, 5.295110)">
                                <mask id="mask-2" fill="white">
                                    <use xlink:href="#path-1"></use>
                                </mask>
                                <g id="Clip-4"></g>
                                <path d="M7.50163112,5.72948869 C8.10095786,5.72948869 8.40081518,5.48269326 8.40081518,4.98834304 C8.40081518,4.63333731 8.26252393,4.34781399 7.98671726,4.13139339 C7.71052268,3.91535247 7.3160144,3.80714217 6.80358034,3.80714217 C6.29075838,3.80714217 5.7820095,4.01198237 5.27733372,4.4209034 C4.77227003,4.83020412 4.5201261,5.26627266 4.5201261,5.72948869 L7.50163112,5.72948869 Z M12.4944689,5.04624504 C12.4944689,5.9958379 12.2537684,6.69863534 11.7727554,7.15387797 C11.2913544,7.6095003 10.7589428,7.83712162 10.1755206,7.83712162 L4.56745157,7.83712162 C4.56745157,8.26958314 4.8277417,8.63256226 5.34832194,8.92567928 C5.86890218,9.219176 6.38948242,9.36573451 6.91006267,9.36573451 C7.82495723,9.36573451 8.54279161,9.27309131 9.06337185,9.08780489 L9.32366198,8.99516169 C9.70226579,8.82544237 10.0176397,8.74039287 10.2701715,8.74039287 C10.7748473,8.74039287 11.2085349,9.08780489 11.5716221,9.78262894 C11.7766345,10.1995234 11.8792377,10.5549088 11.8792377,10.8480258 C11.8792377,12.2224865 10.1991833,12.9093371 6.83907445,12.9093371 C5.67145409,12.9093371 4.63436669,12.7124703 3.72742436,12.3187367 C2.82009412,11.9250031 2.11428506,11.403885 1.60960928,10.7553826 C0.615774275,9.50469932 0.118856771,8.10745753 0.118856771,6.56327754 C0.118856771,4.61777022 0.761629843,3.06238951 2.04736994,1.89637605 C3.33291609,0.73074227 4.9379092,0.147735538 6.86273719,0.147735538 C9.05522567,0.147735538 10.6642919,0.904448281 11.6899358,2.41749408 C12.2260326,3.22052842 12.4944689,4.09665218 12.4944689,5.04624504 Z" id="Fill-3" fill="#1F345D" mask="url(#mask-2)"></path>
                            </g>
                            <g id="Group-8" transform="translate(27.347919, 5.295110)">
                                <mask id="mask-4" fill="white">
                                    <use xlink:href="#path-3"></use>
                                </mask>
                                <g id="Clip-7"></g>
                                <path d="M7.48334099,5.72948869 C8.08266772,5.72948869 8.38252505,5.48269326 8.38252505,4.98834304 C8.38252505,4.63333731 8.2442338,4.34781399 7.96842713,4.13139339 C7.69223254,3.91535247 7.29772427,3.80714217 6.78529021,3.80714217 C6.27246824,3.80714217 5.76371937,4.01198237 5.25904359,4.4209034 C4.7539799,4.83020412 4.50183596,5.26627266 4.50183596,5.72948869 L7.48334099,5.72948869 Z M12.4761788,5.04624504 C12.4761788,5.9958379 12.2354783,6.69863534 11.7544653,7.15387797 C11.2730643,7.6095003 10.7406527,7.83712162 10.1572304,7.83712162 L4.54916144,7.83712162 C4.54916144,8.26958314 4.80945156,8.63256226 5.33003181,8.92567928 C5.85061205,9.219176 6.37119229,9.36573451 6.89177253,9.36573451 C7.8066671,9.36573451 8.52450148,9.27309131 9.04508172,9.08780489 L9.30537184,8.99516169 C9.68397566,8.82544237 9.99934953,8.74039287 10.2518814,8.74039287 C10.7565572,8.74039287 11.1902447,9.08780489 11.553332,9.78262894 C11.7583444,10.1995234 11.8609476,10.5549088 11.8609476,10.8480258 C11.8609476,12.2224865 10.1808932,12.9093371 6.82078432,12.9093371 C5.65316395,12.9093371 4.61607656,12.7124703 3.70913423,12.3187367 C2.80180399,11.9250031 2.09599493,11.403885 1.59131915,10.7553826 C0.597484142,9.50469932 0.100566638,8.10745753 0.100566638,6.56327754 C0.100566638,4.61777022 0.74333971,3.06238951 2.02907981,1.89637605 C3.31462595,0.73074227 4.91961907,0.147735538 6.84444706,0.147735538 C9.03693553,0.147735538 10.6460017,0.904448281 11.6716457,2.41749408 C12.2077425,3.22052842 12.4761788,4.09665218 12.4761788,5.04624504 Z" id="Fill-6" fill="#1F345D" mask="url(#mask-4)" transform="translate(6.288373, 6.528536) scale(-1, 1) translate(-6.288373, -6.528536) "></path>
                            </g>
                            <path d="M49.8334747,5.83655993 C50.1329442,5.92920314 50.3814029,6.08772174 50.578851,6.31135636 C50.7759112,6.53537067 50.8746352,6.89436309 50.8746352,7.38833363 C50.8746352,7.88268385 50.7245126,8.42297599 50.4250432,9.00958973 C50.1251859,9.59658316 49.6914983,9.88970018 49.1235926,9.88970018 C48.8396397,9.88970018 48.5675182,9.82819117 48.3072281,9.70441377 C48.046938,9.58101606 47.7038283,9.51912736 47.277899,9.51912736 C46.8519697,9.51912736 46.4533883,9.66606556 46.0829307,9.95918259 C45.7120852,10.2526793 45.5268564,10.607685 45.5268564,11.0245795 L45.5268564,15.8883478 C45.5268564,16.2437332 45.515025,16.5100824 45.4913623,16.6873954 C45.4676995,16.8650881 45.3926382,17.0695486 45.2665663,17.3011566 C45.0299389,17.7028637 44.4147077,17.9033375 43.4208727,17.9033375 C42.663665,17.9033375 42.1194221,17.7723461 41.7881437,17.5096039 C41.5356119,17.2935629 41.3936354,16.961718 41.3622144,16.5136894 L41.3622144,15.8420262 L41.3622144,7.71258485 C41.3622144,7.35757912 41.3740458,7.0912299 41.3977085,6.9135372 C41.4213713,6.73622418 41.4882864,6.53935737 41.5988418,6.32293676 C41.8195647,5.90604234 42.4347959,5.69759512 43.4445354,5.69759512 C44.3910449,5.69759512 44.9826134,5.87528783 45.2192408,6.23029356 C45.3926382,6.47746867 45.4795309,6.73223748 45.4795309,6.9946 C45.5582774,6.88676939 45.672518,6.75539828 45.8226406,6.60086638 C45.9723753,6.44671416 46.2918223,6.23826695 46.7809815,5.97552474 C47.2697528,5.71316222 47.6997552,5.58179112 48.0706007,5.58179112 C48.4410584,5.58179112 48.7527471,5.60134491 49.0052789,5.63969312 C49.2574228,5.67842102 49.5336174,5.74391673 49.8334747,5.83655993" id="Fill-9" fill="#1F345D"></path>
                            <path d="M55.0308982,0.903328209 L68.1873807,0.903328209 C68.6920565,0.903328209 69.0629021,0.961230213 69.2995294,1.07703422 C69.5361568,1.19283823 69.6936498,1.37451763 69.7727842,1.62131305 C69.8515307,1.86848816 69.8910979,2.19273938 69.8910979,2.59406671 C69.8910979,2.99577373 69.8515307,3.31603825 69.7727842,3.55523997 C69.6936498,3.79482138 69.5598196,3.960554 69.3705177,4.05319721 C69.0865648,4.19216201 68.6842982,4.26164442 68.163718,4.26164442 L63.644135,4.26164442 L63.644135,15.9115275 C63.644135,16.266913 63.6323036,16.5292755 63.6086409,16.6989948 C63.5849781,16.8690938 63.5139899,17.0659606 63.3956762,17.2895952 C63.2773625,17.5136095 63.0680831,17.6717485 62.7686137,17.7643917 C62.4687563,17.8570349 62.0742481,17.9033565 61.5854768,17.9033565 C61.0963175,17.9033565 60.7058823,17.8570349 60.4141712,17.7643917 C60.1220722,17.6717485 59.9172537,17.5136095 59.79894,17.2895952 C59.6806263,17.0659606 59.6096381,16.8651071 59.5859754,16.6874144 C59.5623126,16.5101014 59.5504813,16.2437522 59.5504813,15.8883667 L59.5504813,4.26164442 L55.0072355,4.26164442 C54.5021718,4.26164442 54.1317142,4.20374241 53.8950868,4.08793841 C53.6584594,3.9721344 53.5005785,3.79083468 53.421832,3.54365957 C53.3426976,3.29686415 53.3035183,2.97261293 53.3035183,2.57090591 C53.3035183,2.16957858 53.3426976,1.84931406 53.421832,1.60973265 C53.5005785,1.37053093 53.6347967,1.20441863 53.8240986,1.11177542 C54.1080514,0.972810613 54.510318,0.903328209 55.0308982,0.903328209" id="Fill-11" fill="#1F345D"></path>
                            <path d="M71.1922188,7.73572667 C71.1922188,7.38072094 71.2040502,7.11437172 71.2277129,6.93667902 C71.2513756,6.759366 71.3182907,6.55452579 71.4288462,6.32291778 C71.6495691,5.92159045 72.2648003,5.72073694 73.2745398,5.72073694 C74.0317474,5.72073694 74.5678442,5.85210804 74.883606,6.11447056 C75.1516544,6.33089117 75.2936308,6.66273609 75.3095352,7.11038503 C75.3250518,7.26491693 75.333198,7.48893124 75.333198,7.78204827 L75.333198,15.8883288 C75.333198,16.2437142 75.3213666,16.5100634 75.2977039,16.6873764 C75.2740411,16.8650691 75.1989798,17.0695296 75.0729079,17.3011377 C74.8677015,17.7028447 74.2602286,17.9033185 73.250877,17.9033185 C72.257042,17.9033185 71.6495691,17.6948713 71.4288462,17.2779769 C71.3182907,17.0463688 71.2513756,16.845895 71.2277129,16.675796 C71.2040502,16.5060767 71.1922188,16.2357408 71.1922188,15.865168 L71.1922188,7.73572667 Z M75.0847392,3.439398 C74.9664255,3.66341231 74.7571461,3.82155122 74.4576767,3.91419443 C74.1578193,4.00683763 73.7596259,4.05315924 73.2627084,4.05315924 C72.7657909,4.05315924 72.3672095,4.00683763 72.0677401,3.91419443 C71.7678828,3.82155122 71.5589912,3.65942561 71.4406775,3.4278176 C71.3223638,3.19620958 71.2513756,2.99174907 71.2277129,2.81405636 C71.2040502,2.63674334 71.1922188,2.37039412 71.1922188,2.01500871 C71.1922188,1.66000298 71.2040502,1.39365377 71.2277129,1.21596106 C71.2513756,1.03864804 71.3182907,0.841781227 71.4288462,0.625360623 C71.6495691,0.208466197 72.2648003,1.89842635e-05 73.2745398,1.89842635e-05 C74.2683748,1.89842635e-05 74.8677015,0.208466197 75.0729079,0.625360623 C75.1989798,0.856968638 75.2740411,1.06180884 75.2977039,1.23912186 C75.3213666,1.41681457 75.333198,1.68316378 75.333198,2.03816951 C75.333198,2.39355492 75.3213666,2.65990414 75.2977039,2.83721716 C75.2740411,3.01490987 75.2030529,3.21576337 75.0847392,3.439398 Z" id="Fill-13" fill="#1F345D"></path>
                            <path d="M83.9698453,5.67445331 C85.5789115,5.67445331 86.777565,6.34611655 87.5665816,7.68944303 C87.739979,7.45783502 87.9488705,7.2146466 88.1936441,6.95987779 C88.4380298,6.70510897 88.828465,6.42717935 89.3649497,6.12608893 C89.9010465,5.82499852 90.4534356,5.67445331 91.0213413,5.67445331 C92.2832248,5.67445331 93.3402897,6.14924974 94.1921483,7.09884259 C95.0440069,8.04843545 95.4699361,9.61976294 95.4699361,11.8120657 L95.4699361,15.8652059 C95.4699361,16.2205914 95.4581048,16.4869406 95.434442,16.6642536 C95.4107793,16.8419463 95.335718,17.0464068 95.209646,17.2780148 C95.0044397,17.6949093 94.3969667,17.9033565 93.3876152,17.9033565 C92.3937802,17.9033565 91.7863072,17.6873155 91.5655843,17.254854 C91.4550289,17.023246 91.3881138,16.8187855 91.3644511,16.6410928 C91.3407883,16.4637798 91.3289569,16.1974306 91.3289569,15.8420451 L91.3289569,11.7889049 C91.3289569,10.4455784 90.8397977,9.77391516 89.8618672,9.77391516 C89.309478,9.77391516 88.9349473,9.95160787 88.7378871,10.3066136 C88.540439,10.661999 88.4421029,11.1635632 88.4421029,11.8120657 L88.4421029,15.8652059 C88.4421029,16.2357788 88.4302715,16.5061147 88.4066088,16.675834 C88.382946,16.845933 88.3078847,17.0464068 88.1818127,17.2780148 C87.9607019,17.6949093 87.3454707,17.9033565 86.3361192,17.9033565 C85.3422841,17.9033565 84.7348112,17.6873155 84.5140883,17.254854 C84.4035329,17.023246 84.3366178,16.8187855 84.312955,16.6410928 C84.2892923,16.4637798 84.2774609,16.1974306 84.2774609,15.8420451 L84.2774609,11.7889049 C84.2774609,10.4455784 83.7883017,9.77391516 82.8103711,9.77391516 C81.8638616,9.77391516 81.3906069,10.4455784 81.3906069,11.7889049 L81.3906069,15.8883667 C81.3906069,16.2437522 81.3787755,16.5101014 81.3551127,16.6874144 C81.33145,16.8651071 81.2563887,17.0695676 81.1303167,17.3011756 C80.8936893,17.7028826 80.2784581,17.9033565 79.2846231,17.9033565 C78.2907881,17.9033565 77.6833152,17.6949093 77.4625923,17.2780148 C77.3522308,17.0464068 77.2851218,16.845933 77.261459,16.675834 C77.2377963,16.5061147 77.2259649,16.2357788 77.2259649,15.8652059 L77.2259649,7.71260383 C77.2259649,7.35759811 77.2377963,7.09124889 77.261459,6.91355618 C77.2851218,6.73624316 77.3597951,6.53937635 77.486255,6.32295575 C77.7228824,5.90606132 78.2826419,5.69761411 79.1663094,5.69761411 C80.049589,5.69761411 80.625253,5.83657892 80.8936893,6.11450853 C81.1617377,6.39243815 81.2959559,6.79414517 81.2959559,7.31887021 C82.0372591,6.22271884 82.9286848,5.67445331 83.9698453,5.67445331 Z" id="Fill-15" fill="#1F345D"></path>
                            <g id="Group-19" transform="translate(96.978436, 5.295110)">
                                <mask id="mask-6" fill="white">
                                    <use xlink:href="#path-5"></use>
                                </mask>
                                <g id="Clip-18"></g>
                                <path d="M7.41231399,5.72948869 C8.01164072,5.72948869 8.31149804,5.48269326 8.31149804,4.98834304 C8.31149804,4.63333731 8.17320679,4.34781399 7.89740012,4.13139339 C7.62120554,3.91535247 7.22669726,3.80714217 6.71426321,3.80714217 C6.20144124,3.80714217 5.69269236,4.01198237 5.18801658,4.4209034 C4.68295289,4.83020412 4.43080896,5.26627266 4.43080896,5.72948869 L7.41231399,5.72948869 Z M12.4051518,5.04624504 C12.4051518,5.9958379 12.1644513,6.69863534 11.6834383,7.15387797 C11.2020373,7.6095003 10.6696257,7.83712162 10.0862034,7.83712162 L4.47813443,7.83712162 C4.47813443,8.26958314 4.73842456,8.63256226 5.2590048,8.92567928 C5.77958504,9.219176 6.30016528,9.36573451 6.82074553,9.36573451 C7.73564009,9.36573451 8.45347447,9.27309131 8.97405471,9.08780489 L9.23434484,8.99516169 C9.61294865,8.82544237 9.92832252,8.74039287 10.1808544,8.74039287 C10.6855301,8.74039287 11.1192177,9.08780489 11.482305,9.78262894 C11.6873174,10.1995234 11.7899206,10.5549088 11.7899206,10.8480258 C11.7899206,12.2224865 10.1098662,12.9093371 6.74975731,12.9093371 C5.58213695,12.9093371 4.54504956,12.7124703 3.63810722,12.3187367 C2.73077698,11.9250031 2.02496792,11.403885 1.52029215,10.7553826 C0.526457136,9.50469932 0.0295396315,8.10745753 0.0295396315,6.56327754 C0.0295396315,4.61777022 0.672312703,3.06238951 1.9580528,1.89637605 C3.24359895,0.73074227 4.84859206,0.147735538 6.77342005,0.147735538 C8.96590853,0.147735538 10.5749747,0.904448281 11.6006187,2.41749408 C12.1367155,3.22052842 12.4051518,4.09665218 12.4051518,5.04624504 Z" id="Fill-17" fill="#1F345D" mask="url(#mask-6)"></path>
                            </g>
                        </g>
                    </g>
                </g>
            </g>
        </g>
    </g>
</svg>