<?xml version="1.0" encoding="UTF-8"?>
<svg width="62px" height="21px" viewBox="0 0 62 21" version="1.1" xmlns="http://www.w3.org/2000/svg" xmlns:xlink="http://www.w3.org/1999/xlink">
    <!-- Generator: Sketch 49.3 (51167) - http://www.bohemiancoding.com/sketch -->
    <title>Group 30</title>
    <desc>Created with Sketch.</desc>
    <defs></defs>
    <g id="Page-1" stroke="none" stroke-width="1" fill="none" fill-rule="evenodd">
        <g id="detail" transform="translate(-1008.000000, -589.000000)" fill="#FFFFFF">
            <g id="detail-top" transform="translate(0.000000, 63.000000)">
                <g id="Group-3" transform="translate(968.000000, 308.000000)">
                    <g id="Group-20" transform="translate(0.000000, 43.000000)">
                        <g id="Group-2" transform="translate(40.000000, 144.000000)">
                            <g id="Group-30" transform="translate(0.000000, 31.000000)">
                                <path d="M2.88,1.44 C2.08470996,1.44 1.44,2.08470996 1.44,2.88 L1.44,17.28 C1.44,18.07529 2.08470996,18.72 2.88,18.72 L59.12,18.72 C59.91529,18.72 60.56,18.07529 60.56,17.28 L60.56,2.88 C60.56,2.08470996 59.91529,1.44 59.12,1.44 L2.88,1.44 Z M2.88,0 L59.12,0 C60.7105801,-2.9218482e-16 62,1.28941992 62,2.88 L62,17.28 C62,18.8705801 60.7105801,20.16 59.12,20.16 L2.88,20.16 C1.28941992,20.16 -6.93388539e-16,18.8705801 -8.8817842e-16,17.28 L0,2.88 C-1.9478988e-16,1.28941992 1.28941992,2.9218482e-16 2.88,0 Z" id="Rectangle-7-Copy-2" fill-rule="nonzero"></path>
                                <path d="M19.07488,10.21536 C19.07488,11.5056 19.12864,13.23936 18.36256,14.15328 C17.91904,14.67744 17.32768,15.10752 16.25248,15.10752 C15.17728,15.10752 14.6128,14.67744 14.16928,14.15328 C13.4032,13.23936 13.45696,11.5056 13.45696,10.21536 C13.45696,8.92512 13.4032,7.19136 14.16928,6.27744 C14.6128,5.75328 15.17728,5.3232 16.25248,5.3232 C17.32768,5.3232 17.91904,5.75328 18.36256,6.27744 C19.12864,7.19136 19.07488,8.92512 19.07488,10.21536 Z M17.1664,10.21536 C17.1664,9.05952 17.13952,7.86336 16.91104,7.41984 C16.80352,7.2048 16.60192,7.04352 16.25248,7.04352 C15.90304,7.04352 15.72832,7.2048 15.6208,7.41984 C15.39232,7.86336 15.36544,9.05952 15.36544,10.21536 C15.36544,11.3712 15.39232,12.56736 15.6208,13.01088 C15.72832,13.22592 15.90304,13.3872 16.25248,13.3872 C16.60192,13.3872 16.80352,13.22592 16.91104,13.01088 C17.13952,12.56736 17.1664,11.3712 17.1664,10.21536 Z M25.8352,15 L24.20896,15 L22.17952,10.32288 L22.17952,15 L20.27104,15 L20.27104,5.43072 L21.9376,5.43072 L23.92672,10.10784 L23.92672,5.43072 L25.8352,5.43072 L25.8352,15 Z M31.72192,15 L27.3136,15 L27.3136,5.43072 L29.22208,5.43072 L29.22208,13.27968 L31.72192,13.27968 L31.72192,15 Z M34.69216,15 L32.78368,15 L32.78368,5.43072 L34.69216,5.43072 L34.69216,15 Z M41.73472,15 L40.10848,15 L38.07904,10.32288 L38.07904,15 L36.17056,15 L36.17056,5.43072 L37.83712,5.43072 L39.82624,10.10784 L39.82624,5.43072 L41.73472,5.43072 L41.73472,15 Z M47.62144,15 L43.21312,15 L43.21312,5.43072 L47.62144,5.43072 L47.62144,7.15104 L45.1216,7.15104 L45.1216,9.31488 L47.272,9.31488 L47.272,11.0352 L45.1216,11.0352 L45.1216,13.27968 L47.62144,13.27968 L47.62144,15 Z" id="online"></path>
                            </g>
                        </g>
                    </g>
                </g>
            </g>
        </g>
    </g>
</svg>