<?xml version="1.0" encoding="UTF-8"?>
<svg width="70px" height="21px" viewBox="0 0 70 21" version="1.1" xmlns="http://www.w3.org/2000/svg" xmlns:xlink="http://www.w3.org/1999/xlink">
    <!-- Generator: Sketch 49.3 (51167) - http://www.bohemiancoding.com/sketch -->
    <title>Group 32</title>
    <desc>Created with Sketch.</desc>
    <defs></defs>
    <g id="Page-1" stroke="none" stroke-width="1" fill="none" fill-rule="evenodd">
        <g id="detail" transform="translate(-1304.000000, -558.000000)" fill="#FFFFFF">
            <g id="detail-top" transform="translate(0.000000, 63.000000)">
                <g id="Group-3" transform="translate(968.000000, 308.000000)">
                    <g id="Group-20-Copy" transform="translate(237.000000, 43.000000)">
                        <g id="Group-2" transform="translate(40.000000, 144.000000)">
                            <g id="Group-32" transform="translate(59.000000, 0.000000)">
                                <path d="M2.88,1.44 C2.08470996,1.44 1.44,2.08470996 1.44,2.88 L1.44,17.28 C1.44,18.07529 2.08470996,18.72 2.88,18.72 L67.12,18.72 C67.91529,18.72 68.56,18.07529 68.56,17.28 L68.56,2.88 C68.56,2.08470996 67.91529,1.44 67.12,1.44 L2.88,1.44 Z M2.88,0 L67.12,0 C68.7105801,-2.9218482e-16 70,1.28941992 70,2.88 L70,17.28 C70,18.8705801 68.7105801,20.16 67.12,20.16 L2.88,20.16 C1.28941992,20.16 2.85932514e-15,18.8705801 2.66453526e-15,17.28 L0,2.88 C-1.9478988e-16,1.28941992 1.28941992,2.9218482e-16 2.88,0 Z" id="Rectangle-7" fill-rule="nonzero"></path>
                                <path d="M24.63104,8.46816 C24.63104,10.34976 24.0128,11.54592 21.94304,11.54592 L21.15008,11.54592 L21.15008,15 L19.2416,15 L19.2416,5.43072 L21.94304,5.43072 C24.0128,5.43072 24.63104,6.6 24.63104,8.46816 Z M22.72256,8.4816 C22.72256,7.8768 22.68224,7.15104 21.95648,7.15104 L21.15008,7.15104 L21.15008,9.8256 L21.95648,9.8256 C22.68224,9.8256 22.72256,9.0864 22.72256,8.4816 Z M31.12256,12.43296 C31.12256,13.19904 30.8672,13.84416 30.41024,14.31456 C29.89952,14.83872 29.22752,15.10752 28.42112,15.10752 C27.61472,15.10752 26.94272,14.83872 26.432,14.31456 C25.97504,13.84416 25.71968,13.19904 25.71968,12.43296 L25.71968,5.43072 L27.62816,5.43072 L27.62816,12.52704 C27.62816,13.14528 27.99104,13.3872 28.42112,13.3872 C28.8512,13.3872 29.21408,13.14528 29.21408,12.52704 L29.21408,5.43072 L31.12256,5.43072 L31.12256,12.43296 Z M37.93664,12.05664 C37.93664,13.09152 37.77536,13.87104 37.29152,14.36832 C36.88832,14.78496 36.25664,15 35.3024,15 L32.53376,15 L32.53376,5.43072 L35.3024,5.43072 C36.25664,5.43072 36.88832,5.64576 37.30496,6.04896 C37.76192,6.49248 37.93664,7.19136 37.93664,8.10528 C37.93664,8.72352 37.88288,9.24768 37.47968,9.65088 C37.35872,9.77184 37.22432,9.87936 37.03616,9.97344 C37.21088,10.06752 37.34528,10.18848 37.46624,10.30944 C37.90976,10.80672 37.93664,11.51904 37.93664,12.05664 Z M36.02816,12.0432 C36.02816,11.1696 35.78624,10.80672 35.04704,10.80672 L34.44224,10.80672 L34.44224,13.27968 L35.04704,13.27968 C35.81312,13.27968 36.02816,12.9168 36.02816,12.0432 Z M36.02816,8.17248 C36.02816,7.44672 35.78624,7.15104 35.02016,7.15104 L34.44224,7.15104 L34.44224,9.19392 L35.02016,9.19392 C35.7728,9.19392 36.02816,8.8848 36.02816,8.17248 Z M43.7024,15 L39.29408,15 L39.29408,5.43072 L41.20256,5.43072 L41.20256,13.27968 L43.7024,13.27968 L43.7024,15 Z M46.67264,15 L44.76416,15 L44.76416,5.43072 L46.67264,5.43072 L46.67264,15 Z M53.3792,12.27168 C53.33888,13.1856 53.01632,13.95168 52.51904,14.42208 C52.0352,14.87904 51.45728,15.10752 50.66432,15.10752 C49.58912,15.10752 49.02464,14.67744 48.58112,14.15328 C47.81504,13.23936 47.8688,11.51904 47.8688,10.2288 C47.8688,8.93856 47.81504,7.19136 48.58112,6.27744 C49.02464,5.75328 49.58912,5.3232 50.66432,5.3232 C51.45728,5.3232 52.0352,5.55168 52.51904,6.00864 C53.01632,6.47904 53.32544,7.23168 53.36576,8.1456 L51.45728,8.1456 C51.44384,7.8768 51.41696,7.608 51.30944,7.4064 C51.20192,7.17792 51.01376,7.04352 50.66432,7.04352 C50.31488,7.04352 50.14016,7.2048 50.03264,7.41984 C49.80416,7.86336 49.77728,9.05952 49.77728,10.21536 C49.77728,11.3712 49.80416,12.56736 50.03264,13.01088 C50.14016,13.22592 50.31488,13.3872 50.66432,13.3872 C51.01376,13.3872 51.21536,13.23936 51.32288,13.01088 C51.4304,12.80928 51.45728,12.54048 51.47072,12.27168 L53.3792,12.27168 Z" id="Public"></path>
                            </g>
                        </g>
                    </g>
                </g>
            </g>
        </g>
    </g>
</svg>