<?xml version="1.0" encoding="UTF-8"?>
<svg width="44px" height="44px" viewBox="0 0 44 44" version="1.1" xmlns="http://www.w3.org/2000/svg" xmlns:xlink="http://www.w3.org/1999/xlink">
    <!-- Generator: Sketch 54 (76480) - https://sketchapp.com -->
    <title>sign</title>
    <desc>Created with Sketch.</desc>
    <defs>
        <polygon id="path-1" points="7.33253875e-17 0 26 0 26 26 7.33253875e-17 26"></polygon>
    </defs>
    <g id="web" stroke="none" stroke-width="1" fill="none" fill-rule="evenodd">
        <g id="sync-room-view-1" transform="translate(-1332.000000, -256.000000)">
            <g id="side-new" transform="translate(1068.000000, 0.000000)">
                <g id="home" transform="translate(12.000000, 11.500000)">
                    <g id="sign" transform="translate(252.000000, 245.000000)">
                        <g id="chat" fill-rule="evenodd" fill="#FA3B53">
                            <ellipse id="Oval-2" cx="21.5744681" cy="21.5" rx="21.5744681" ry="21.5"></ellipse>
                        </g>
                        <g id="qianmingjifasong" fill-rule="evenodd" transform="translate(6.000000, 6.500000)">
                            <mask id="mask-2" fill="white">
                                <use xlink:href="#path-1"></use>
                            </mask>
                            <g id="Clip-2"></g>
                            <path d="M22.5171087,10.1813065 C24.3611258,8.13618068 25.7660866,5.73538937 24.5367419,3.60146135 C23.1319099,1.28960273 19.619363,1.91200112 17.1608347,2.80119758 C16.3705462,4.2237619 13.9118568,7.95834791 13.8240327,7.95834791 C13.6484166,7.95834791 14.3509131,5.11295837 14.5265292,3.95702906 C13.2971845,4.66836014 11.0141112,6.53565314 9.1700941,8.58077891 C8.99447803,9.64780814 8.46762982,11.5150685 8.37980568,11.5150685 C8.20418961,11.5150685 8.20418961,10.4480719 8.20418961,9.64780814 C7.67734139,10.3591392 7.15046097,11.0705029 6.79922883,11.781834 C5.7455002,14.0937252 4.77959571,17.5615458 4.42836357,19.6066715 C3.81369121,20.4069353 2.32093851,22.4520611 2.0574983,23.1633922 C1.79405809,23.9636559 2.49655458,24.2304214 2.93557865,23.7858232 C3.286843,23.4301576 4.25274749,22.0963629 5.04303592,21.2071991 C6.27238062,20.5847681 9.43353431,18.9842405 12.5068961,17.2947803 C11.8922237,17.2947803 11.1897272,17.2058476 11.1897272,17.0280148 C11.1897272,16.8501821 13.0337443,16.4945165 14.1752648,16.3166838 C16.6339542,14.9828891 18.7412827,13.649127 19.619363,12.8488632 C19.8828033,12.6710305 20.1463723,12.404265 20.4096515,12.1374995 C19.4438758,12.1374995 18.038915,12.2264322 18.038915,12.0485995 C18.1267392,11.9596668 21.287764,10.6259047 22.5171087,10.1813065 Z M11.9800156,12.9377633 C9.34574238,15.51642 4.07713142,21.4739319 3.81369121,22.0074629 C3.46245907,22.4520611 3.37463493,22.4520611 3.550251,22.0074629 C3.90151535,21.2071991 9.25791824,13.9158925 11.4531674,11.6929013 C13.4728006,9.64780814 17.1608347,7.51374968 19.3560839,7.33591691 C20.5854286,7.24698422 20.4096515,7.42481699 19.3560839,7.86954567 C17.2486266,8.58077891 14.5265292,10.4480719 11.9800156,12.9377633 Z" id="Fill-3" fill="#FFFFFF" mask="url(#mask-2)"></path>
                        </g>
                        <path d="M8.94409442,30.5154535 C12.0265021,28.5424686 14.2533932,27.7829474 15.6247679,28.2368901 C17.6818298,28.917804 16.3859398,32.9751445 17.750176,32.8333557 C19.1144123,32.691567 19.5159583,26.988483 21.0465818,26.988483 C22.5772053,26.988483 21.4560762,31.3705832 23.056674,31.8906562 C24.6572718,32.4107292 25.6619439,29.4953308 29.2952467,28.7150911 C31.7174487,28.1949313 33.7019035,27.9213525 35.2486113,27.8943546" id="路径-5" stroke="#FFFFFF" stroke-linecap="round" stroke-linejoin="round" transform="translate(22.096353, 29.912733) rotate(1.000000) translate(-22.096353, -29.912733) "></path>
                    </g>
                </g>
            </g>
        </g>
    </g>
</svg>