<?xml version="1.0" encoding="UTF-8"?>
<svg width="27px" height="27px" viewBox="0 0 27 27" version="1.1" xmlns="http://www.w3.org/2000/svg" xmlns:xlink="http://www.w3.org/1999/xlink">
    <!-- Generator: Sketch 49.3 (51167) - http://www.bohemiancoding.com/sketch -->
    <title>Group 14</title>
    <desc>Created with Sketch.</desc>
    <defs></defs>
    <g id="Page-1" stroke="none" stroke-width="1" fill="none" fill-rule="evenodd">
        <g id="tutor-profile" transform="translate(-1633.000000, -96.000000)">
            <g id="top" transform="translate(0.000000, 63.000000)">
                <g id="social" transform="translate(1463.000000, 33.000000)">
                    <g id="Group-14" transform="translate(170.000000, 0.000000)">
                        <circle id="Oval-4-Copy-2" fill="#1F345D" cx="13.6" cy="13.2" r="13.2"></circle>
                        <path d="M14.4374755,10.3921879 L14.4696252,10.9112217 L13.9337978,10.8476666 C11.983386,10.6040384 10.2794548,9.7778213 8.83272075,8.39020022 L8.12542857,7.70168594 L7.94324724,8.21012726 C7.55745151,9.34352768 7.80393212,10.5404833 8.60767324,11.3455154 C9.03633517,11.7904015 8.93988624,11.8539567 8.2004444,11.5891435 C7.94324724,11.5044033 7.71819973,11.4408481 7.69676663,11.4726257 C7.6217508,11.5467734 7.87894795,12.5106934 8.08256237,12.8920243 C8.36119263,13.4216507 8.92916969,13.9406846 9.55072949,14.2478679 L10.0758404,14.491496 L9.45428056,14.5020885 C8.85415385,14.5020885 8.83272075,14.512681 8.89702004,14.7351241 C9.11135101,15.4236384 9.95795833,16.1545228 10.9010146,16.4722986 L11.5654406,16.6947417 L10.986747,17.0337025 C10.1294231,17.5209588 9.12206756,17.7963645 8.11471202,17.8175496 C7.63246734,17.8281421 7.23595506,17.8705122 7.23595506,17.9022898 C7.23595506,18.0082151 8.54337395,18.6013966 9.30424888,18.8344322 C11.5868737,19.5229465 14.2981604,19.2263557 16.3343046,18.0505852 C17.7810386,17.2137755 19.2277726,15.5507487 19.9029152,13.9406846 C20.2672778,13.0826898 20.6316404,11.5149958 20.6316404,10.7629263 C20.6316404,10.2756701 20.6637901,10.2121149 21.2639168,9.62952592 C21.6175629,9.29056505 21.9497759,8.91982659 22.0140752,8.81390131 C22.1212407,8.6126433 22.1105241,8.6126433 21.5639802,8.79271626 C20.6530735,9.11049208 20.524475,9.06812197 20.97457,8.59145824 C21.306783,8.25249736 21.7032953,7.63813078 21.7032953,7.45805781 C21.7032953,7.42628023 21.5425471,7.47924287 21.3603657,7.57457561 C21.1674679,7.68050089 20.7388059,7.8393888 20.4173095,7.93472154 L19.8386159,8.11479451 L19.313505,7.76524111 C19.0241582,7.57457561 18.6169294,7.36272507 18.4025984,7.2991699 C17.8560544,7.15087452 17.0201637,7.17205957 16.5272024,7.34154001 C15.1876339,7.81820374 14.3410266,9.04693692 14.4374755,10.3921879 Z" id="Shape" fill="#FFFFFF"></path>
                    </g>
                </g>
            </g>
        </g>
    </g>
</svg>