<?xml version="1.0" encoding="UTF-8"?>
<svg width="23px" height="19px" viewBox="0 0 23 19" version="1.1" xmlns="http://www.w3.org/2000/svg" xmlns:xlink="http://www.w3.org/1999/xlink">
    <!-- Generator: Sketch 48.2 (47327) - http://www.bohemiancoding.com/sketch -->
    <title>Shape</title>
    <desc>Created with Sketch.</desc>
    <defs></defs>
    <g id="footer" stroke="none" stroke-width="1" fill="none" fill-rule="evenodd" transform="translate(-1591.000000, -222.000000)">
        <g fill="#00A5E5" id="bottom">
            <g transform="translate(260.000000, 221.000000)">
                <path d="M1342.16781,6.05616385 L1342.21767,6.87827089 L1341.38673,6.77760473 C1338.36211,6.39171775 1335.71973,5.08305756 1333.4762,2.88517955 L1332.37936,1.79462939 L1332.09684,2.59995874 C1331.49856,4.39517208 1331.88079,6.29105158 1333.1272,7.56615638 C1333.79195,8.27081956 1333.64238,8.37148573 1332.49569,7.95204336 C1332.09684,7.8178218 1331.74784,7.71715563 1331.71461,7.76748872 C1331.59828,7.88493258 1331.99713,9.4117028 1332.31288,10.0156998 C1332.74497,10.8545845 1333.62577,11.6766916 1334.58965,12.1632447 L1335.40397,12.5491317 L1334.44009,12.5659094 C1333.50943,12.5659094 1333.4762,12.5826871 1333.57591,12.9350187 C1333.90828,14.0255688 1335.22117,15.1832298 1336.68362,15.6865606 L1337.71398,16.0388922 L1336.81657,16.5757784 C1335.48707,17.3475524 1333.9249,17.7837725 1332.36274,17.8173279 C1331.61489,17.8341056 1331,17.9012163 1331,17.9515494 C1331,18.1193264 1333.02749,19.0588773 1334.20742,19.4279865 C1337.74722,20.5185367 1341.95177,20.0487613 1345.10933,18.1864371 C1347.35287,16.8609993 1349.5964,14.2269012 1350.64338,11.6766916 C1351.20842,10.3176983 1351.77346,7.83459949 1351.77346,6.64338317 C1351.77346,5.87160921 1351.82332,5.77094304 1352.75397,4.84816983 C1353.30239,4.3112836 1353.81757,3.72406429 1353.91728,3.55628734 C1354.08347,3.23751114 1354.06685,3.23751114 1353.21929,3.52273195 C1351.8067,4.02606279 1351.60727,3.95895201 1352.30526,3.20395575 C1352.82044,2.66706952 1353.43534,1.69396322 1353.43534,1.40874241 C1353.43534,1.35840933 1353.18606,1.4422978 1352.90354,1.59329706 C1352.6044,1.761074 1351.93965,2.01273942 1351.44109,2.16373868 L1350.54367,2.44895949 L1349.72935,1.89529556 C1349.28065,1.59329706 1348.64913,1.25774316 1348.31676,1.15707699 C1347.4692,0.922189267 1346.17294,0.955744657 1345.40847,1.22418777 C1343.33113,1.97918403 1342.01824,3.92539662 1342.16781,6.05616385 Z" id="Shape"></path>
            </g>
        </g>
    </g>
</svg>