<?xml version="1.0" encoding="UTF-8"?>
<svg width="17px" height="17px" viewBox="0 0 17 17" version="1.1" xmlns="http://www.w3.org/2000/svg" xmlns:xlink="http://www.w3.org/1999/xlink">
    <!-- Generator: Sketch 49.3 (51167) - http://www.bohemiancoding.com/sketch -->
    <title>v认证</title>
    <desc>Created with Sketch.</desc>
    <defs></defs>
    <g id="Page-1" stroke="none" stroke-width="1" fill="none" fill-rule="evenodd">
        <g id="detail" transform="translate(-1087.000000, -449.000000)">
            <g id="detail-top" transform="translate(0.000000, 63.000000)">
                <g id="Group-3" transform="translate(968.000000, 308.000000)">
                    <g id="Group-20" transform="translate(0.000000, 43.000000)">
                        <g id="v认证" transform="translate(119.000000, 35.000000)">
                            <circle id="Oval-3" fill="#FFFFFF" cx="8.8" cy="8.8" r="5.6"></circle>
                            <path d="M8.39995691,0.00533242321 C3.76073394,0.00533242321 0,3.75987817 0,8.39092625 C0,13.0221177 3.76073394,16.7766635 8.39995691,16.7766635 C13.0392661,16.7766635 16.8,13.0221177 16.8,8.39092625 C16.8,3.75987817 13.0392661,0.00533242321 8.39995691,0.00533242321 Z M11.1611399,9.16527228 C10.7058505,9.79556126 10.08,10.5528717 9.53369871,11.0002142 C9.13767624,11.3240916 8.40578879,11.8260973 7.82909274,11.7340935 C6.34351292,11.4974878 6.65972759,8.0373656 5.65917115,7.2569682 C5.20164094,7.13083584 4.98091983,7.79783456 4.72954539,7.40349168 C4.33418367,7.09071324 5.11042794,6.54413967 5.5043245,6.22921027 C5.99112905,5.84025914 6.56535445,5.28582738 7.20895919,5.52679239 C8.4623265,5.9963042 7.56389989,8.84016166 8.75883342,9.45880678 C9.37638141,8.9877176 10.0685661,8.20898362 9.92121754,7.2569682 C9.8041776,6.9392569 9.23834093,7.04020868 8.9139099,7.11021529 C8.89707499,5.65808706 11.9189692,4.544979 12.1685337,6.52317497 C12.3041036,7.73399403 11.1611399,9.16527228 11.1611399,9.16527228 Z" id="Fill-1" fill="#5E8DD4"></path>
                        </g>
                    </g>
                </g>
            </g>
        </g>
    </g>
</svg>