<?xml version="1.0" encoding="UTF-8"?>
<svg width="134px" height="89px" viewBox="0 0 134 89" version="1.1" xmlns="http://www.w3.org/2000/svg" xmlns:xlink="http://www.w3.org/1999/xlink">
    <!-- Generator: Sketch 49.3 (51167) - http://www.bohemiancoding.com/sketch -->
    <title>01</title>
    <desc>Created with Sketch.</desc>
    <defs>
        <polygon id="path-1" points="0 0.0194845679 43.9495958 0.0194845679 43.9495958 49.1666123 0 49.1666123"></polygon>
    </defs>
    <g id="Page-1" stroke="none" stroke-width="1" fill="none" fill-rule="evenodd">
        <g id="school" transform="translate(-294.000000, -1374.000000)">
            <g id="course" transform="translate(259.000000, 1193.000000)">
                <g id="cat" transform="translate(0.000000, 157.000000)">
                    <g id="01">
                        <g id="science" transform="translate(78.000000, 42.000000)">
                            <path d="M13,39 C13,39.7144259 13.3813177,40.3746797 14.0001757,40.7319805 C14.6189751,41.0893398 15.3812592,41.0893398 16.0000586,40.7319805 C16.6189165,40.3746797 17,39.7144259 17,39 C17,38.2855741 16.6189165,37.6251446 16.0000586,37.2680195 C15.3812592,36.9106602 14.6189751,36.9106602 14.0001757,37.2680195 C13.3813177,37.6251446 13,38.2855741 13,39 Z" id="Fill-1" fill="#40C4FF"></path>
                            <g id="Group-5">
                                <mask id="mask-2" fill="white">
                                    <use xlink:href="#path-1"></use>
                                </mask>
                                <g id="Clip-3"></g>
                                <path d="M20.6728485,26.146894 C18.1065455,26.146894 16.0182424,28.2384198 16.0182424,30.8086224 C16.0182424,33.3788858 18.1065455,35.4704115 20.6728485,35.4704115 C23.2388485,35.4704115 25.3271515,33.3788858 25.3271515,30.8086224 C25.3271515,28.2384198 23.2388485,26.146894 20.6728485,26.146894 Z M20.6728485,32.3626533 C19.8141818,32.3607716 19.1195758,31.6624835 19.1212121,30.8024918 C19.1228485,29.9425 19.820303,29.246822 20.6789697,29.2484609 C21.5373939,29.2501605 22.2322424,29.9486307 22.2303636,30.8086224 C22.2286667,31.6686142 21.5312727,32.3642922 20.6728485,32.3626533 Z M28.9483636,34.4354228 C26.3823636,34.4354228 24.2940606,36.5269486 24.2940606,39.0972119 C24.2940606,41.6674753 26.3823636,43.759001 28.9483636,43.759001 C31.5146667,43.759001 33.6029697,41.6674753 33.6029697,39.0972119 C33.6029697,36.5269486 31.5146667,34.4354228 28.9483636,34.4354228 Z M28.9483636,40.6512428 C28.0899394,40.6493004 27.3953333,39.9508302 27.3970303,39.0910813 C27.3986667,38.2310895 28.0961212,37.5354115 28.9547879,37.5370504 C29.8132121,37.5386893 30.5080606,38.2372202 30.5061818,39.0972119 C30.5044848,39.9572037 29.8070303,40.6528817 28.9483636,40.6512428 Z" id="Fill-2" fill="#40C4FF" mask="url(#mask-2)"></path>
                                <path d="M43.3527273,42.2360484 L29.1316364,16.6959681 L29.1067879,3.1272428 L30.5,3.1272428 C31.3570303,3.1272428 32.0516364,2.43156481 32.0516364,1.57351543 C32.0516364,0.715162551 31.3570303,0.0194845679 30.5,0.0194845679 L14.9848485,0.0194845679 C14.1280606,0.0194845679 13.4332121,0.715162551 13.4332121,1.57351543 C13.4332121,2.43156481 14.1280606,3.1272428 14.9848485,3.1272428 L16.254,3.1272428 L16.254,16.6151163 L0.692242424,42.0681533 C-0.198606061,43.5046091 -0.232,45.314428 0.605333333,46.7828117 C1.41830303,48.263821 2.97678788,49.1790494 4.66430303,49.1664846 L39.2878788,49.1664846 C40.9540606,49.1664846 42.4559394,48.3088601 43.3030303,46.8667593 C44.1472727,45.4246584 44.165697,43.6969053 43.3527273,42.2360484 Z M40.6221818,45.29118 C40.348,45.7706461 39.8364242,46.0641893 39.2847879,46.0587263 L4.6609697,46.0587263 C4.09775758,46.0650998 3.57715152,45.758749 3.30824242,45.2631975 C3.02557576,44.774323 3.03624242,44.168966 3.33618182,43.6904712 L19.1273939,17.864678 C19.2784242,17.6212119 19.3581818,17.3399907 19.3570303,17.0535494 L19.3570303,3.1272428 L26.0037576,3.1272428 L26.0286667,17.1061759 C26.0293333,17.3691265 26.0956364,17.6275854 26.2209091,17.8583045 L40.6375758,43.7464362 C40.9109697,44.22657 40.9050909,44.8167521 40.6221818,45.29118 Z" id="Fill-4" fill="#40C4FF" mask="url(#mask-2)"></path>
                            </g>
                        </g>
                    </g>
                </g>
            </g>
        </g>
    </g>
</svg>