<?xml version="1.0" encoding="UTF-8"?>
<svg width="134px" height="89px" viewBox="0 0 134 89" version="1.1" xmlns="http://www.w3.org/2000/svg" xmlns:xlink="http://www.w3.org/1999/xlink">
    <!-- Generator: Sketch 49.3 (51167) - http://www.bohemiancoding.com/sketch -->
    <title>01</title>
    <desc>Created with Sketch.</desc>
    <defs></defs>
    <g id="Page-1" stroke="none" stroke-width="1" fill="none" fill-rule="evenodd">
        <g id="school" transform="translate(-532.000000, -1378.000000)">
            <g id="course" transform="translate(259.000000, 1193.000000)">
                <g id="cat" transform="translate(0.000000, 157.000000)">
                    <g id="01-copy-6" transform="translate(240.000000, 0.000000)">
                        <g id="考试一" transform="translate(78.000000, 47.000000)" fill="#40C4FF">
                            <path d="M6.1358585,35.8795065 C6.35079578,35.8565587 6.4581207,35.7229659 6.4347817,35.5083064 C6.40310734,35.2196144 6.30296807,34.9651134 6.27284581,34.6765944 C6.10062006,33.0704822 7.69514537,29.478582 8.38002441,27.9745239 C11.4427225,21.1684389 11.4492183,21.2401074 11.3748899,20.5450441 C11.3358,20.1846837 10.7192134,18.9434869 10.0976256,19.0099085 C9.42872746,19.0829031 6.90179171,20.9804172 6.16172686,21.5204967 C5.62458487,21.91845 5.16987669,22.1862699 5.19700972,22.8860034 C5.18896179,23.0328575 5.18447794,23.4452829 5.44718544,23.4166847 C5.54284087,23.4063063 5.97622202,23.1655278 6.06670377,23.106544 L8.24326704,21.9981905 L8.29563609,22.0416644 C7.70031904,23.0268035 6.04112284,25.8018097 4.60916576,28.8905314 C4.08012918,30.0403407 3.33908708,32.810792 3.46796897,34.0092068 C3.60248441,35.2551892 4.64819823,35.3126162 5.60975368,35.7164506 C5.73708346,35.7768182 6.01594431,35.8921335 6.1358585,35.8795065 Z M18.1018116,34.0727456 C23.8175105,33.041884 27.2978388,26.3103504 26.8027185,21.7094409 C26.6989577,20.7515739 26.4508514,19.5655556 25.3390871,19.3463987 C25.4884337,19.1603374 26.0616764,19.0984131 26.0329338,18.8349175 C25.9763683,18.3071768 24.6813986,17.2835801 23.7018502,17.3898432 C22.1486568,17.5590108 18.6948292,19.8238619 16.8420227,22.3767708 C15.2850353,24.5331102 13.8846951,27.6925779 14.1761452,30.3997787 C14.3953364,32.4387271 15.920707,34.4788286 18.1018116,34.0727456 Z M22.3260562,21.2254624 C22.3413473,21.3693759 22.4194697,21.6520138 22.6114704,21.6306229 C22.8499191,21.6054264 23.3760814,20.6504424 23.9985315,20.5826369 C24.6671997,20.5094694 25.0036033,21.3950336 25.0579268,21.8984428 C25.2279106,23.4799351 23.5047334,26.5531469 22.579796,27.8409887 L20.4703755,30.2520021 C19.9749678,30.8153176 18.5439305,31.8919017 17.8264573,31.9687017 C17.1575592,32.0418693 16.9125571,30.6617175 16.8876085,30.2033967 C16.7648201,27.7200229 18.2857068,24.1126128 22.3260562,21.2254624 Z M30.342544,20.9139379 C28.785729,23.070508 27.3854463,26.2299756 27.6782186,28.9369458 C27.8967199,30.9745681 29.4220905,33.0159957 31.6031951,32.6108352 C37.317342,31.5790511 40.7992224,24.8484401 40.3041021,20.2475305 C40.2003413,19.2887411 39.952235,18.1035875 38.8404706,17.8835658 C38.9898173,17.698427 39.56306,17.6355802 39.5350072,17.3723152 C39.4777519,16.8445745 38.1827821,15.8209202 37.2032913,15.9279328 C35.6500404,16.095486 32.1946607,18.3619516 30.342544,20.9139379 Z M35.8274398,19.7619376 C35.8427309,19.9051593 35.9222329,20.1884891 36.112854,20.1684819 C36.3513027,20.1427665 36.877465,19.188532 37.4999151,19.120496 C38.1686408,19.0475013 38.5049868,19.9331232 38.5593679,20.4364747 C38.730214,22.0180248 37.006117,25.090314 36.0811796,26.3790784 L33.9724489,28.7900917 C33.4764088,29.3538108 32.0460039,30.4299337 31.3285307,30.5067337 C30.6598625,30.5797283 30.4148605,29.1997495 30.3890496,28.7414286 C30.2652839,26.2578819 31.7870904,22.6481655 35.8274398,19.7619376 Z M7.19036757,8.49095756 L34.7267126,8.49095756 C35.219591,8.49095756 35.6206079,8.08942951 35.6206079,7.59415008 L35.6206079,7.48875185 C35.6206079,6.99347242 35.219591,6.59188671 34.7267126,6.59188671 L7.19036757,6.59188671 C6.69817902,6.59188671 6.29641475,6.99347242 6.29641475,7.48875185 L6.29641475,7.59415008 C6.29710457,8.08873762 6.69817902,8.49095756 7.19036757,8.49095756 Z M21.7970197,12.3972651 L21.7970197,12.2916362 C21.7970197,11.7972793 21.3959452,11.3950594 20.9028369,11.3950594 L7.19036757,11.3950594 C6.69817902,11.3950594 6.29641475,11.7972793 6.29641475,12.2916362 L6.29641475,12.3972651 C6.29641475,12.8909877 6.69725926,13.2938996 7.19036757,13.2938996 L20.9021471,13.2938996 C21.3953129,13.2938996 21.7970197,12.8909877 21.7970197,12.3972651 Z M44,22.6889871 L44,2.35266378 C44,1.13222377 43.0045858,0.120908145 41.6851273,0.00294054144 L41.6740901,0.00224864934 C41.615915,-0.000230630701 41.5577975,-0.000461261403 41.4998524,0.00155675723 L41.4327096,0.00224864934 L22.0588074,0 L21.9411926,0 L2.56867003,0.00224864934 L2.50175722,0.00155675723 C2.44335223,-0.000461261403 2.38494723,-0.000230630701 2.32659972,0.00224864934 L2.31493022,0.00294054144 C0.994781909,0.12252256 0,1.13222377 0,2.35266378 L0,44.6522371 C0,45.9468249 1.15148665,47 2.56867003,47 L44,47 L44,22.6889871 Z M41.4782954,17.6105568 L41.4782954,44.4655416 L4.75489082,44.4655416 C3.52298233,44.4655416 2.52015249,43.5497647 2.52015249,42.423422 L2.52015249,4.58240141 C2.52015249,3.52115423 3.38622497,2.64210531 4.53483736,2.53803321 L4.54449487,2.53739898 C4.59479445,2.5349197 4.64549642,2.53468907 4.69602594,2.53647645 L4.75489082,2.53739898 L21.9485507,2.53515033 L22.0514493,2.53515033 L39.2451092,2.53739898 L39.304204,2.53647645 C39.3540437,2.53578456 39.4041133,2.53515033 39.4557351,2.53739898 L39.4651626,2.53803321 C40.6146373,2.64141342 41.4798475,3.52023171 41.4798475,4.58240141 L41.4798475,17.6099225 L41.4782954,17.6099225 L41.4782954,17.6105568 Z M32.7200757,35.0655531 C33.6124764,34.9301729 34.5064292,34.8038449 35.4012443,34.6869151 C15.5380853,35.8993407 4.81306587,41.1252018 4.81306587,41.1252018 C4.81306587,41.1252018 4.09559271,41.5932668 4.81306587,41.9209354 C5.17275096,42.0856057 7.26693789,41.1252018 7.26693789,41.1252018 C21.6299676,36.0114849 38.1951415,34.6853584 38.1951415,34.6853584 C36.2327681,34.7628503 32.7200757,35.0655531 32.7200757,35.0655531 Z M38.1960037,36.1297408 C18.3326148,37.3423394 7.60759537,42.5695842 7.60759537,42.5695842 C7.60759537,42.5695842 6.89012221,43.0367267 7.60759537,43.3650872 C7.96733794,43.5297575 10.0614674,42.5695842 10.0614674,42.5695842 C24.4244971,37.4558673 40.9905332,36.1297408 40.9905332,36.1297408 C39.0259755,36.2056183 35.515295,36.5083211 35.515295,36.5083211 C36.4586851,36.3562778 38.1960037,36.1297408 38.1960037,36.1297408 Z" id="Fill-1"></path>
                        </g>
                        <text id="Test-Prep" font-family="PingFangSC-Regular, PingFang SC" font-size="18" font-weight="normal" fill="#4A4A4A">
                            <tspan x="59.365" y="133">Test Prep</tspan>
                        </text>
                    </g>
                </g>
            </g>
        </g>
    </g>
</svg>