<?xml version="1.0" encoding="UTF-8"?>
<svg width="134px" height="89px" viewBox="0 0 134 89" version="1.1" xmlns="http://www.w3.org/2000/svg" xmlns:xlink="http://www.w3.org/1999/xlink">
    <!-- Generator: Sketch 49.3 (51167) - http://www.bohemiancoding.com/sketch -->
    <title>01</title>
    <desc>Created with Sketch.</desc>
    <defs></defs>
    <g id="Page-1" stroke="none" stroke-width="1" fill="none" fill-rule="evenodd">
        <g id="school" transform="translate(-773.000000, -1377.000000)">
            <g id="course" transform="translate(259.000000, 1193.000000)">
                <g id="cat" transform="translate(0.000000, 157.000000)">
                    <g id="01-copy-7" transform="translate(480.000000, 0.000000)">
                        <g id="com-语言" transform="translate(75.000000, 45.000000)" fill="#40C4FF">
                            <path d="M25.014106,0 C11.2062983,0 0,11.2063262 0,25.0141683 C0,30.6173313 1.80103964,35.9062103 5.20294912,40.2800849 L5.31748142,40.4231634 C5.34581787,40.5088011 5.40304913,40.5660325 5.46028038,40.5946482 C10.2344139,46.5694664 17.3812016,50 25.014106,50 C32.7901583,50 39.9370158,46.4835495 44.7110795,40.3945477 L44.7396951,40.365932 C44.7969962,40.3373163 44.8256118,40.2516786 44.8542275,40.2230629 C48.2275213,35.8205726 49.9999453,30.5603791 49.9999453,25.0141683 C50.0285609,11.2063262 38.8221929,0 25.014106,0 Z M33.9622125,12.8931169 C33.1045115,9.69129943 31.9324573,6.46086629 30.4171551,3.25904884 C35.2485199,4.45972166 39.5654315,7.2613381 42.6529878,11.2063262 C39.9084002,11.9495666 36.9925376,12.5215316 33.9622125,12.8931169 Z M35.5631522,23.7278577 C35.4772355,20.9549268 35.1629521,18.1817167 34.591198,15.4087159 C37.9072606,14.9798992 41.1663013,14.2938902 44.225242,13.4075713 C46.1119192,16.5238208 47.2269515,20.0972236 47.4270515,23.7565432 L35.5631522,23.7565432 L35.5631522,23.7278577 Z M34.3624823,35.6204721 C35.0770355,32.5329081 35.5059209,29.388322 35.5631522,26.2720725 L47.4270515,26.2720725 C47.1983359,30.3029774 45.9117494,34.1337819 43.6535576,37.4784684 C40.70887,36.6779966 37.5642918,36.0206731 34.3624823,35.6204721 Z M41.9953867,39.6797136 C38.9650616,43.1675484 34.9055511,45.6547411 30.4458405,46.7695669 C31.8182739,43.8821033 32.9044114,40.9663033 33.7334969,38.1074554 C36.563722,38.4790407 39.336646,38.9937743 41.9953867,39.6797136 Z M16.3522953,38.2789402 C17.1527651,41.0804869 18.2675183,43.9393347 19.5824412,46.8267983 C15.2371932,45.7403788 11.2349837,43.3104175 8.23327422,39.965731 C10.8347139,39.1938748 13.5790921,38.622189 16.3522953,38.2789402 Z M18.6964037,13.0646017 C19.5824412,9.71991513 20.8690277,6.31799718 22.5844299,2.71569955 C24.213706,2.54421474 25.8718769,2.54421474 27.5013623,2.71569955 C29.2164853,6.3463337 30.5030718,9.77693714 31.4180041,13.1502394 C27.1870092,13.5221039 22.8701674,13.4934882 18.6964037,13.0646017 Z M17.0668485,23.7278577 C17.1527651,21.0404947 17.4671183,18.3247952 18.0674183,15.6088164 C22.641382,16.0949343 27.4155154,16.12355 32.0183739,15.723349 C32.5900583,18.4104329 32.9330271,21.1264116 32.9903281,23.7565432 L17.0668485,23.7565432 L17.0668485,23.7278577 Z M32.9903281,26.300758 C32.8757958,29.3310906 32.5042114,32.2468907 31.7896583,35.3630704 C27.3298779,34.9628694 22.698683,34.9914851 18.2962037,35.4773238 C17.5529651,32.3614232 17.1241495,29.3597063 17.0668485,26.3579894 L32.9903281,26.300758 Z M19.6110569,3.23043314 C18.1247193,6.40363489 16.9526651,9.60545234 16.0948943,12.7499686 C13.1218702,12.3497676 10.2630295,11.7210598 7.54705752,10.9205879 C10.6346139,7.11846899 14.8942244,4.40249026 19.6110569,3.23043314 Z M14.4940244,26.300758 C14.5796619,29.4166585 15.0084776,32.6187551 15.7233099,35.7633412 C12.5498368,36.2207736 9.4911753,36.9067826 6.57510333,37.7644858 C4.23099492,34.3911836 2.88745634,30.4172308 2.63012508,26.300758 L14.4940244,26.300758 Z M2.63012508,23.7278577 C2.83022509,19.9543545 4.00227929,16.3236505 6.00341894,13.1218331 C9.03374403,14.065174 12.2068681,14.7797289 15.5232099,15.2658468 C14.9228401,18.0674633 14.6082775,20.9263111 14.4940244,23.7278577 L2.63012508,23.7278577 Z M31.1034416,37.8786694 C30.1887187,40.9376178 29.0163853,44.0538673 27.4727467,47.312637 C25.8431914,47.4841218 24.1852997,47.4841218 22.5558143,47.312637 C21.0405121,44.0538673 19.8398423,40.994919 18.953735,37.9645863 C22.9273986,37.5643155 27.1011623,37.5356998 31.1034416,37.8786694 Z" id="Fill-1"></path>
                        </g>
                        <text id="Language-Learning" font-family="PingFangSC-Regular, PingFang SC" font-size="18" font-weight="normal" fill="#4A4A4A">
                            <tspan x="59.442" y="133">Language </tspan>
                            <tspan x="64.212" y="158">Learning</tspan>
                        </text>
                    </g>
                </g>
            </g>
        </g>
    </g>
</svg>