<?xml version="1.0" encoding="UTF-8"?>
<svg width="134px" height="89px" viewBox="0 0 134 89" version="1.1" xmlns="http://www.w3.org/2000/svg" xmlns:xlink="http://www.w3.org/1999/xlink">
    <!-- Generator: Sketch 49.3 (51167) - http://www.bohemiancoding.com/sketch -->
    <title>01</title>
    <desc>Created with Sketch.</desc>
    <defs></defs>
    <g id="Page-1" stroke="none" stroke-width="1" fill="none" fill-rule="evenodd">
        <g id="school" transform="translate(-1013.000000, -1373.000000)" fill="#40C4FF" fill-rule="nonzero">
            <g id="course" transform="translate(259.000000, 1193.000000)">
                <g id="cat" transform="translate(0.000000, 157.000000)">
                    <g id="01-copy-8" transform="translate(719.000000, 0.000000)">
                        <g id="电脑-(1)" transform="translate(65.000000, 37.000000)">
                            <path d="M37.1143095,14.5416667 L4.20609089,14.5416667 C1.91256546,14.5571827 0.0480644365,16.3931253 0,18.6833333 L0,39.8945834 C-5.68800176e-05,42.2194735 1.87834791,44.108742 4.20609089,44.125 L37.0846892,44.125 C38.2335045,44.1651429 39.3493191,43.7372248 40.1759953,42.9394752 C41.0026716,42.1417257 41.4692052,41.0426644 41.4685023,39.8945834 L41.4685023,18.6833333 C41.4452662,17.5560211 40.9723928,16.4846191 40.1548684,15.7069977 C39.337344,14.9293763 38.2428233,14.509888 37.1143095,14.5416667 Z M38.387985,39.9833333 C38.3718914,40.674306 37.8063341,41.2260203 37.1143095,41.2258333 L4.20609089,41.2258333 C3.86294115,41.2182361 3.53738594,41.0726375 3.30319109,40.8220281 C3.06899623,40.5714187 2.94598715,40.2370134 2.96203582,39.8945834 L2.96203582,18.6833333 C3.00785948,18.0268951 3.54737864,17.5137096 4.20609089,17.5 L37.0846892,17.5 C37.7767138,17.4998131 38.342271,18.0515274 38.3583646,18.7425 L38.387985,39.9833333 Z M30.1831456,50.0416667 L28.8502294,50.0416667 L28.1689612,45.9 C28.0380902,45.0830788 27.268924,44.5267926 26.4509804,44.6575 C25.6330367,44.7882074 25.0760543,45.5564122 25.2069253,46.3733334 L25.8585732,50.0416667 L15.4618273,50.0416667 L16.0838548,46.255 C16.1379768,45.4792274 15.5814019,44.7940739 14.8101794,44.6870833 C14.4245296,44.6189161 14.0276645,44.7093003 13.709727,44.9377063 C13.3917896,45.1661123 13.1797675,45.5131521 13.1218189,45.9 L12.4997914,50.0416667 L10.9891531,50.0416667 C10.1712095,50.0416667 9.50813517,50.7039121 9.50813517,51.5208333 C9.50813517,52.3377545 10.1712095,53 10.9891531,53 L30.1831456,53 C31.0010892,53 31.6641635,52.3377545 31.6641635,51.5208333 C31.6641635,50.7039121 31.0010892,50.0416667 30.1831456,50.0416667 Z M69.5189821,-7.10542736e-14 L45.822695,-7.10542736e-14 C45.0047514,2.86135923e-08 44.3416771,0.494023743 44.3416771,1.10343287 L44.3416771,51.8613447 C44.3416771,52.4707538 45.0047514,52.9647775 45.822695,52.9647776 L69.5189821,52.9647776 C70.3369257,52.9647776 71,52.4707538 71,51.8613447 L71,1.10343287 C71,0.494023723 70.3369257,-6.66868456e-14 69.5189821,-7.10542736e-14 Z M68.1268252,50.7579118 L47.3925741,50.7579118 L47.3925741,2.20686574 L68.1268252,2.20686574 L68.1268252,50.7579118 Z" id="Shape"></path>
                            <path d="M52.5082008,29.9999825 L64.5009112,29.9999825 C65.328835,29.9999824 65.9999999,29.3284101 65.9999999,28.4999837 C65.9999999,27.6715573 65.328835,26.999985 64.5009112,26.9999849 L52.5082008,26.9999849 C51.6802769,26.9999849 51.009112,27.6715573 51.009112,28.4999837 C51.009112,29.3284101 51.6802769,29.9999825 52.5082008,29.9999825 Z M51.4588386,39.4199746 C51.017461,39.8456335 50.8795588,40.4972998 51.1106355,41.0654327 C51.3417121,41.6335656 51.8952031,42.0036802 52.5082008,41.9999724 C52.9108377,41.9869293 53.2947754,41.8268581 53.5875447,41.5499728 C53.8590074,41.2681732 54.0096394,40.8913647 54.0072896,40.4999736 C53.9942544,40.0970924 53.8342803,39.7129216 53.5575629,39.4199746 C52.957501,38.8919549 52.0589006,38.8919549 51.4588386,39.4199746 Z M57.4551938,39.4199746 C57.0138162,39.8456335 56.8759141,40.4972998 57.1069907,41.0654327 C57.3380673,41.6335656 57.8915583,42.0036802 58.504556,41.9999724 C58.9071929,41.9869293 59.2911306,41.8268581 59.5838999,41.5499728 C59.8553627,41.2681732 60.0059946,40.8913647 60.0036448,40.4999736 C60.0026523,40.0945733 59.8409029,39.7061392 59.5539182,39.4199746 C58.9538562,38.8919549 58.0552558,38.8919549 57.4551938,39.4199746 Z M52.5082008,23.9999874 L64.5009112,23.9999874 C65.3288351,23.9999874 66,23.3284151 66,22.4999887 C66,21.6715623 65.3288351,20.9999899 64.5009112,20.9999899 L52.5082008,20.9999899 C51.6802769,20.9999899 51.009112,21.6715623 51.009112,22.4999887 C51.009112,23.3284151 51.6802769,23.9999874 52.5082008,23.9999874 Z M52.5082008,17.9999924 L64.5009112,17.9999924 C65.3288351,17.9999924 66,17.3284201 66,16.4999937 C66,15.6715673 65.3288351,14.9999949 64.5009112,14.9999949 L52.5082008,14.9999949 C51.6802769,14.9999949 51.009112,15.6715673 51.009112,16.4999937 C51.009112,17.3284201 51.6802769,17.9999924 52.5082008,17.9999924 Z M52.5082008,11.9999975 L64.5009112,11.9999975 C65.3288351,11.9999975 66,11.3284252 66,10.4999988 C66,9.67157232 65.3288351,9 64.5009112,9 L52.5082008,9 C51.6802769,9 51.009112,9.67157232 51.009112,10.4999988 C51.009112,11.3284252 51.6802769,11.9999975 52.5082008,11.9999975 Z" id="Shape"></path>
                        </g>
                    </g>
                </g>
            </g>
        </g>
    </g>
</svg>