<?xml version="1.0" encoding="UTF-8"?>
<svg width="134px" height="89px" viewBox="0 0 134 89" version="1.1" xmlns="http://www.w3.org/2000/svg" xmlns:xlink="http://www.w3.org/1999/xlink">
    <!-- Generator: Sketch 49.3 (51167) - http://www.bohemiancoding.com/sketch -->
    <title>01</title>
    <desc>Created with Sketch.</desc>
    <defs></defs>
    <g id="Page-1" stroke="none" stroke-width="1" fill="none" fill-rule="evenodd">
        <g id="school" transform="translate(-1251.000000, -1373.000000)" fill="#40C4FF" fill-rule="nonzero">
            <g id="course" transform="translate(259.000000, 1193.000000)">
                <g id="cat" transform="translate(0.000000, 157.000000)">
                    <g id="01-copy-9" transform="translate(959.000000, 0.000000)">
                        <g id="noun_164136_cc" transform="translate(78.000000, 50.000000)">
                            <path d="M41.4145044,14.5762354 C43.5722695,13.1522072 45,10.7141501 45,7.94768208 C45,3.56521281 41.4220731,0 37.0246632,0 C36.726732,0 36.4343053,0.0191972997 36.1460069,0.0507357207 C36.0290363,0.0212541533 35.9079372,0 35.7813336,0 L6.88062874,0 C6.58889008,0 6.31848137,0.0870734666 6.09004449,0.233795686 C2.60087766,1.08121934 0,4.21380729 0,7.94768208 C0,10.7141501 1.42773046,13.1522072 3.58549563,14.5762354 C3.59512851,14.582406 3.60613752,14.5885766 3.6157704,14.5940615 C4.47928931,15.158325 5.45771471,15.5587258 6.50907478,15.7548125 L6.50907478,37.5382627 C6.50907478,38.3459206 7.16617483,39 7.97602483,39 C8.78587483,39 9.44297488,38.345235 9.44297488,37.5382627 L9.44297488,15.8953642 L12.3183896,15.8953642 L12.3183896,37.5382627 C12.3183896,38.3459206 12.9754897,39 13.7853397,39 C14.5951897,39 15.2522897,38.345235 15.2522897,37.5382627 L15.2522897,15.8953642 L18.1277045,15.8953642 L18.1277045,37.5382627 C18.1277045,38.3459206 18.7848045,39 19.5946545,39 C20.4045045,39 21.0616046,38.345235 21.0616046,37.5382627 L21.0616046,15.8953642 L23.9363312,15.8953642 L23.9363312,37.5382627 C23.9363312,38.3459206 24.5934313,39 25.4032813,39 C26.2131313,39 26.8702313,38.345235 26.8702313,37.5382627 L26.8702313,15.8953642 L29.744958,15.8953642 L29.744958,37.5382627 C29.744958,38.3459206 30.4020581,39 31.2119081,39 C32.0217581,39 32.6788581,38.345235 32.6788581,37.5382627 L32.6788581,15.8953642 L35.5542729,15.8953642 L35.5542729,37.5382627 C35.5542729,38.3459206 36.2113729,39 37.021911,39 C37.832449,39 38.488861,38.345235 38.488861,37.5382627 L38.488861,15.7541269 C39.5402211,15.5587258 40.5186465,15.158325 41.3821654,14.5940615 C41.3938625,14.5878909 41.4048715,14.582406 41.4145044,14.5762354 Z M14.1493249,12.9712041 C15.2743077,11.600654 15.9513616,9.85232846 15.9513616,7.94768208 C15.9513616,6.0430357 15.2743077,4.29402458 14.1493249,2.92416012 L30.8492989,2.92416012 C29.7243161,4.29471019 29.0472623,6.0430357 29.0472623,7.94768208 C29.0472623,9.85232846 29.7243161,11.6013396 30.8492989,12.9712041 L14.1493249,12.9712041 Z M4.41529946,6.23226623 C5.46597147,5.1860134 7.17511965,5.18669901 8.22579165,6.23226623 C8.95169799,6.95559306 8.95169799,8.1327989 8.22579165,8.85612573 C7.65263528,9.4272454 7.65263528,10.3528295 8.22579165,10.9239492 C8.79894803,11.4950688 9.72852097,11.4950688 10.3009893,10.9239492 C12.1711442,9.06043985 12.1711442,6.02795211 10.3009893,4.16512842 C9.76085993,3.62691841 9.1367869,3.22240388 8.47074204,2.94952798 C11.0193269,3.19840726 13.0167734,5.34439112 13.0167734,7.9483677 C13.0167734,9.32440272 12.4573783,10.5735984 11.5546398,11.4813565 C11.5484473,11.4868414 11.5422547,11.4902695 11.5367502,11.4957544 C9.57301876,13.4518222 6.3790309,13.4518222 4.41529946,11.4957544 C2.95867036,10.0443015 2.95935842,7.6830336 4.41529946,6.23226623 Z M34.6996988,10.9239492 C35.2721671,11.4950688 36.2024281,11.4950688 36.7748964,10.9239492 C37.3480528,10.3528295 37.3480528,9.4272454 36.7748964,8.85612573 C36.0489901,8.1327989 36.048302,6.95559306 36.7748964,6.23226623 C37.8255684,5.18532778 39.5340285,5.1860134 40.5853886,6.23226623 C42.0420177,7.68371921 42.0420177,10.0449871 40.5853886,11.4957544 C38.6216572,13.4518222 35.4276693,13.4518222 33.4639379,11.4957544 C33.4584334,11.4902695 33.4515527,11.4861558 33.4460482,11.4813565 C32.5433097,10.5729128 31.9839146,9.32440272 31.9839146,7.9483677 C31.9839146,5.34507674 33.9820492,3.19840726 36.5306341,2.94952798 C35.8645892,3.22240388 35.2405162,3.62691841 34.7003868,4.16512842 C32.8288558,6.02795211 32.8288558,9.06043985 34.6996988,10.9239492 Z" id="Shape"></path>
                        </g>
                    </g>
                </g>
            </g>
        </g>
    </g>
</svg>