<?xml version="1.0" encoding="UTF-8"?>
<svg width="134px" height="89px" viewBox="0 0 134 89" version="1.1" xmlns="http://www.w3.org/2000/svg" xmlns:xlink="http://www.w3.org/1999/xlink">
    <!-- Generator: Sketch 49.3 (51167) - http://www.bohemiancoding.com/sketch -->
    <title>01</title>
    <desc>Created with Sketch.</desc>
    <defs></defs>
    <g id="Page-1" stroke="none" stroke-width="1" fill="none" fill-rule="evenodd">
        <g id="school" transform="translate(-1493.000000, -1373.000000)" fill="#40C4FF">
            <g id="course" transform="translate(259.000000, 1193.000000)">
                <g id="cat" transform="translate(0.000000, 157.000000)">
                    <g id="01-copy-10" transform="translate(1199.000000, 0.000000)">
                        <g id="others" transform="translate(81.000000, 47.000000)">
                            <path d="M13.8720136,23.5804714 L5.54772829,23.5804714 C2.48455725,23.5804714 0,26.0648154 0,29.1281997 L0,37.452485 C0,40.5157094 2.48455725,43 5.54772829,43 L13.8693474,43 C16.9352379,43 19.4168624,40.5157094 19.4168624,37.452485 L19.4168624,29.1281997 C19.4197952,26.0648154 16.9352379,23.5804714 13.8720136,23.5804714 Z M16.6459044,37.452485 C16.6459044,38.9868167 15.4036258,40.2261625 13.8720136,40.2261625 L5.54772829,40.2261625 C4.01611611,40.2261625 2.77389081,38.9868167 2.77389081,37.452485 L2.77389081,29.1281997 C2.77389081,27.5965875 4.01611611,26.3543089 5.54772829,26.3543089 L13.8693474,26.3543089 C15.4009063,26.3543089 16.6429716,27.5965875 16.6429716,29.1281997 L16.6429716,37.452485 L16.6459044,37.452485 Z M37.452485,0 L29.1281997,0 C26.0648154,0 23.5804714,2.48455725 23.5804714,5.54772829 L23.5804714,13.8693474 C23.5804714,16.9352379 26.0648154,19.4168624 29.1281997,19.4168624 L37.452485,19.4168624 C40.5157094,19.4168624 43,16.9325184 43,13.8693474 L43,5.54772829 C43,2.48455725 40.5157094,0 37.452485,0 Z M40.223443,13.8720136 C40.223443,15.4036258 38.9840972,16.6459044 37.4496055,16.6459044 L29.1254802,16.6459044 C27.5937081,16.6459044 26.3516427,15.4036258 26.3516427,13.8720136 L26.3516427,5.54772829 C26.3516427,4.01611611 27.5937081,2.77389081 29.1254802,2.77389081 L37.4496055,2.77389081 C38.9840972,2.77389081 40.223443,4.01611611 40.223443,5.54772829 L40.223443,13.8720136 Z M13.8720136,0 L5.54772829,0 C2.48455725,0 0,2.48455725 0,5.54772829 L0,13.8693474 C0,16.9352379 2.48455725,19.4168624 5.54772829,19.4168624 L13.8693474,19.4168624 C16.9352379,19.4168624 19.4168624,16.9325184 19.4168624,13.8693474 L19.4168624,5.54772829 C19.4197952,2.48455725 16.9352379,0 13.8720136,0 Z M16.6459044,13.8720136 C16.6459044,15.4036258 15.4036258,16.6459044 13.8720136,16.6459044 L5.54772829,16.6459044 C4.01611611,16.6459044 2.77389081,15.4036258 2.77389081,13.8720136 L2.77389081,5.54772829 C2.77389081,4.01611611 4.01611611,2.77389081 5.54772829,2.77389081 L13.8693474,2.77389081 C15.4009063,2.77389081 16.6429716,4.01611611 16.6429716,5.54772829 L16.6429716,13.8720136 L16.6459044,13.8720136 Z M37.452485,23.5804714 L29.1281997,23.5804714 C26.0648154,23.5804714 23.5804714,26.0648154 23.5804714,29.1281997 L23.5804714,37.452485 C23.5804714,40.5157094 26.0648154,43 29.1281997,43 L37.452485,43 C40.5157094,43 43,40.5157094 43,37.452485 L43,29.1281997 C43,26.0648154 40.5157094,23.5804714 37.452485,23.5804714 Z M40.223443,37.452485 C40.223443,38.9868167 38.9840972,40.2261625 37.4496055,40.2261625 L29.1254802,40.2261625 C27.5937081,40.2261625 26.3516427,38.9868167 26.3516427,37.452485 L26.3516427,29.1281997 C26.3516427,27.5965875 27.5937081,26.3543089 29.1254802,26.3543089 L37.4496055,26.3543089 C38.9840972,26.3543089 40.223443,27.5965875 40.223443,29.1281997 L40.223443,37.452485 Z" id="Fill-1"></path>
                        </g>
                    </g>
                </g>
            </g>
        </g>
    </g>
</svg>