<?xml version="1.0" encoding="UTF-8"?>
<svg width="103px" height="69px" viewBox="0 0 103 69" version="1.1" xmlns="http://www.w3.org/2000/svg" xmlns:xlink="http://www.w3.org/1999/xlink">
    <!-- Generator: Sketch 49.3 (51167) - http://www.bohemiancoding.com/sketch -->
    <title>Group</title>
    <desc>Created with Sketch.</desc>
    <defs></defs>
    <g id="Page-1" stroke="none" stroke-width="1" fill="none" fill-rule="evenodd">
        <g id="school" transform="translate(-909.000000, -268.000000)" fill="#40C4FF" fill-rule="nonzero">
            <g id="banner" transform="translate(0.000000, 130.000000)">
                <g id="Group" transform="translate(909.000000, 138.000000)">
                    <path d="M29.5360338,21.359554 C34.623875,22.6825804 39.1843181,23.4056298 43.3724801,25.0517208 C49.8563754,27.5900854 55.8749193,25.8978423 62.064092,24.2517513 C74.4114141,20.9749533 86.8052713,17.8519956 99.1681051,14.6521177 C99.5403862,14.5598136 99.8816438,14.3752052 100.253925,14.2982851 C101.618955,14.0059886 103.030521,13.6675399 102.999498,11.9599128 C102.968474,10.2369017 101.432815,9.94460512 100.145343,9.66769261 C93.5218422,8.26774605 86.8673182,6.9293356 80.2283058,5.59092515 C71.355607,3.82176191 62.4363731,2.17567089 53.579186,0.237283344 C49.8563754,-0.578070149 46.598916,0.914180583 43.2018513,1.60646185 C29.737686,4.32943484 16.3045442,7.23701616 2.85589059,10.0522933 C1.49086,10.3445898 0.0637825788,10.4984301 0.00173573423,12.2368253 C-0.0603111104,14.1598288 1.55290685,14.3598212 2.94896085,14.7136538 C5.91169768,15.4674712 8.82789938,16.421281 11.8216596,16.9135699 C14.0708577,17.2827866 14.5827442,18.3442845 14.4276271,20.3595922 C14.2414866,22.7748846 14.8309316,25.2824812 13.0160614,27.4054771 C12.659292,27.8362299 12.4731515,28.8515757 12.7368506,29.2823285 C14.7843965,32.6975828 13.1091317,36.1589891 12.8609443,39.5434753 C12.2404758,48.0662269 12.8454326,56.4351382 15.3738415,64.6194412 C16.4286378,68.0346955 18.1814612,69.1269615 21.8112016,68.9885052 C24.9755907,68.865433 27.7211636,67.5270225 30.327131,65.8963156 C32.3281418,64.6348252 31.4594859,63.0348863 30.3736662,61.78878 C24.6808682,55.235184 22.2765529,47.2662574 20.337589,39.0973385 C19.856726,37.0666468 18.677836,34.5898182 19.3913747,33.0360314 C20.9890809,29.543857 19.7636557,26.7747319 18.7709062,23.6363902 C17.8867387,20.8364971 19.2207458,19.3903984 22.3075764,18.7135012 C30.7769707,16.8674178 39.1688064,14.6367337 47.5916655,12.5598899 C47.9639466,12.4675857 48.3517394,12.4675857 48.7240204,12.3752816 C50.0425159,12.052217 51.3299879,12.067601 51.7798275,13.5906198 C52.2606906,15.2674789 51.112824,16.0366803 49.6702348,16.3905129 C44.9546746,17.5596991 40.2236027,18.6981171 35.5080426,19.8673033 C33.7552192,20.282672 32.0179075,20.7288089 29.5360338,21.359554 Z" id="Shape"></path>
                    <path d="M28.0450157,33.4274607 C28.0450157,45.4810705 33.9211784,51.9481205 47.1918922,54.4985065 C55.7556022,56.1380403 63.3171759,53.6483778 70.1043717,48.6235103 C74.0218135,45.7239644 75.8135117,41.5340446 75.9349827,36.6761666 C75.9957183,34.2320468 75.8438794,31.7879269 75.9805344,29.3589879 C76.0868216,27.2943898 75.8286956,26.5505272 73.3992743,27.264028 C67.1283306,29.0857323 60.7510997,30.5127339 54.4346044,32.1826295 C52.7491934,32.6228747 51.1397018,32.6532364 49.4542907,32.2281721 C42.9404049,30.5734574 36.4113352,29.0250088 29.9278171,27.264028 C28.3638772,26.8389637 27.9083607,27.0666767 28.0146479,28.660668 C28.1057512,30.2242974 28.0450157,31.8334695 28.0450157,33.4274607 Z" id="Shape"></path>
                </g>
            </g>
        </g>
    </g>
</svg>