<?xml version="1.0" encoding="UTF-8"?>
<svg width="218px" height="42px" viewBox="0 0 218 42" version="1.1" xmlns="http://www.w3.org/2000/svg" xmlns:xlink="http://www.w3.org/1999/xlink">
    <!-- Generator: Sketch 49.3 (51167) - http://www.bohemiancoding.com/sketch -->
    <title>logo</title>
    <desc>Created with Sketch.</desc>
    <defs></defs>
    <g id="Page-1" stroke="none" stroke-width="1" fill="none" fill-rule="evenodd">
        <g id="school" transform="translate(-256.000000, -66.000000)">
            <g id="header" transform="translate(256.000000, 66.000000)">
                <g id="logo">
                    <text id="Sample-School" font-family="NeoSans-Medium, NeoSans" font-size="24" font-weight="400" letter-spacing="-0.600000024" fill="#4A4A4A">
                        <tspan x="66.3320001" y="26.975">Sample Schoo</tspan>
                        <tspan x="213.14" y="26.975">l</tspan>
                    </text>
                    <g fill="#40C4FF" fill-rule="nonzero" id="Group">
                        <g>
                            <path d="M17.179957,12.9586241 C20.1393555,13.7612907 22.7919871,14.1999574 25.2280773,15.1986241 C28.9995058,16.7386241 32.5002577,15.7119574 36.1002577,14.7132907 C43.2822126,12.7252907 50.4912352,10.8306241 57.6822126,8.88929072 C57.898754,8.83329072 58.0972502,8.72129072 58.3137916,8.67462406 C59.1077765,8.49729072 59.9288292,8.29195739 59.910784,7.25595739 C59.8927389,6.21062406 58.9995058,6.03329072 58.2506337,5.86529072 C54.3980021,5.01595739 50.5273254,4.20395739 46.6656713,3.39195739 C41.504769,2.31862406 36.3167991,1.31995739 31.1649194,0.14395739 C28.9995058,-0.350709277 27.104769,0.554624057 25.1288292,0.974624057 C17.2972502,2.62662406 9.48371638,4.39062406 1.66115998,6.09862406 C0.867175022,6.27595739 0.0370998344,6.36929072 0.00100960879,7.42395739 C-0.0350806168,8.59062406 0.903265248,8.71195739 1.71529532,8.92662406 C3.43860359,9.38395739 5.1348442,9.96262406 6.87619758,10.2612907 C8.18446826,10.4852907 8.48221262,11.1292907 8.39198705,12.3519574 C8.28371638,13.8172907 8.62657352,15.3386241 7.57093442,16.6266241 C7.36341562,16.8879574 7.25514495,17.5039574 7.40852841,17.7652907 C8.59950585,19.8372907 7.62506976,21.9372907 7.48070886,23.9906241 C7.1198066,29.1612907 7.4716863,34.2386241 8.94236299,39.2039574 C9.55589683,41.2759574 10.5754457,41.9386241 12.6867239,41.8546241 C14.5273254,41.7799574 16.1243179,40.9679574 17.6401074,39.9786241 C18.8040171,39.2132907 18.298754,38.2426241 17.667175,37.4866241 C14.3558968,33.5106241 12.9574006,28.6759574 11.829581,23.7199574 C11.5498818,22.4879574 10.8641675,20.9852907 11.2792051,20.0426241 C12.2085284,17.9239574 11.4957465,16.2439574 10.9183028,14.3399574 C10.4040171,12.6412907 11.179957,11.7639574 12.9754457,11.3532907 C17.9017615,10.2332907 22.7829645,8.87995739 27.6822126,7.61995739 C27.898754,7.56395739 28.1243179,7.56395739 28.3408592,7.50795739 C29.1077765,7.31195739 29.8566487,7.32129072 30.1183028,8.24529072 C30.3980021,9.26262406 29.7303329,9.72929072 28.8912352,9.94395739 C26.148378,10.6532907 23.3964983,11.3439574 20.6536412,12.0532907 C19.6340923,12.3052907 18.623566,12.5759574 17.179957,12.9586241 Z" id="Shape"></path>
                            <path d="M15.9451165,20.4971147 C15.9451165,27.9077813 19.4368458,31.8837813 27.3225601,33.4517813 C32.4112819,34.4597813 36.904515,32.9291147 40.9375977,29.8397813 C43.2654173,28.0571147 44.3300789,25.4811147 44.4022594,22.494448 C44.4383496,20.9917813 44.348124,19.4891147 44.429327,17.9957813 C44.4924849,16.726448 44.3391015,16.2691147 42.8954925,16.7077813 C39.1691767,17.8277813 35.379703,18.7051147 31.6263195,19.7317813 C30.6248158,20.002448 29.6684248,20.0211147 28.666921,19.7597813 C24.7962443,18.742448 20.9165451,17.790448 17.0639135,16.7077813 C16.1345902,16.446448 15.8639135,16.586448 15.9270714,17.566448 C15.9812067,18.5277813 15.9451165,19.5171147 15.9451165,20.4971147 Z" id="Shape"></path>
                        </g>
                    </g>
                </g>
            </g>
        </g>
    </g>
</svg>